<svg version="1.2" xmlns="http://www.w3.org/2000/svg" viewBox="308.4 198.3 184.2 203.6"> 	<title>blocks</title> 	<defs> 		<linearGradient id="g1" x1="330.2" y1="315.2" x2="283.8" y2="268.9" gradientUnits="userSpaceOnUse"> 			<stop offset="0" stop-color="#3dc5e0"/> 			<stop offset="1" stop-color="#2ba2d3"/> 		</linearGradient> 		<linearGradient id="g2" x1="324.7" y1="350.3" x2="285.9" y2="311.6" gradientUnits="userSpaceOnUse"> 			<stop offset="0" stop-color="#3dc5e0"/> 			<stop offset="1" stop-color="#2ba2d3"/> 		</linearGradient> 		<linearGradient id="g3" x1="344" y1="344.6" x2="297.3" y2="298" gradientUnits="userSpaceOnUse"> 			<stop offset="0" stop-color="#3dc5e0"/> 			<stop offset="1" stop-color="#2ba2d3"/> 		</linearGradient> 		<linearGradient id="g4" x1="385" y1="320.8" x2="352.9" y2="288.6" gradientUnits="userSpaceOnUse"> 			<stop offset="0" stop-color="#2cc3e0"/> 			<stop offset="1" stop-color="#31aadb"/> 		</linearGradient> 		<linearGradient id="g5" x1="366.7" y1="393.6" x2="304.3" y2="331.1" gradientUnits="userSpaceOnUse"> 			<stop offset="0" stop-color="#3dc5e0"/> 			<stop offset="1" stop-color="#2ba2d3"/> 		</linearGradient> 		<linearGradient id="g6" x1="318.5" y1="396.8" x2="274.3" y2="352.6" gradientUnits="userSpaceOnUse"> 			<stop offset="0" stop-color="#2cc3e0"/> 			<stop offset="1" stop-color="#0ea5e0"/> 		</linearGradient> 		<radialGradient id="g7" cx="347.9" cy="375.6" r="48.5" gradientUnits="userSpaceOnUse"> 			<stop offset="0" stop-color="#7cabe3"/> 			<stop offset="1" stop-color="#f2f7fa"/> 		</radialGradient> 		<radialGradient id="g8" cx="380.8" cy="359.9" r="70.4" gradientUnits="userSpaceOnUse"> 			<stop offset="0" stop-color="#b1cce3"/> 			<stop offset="1" stop-color="#00050e"/> 		</radialGradient> 		<radialGradient id="g9" cx="332.3" cy="339.1" r="40.9" gradientUnits="userSpaceOnUse"> 			<stop offset="0" stop-color="#b1cce3"/> 			<stop offset="1" stop-color="#00050e"/> 		</radialGradient> 		<radialGradient id="g10" cx="337.3" cy="305.3" r="48.9" gradientUnits="userSpaceOnUse"> 			<stop offset="0" stop-color="#b1cce3"/> 			<stop offset="1" stop-color="#00050e"/> 		</radialGradient> 		<radialGradient id="g11" cx="391.8" cy="319.8" r="40.3" gradientUnits="userSpaceOnUse"> 			<stop offset="0" stop-color="#b1cce3"/> 			<stop offset="1" stop-color="#00050e"/> 		</radialGradient> 		<linearGradient id="g12" x1="345" y1="414" x2="301.4" y2="370.4" gradientUnits="userSpaceOnUse"> 			<stop offset="0" stop-color="#6df2fa"/> 			<stop offset="1" stop-color="#2ba2d3"/> 		</linearGradient> 		<linearGradient id="g13" x1="408.7" y1="289.1" x2="458.6" y2="362.9" gradientUnits="userSpaceOnUse"> 			<stop offset="0" stop-color="#b2dced"/> 			<stop offset="1" stop-color="#0eabe8"/> 		</linearGradient> 		<linearGradient id="g14" x1="309.6" y1="227.9" x2="353.8" y2="227.9" gradientUnits="userSpaceOnUse"> 			<stop offset="0" stop-color="#50d0fa"/> 			<stop offset="1" stop-color="#87e9ed"/> 		</linearGradient> 		<linearGradient id="g15" x1="345.3" y1="216.3" x2="364.5" y2="216.3" gradientUnits="userSpaceOnUse"> 			<stop offset="0" stop-color="#43b1de"/> 			<stop offset="1" stop-color="#87e9ed"/> 		</linearGradient> 		<linearGradient id="g16" x1="363.6" y1="214.2" x2="371.8" y2="214.2" gradientUnits="userSpaceOnUse"> 			<stop offset="0" stop-color="#43b1de"/> 			<stop offset="1" stop-color="#5be0e0"/> 		</linearGradient> 		<linearGradient id="g17" x1="371.6" y1="209.1" x2="391" y2="209.1" gradientUnits="userSpaceOnUse"> 			<stop offset="0" stop-color="#43b1de"/> 			<stop offset="1" stop-color="#87e9ed"/> 		</linearGradient> 		<linearGradient id="g18" x1="387.8" y1="227.4" x2="399.8" y2="178.7" gradientUnits="userSpaceOnUse"> 			<stop offset="0" stop-color="#43b1de"/> 			<stop offset="1" stop-color="#87e9ed"/> 		</linearGradient> 		<linearGradient id="g19" x1="386.8" y1="208.2" x2="438.2" y2="204.8" gradientUnits="userSpaceOnUse"> 			<stop offset="0" stop-color="#43b1de"/> 			<stop offset="1" stop-color="#5be0e0"/> 		</linearGradient> 		<linearGradient id="g20" x1="368.8" y1="212.6" x2="414.6" y2="212.6" gradientUnits="userSpaceOnUse"> 			<stop offset="0" stop-color="#5abde8"/> 			<stop offset="1" stop-color="#87e9ed"/> 		</linearGradient> 		<linearGradient id="g21" x1="352.7" y1="232.7" x2="384.5" y2="232.7" gradientUnits="userSpaceOnUse"> 			<stop offset="0" stop-color="#49c1f2"/> 			<stop offset="1" stop-color="#5be0e0"/> 		</linearGradient> 		<linearGradient id="g22" x1="373.2" y1="241.9" x2="414" y2="241.9" gradientUnits="userSpaceOnUse"> 			<stop offset="0" stop-color="#43b1de"/> 			<stop offset="1" stop-color="#87e9ed"/> 		</linearGradient> 		<linearGradient id="g23" x1="393.5" y1="234" x2="420.3" y2="234" gradientUnits="userSpaceOnUse"> 			<stop offset="0" stop-color="#60c2eb"/> 			<stop offset="1" stop-color="#81ebeb"/> 		</linearGradient> 		<linearGradient id="g24" x1="413.2" y1="205.6" x2="471.5" y2="218.3" gradientUnits="userSpaceOnUse"> 			<stop offset="0" stop-color="#43b1de"/> 			<stop offset="1" stop-color="#71dde1"/> 		</linearGradient> 		<linearGradient id="g25" x1="436.7" y1="223.6" x2="453.3" y2="223.6" gradientUnits="userSpaceOnUse"> 			<stop offset="0" stop-color="#2c9ac7"/> 			<stop offset="1" stop-color="#28aaaa"/> 		</linearGradient> 		<linearGradient id="g26" x1="436.7" y1="227.3" x2="475.2" y2="227.3" gradientUnits="userSpaceOnUse"> 			<stop offset="0" stop-color="#43b1de"/> 			<stop offset="1" stop-color="#87e9ed"/> 		</linearGradient> 		<linearGradient id="g27" x1="468.7" y1="231.2" x2="491.5" y2="231.2" gradientUnits="userSpaceOnUse"> 			<stop offset="0" stop-color="#43b1de"/> 			<stop offset="1" stop-color="#5be0e0"/> 		</linearGradient> 		<linearGradient id="g28" x1="435.7" y1="273.1" x2="441" y2="227.5" gradientUnits="userSpaceOnUse"> 			<stop offset="0" stop-color="#43b1de"/> 			<stop offset="1" stop-color="#87e9ed"/> 		</linearGradient> 		<linearGradient id="g29" x1="414.2" y1="276.4" x2="435.6" y2="246.8" gradientUnits="userSpaceOnUse"> 			<stop offset="0" stop-color="#43b1de"/> 			<stop offset="1" stop-color="#87e9ed"/> 		</linearGradient> 		<linearGradient id="g30" x1="409.2" y1="261.7" x2="435.5" y2="261.7" gradientUnits="userSpaceOnUse"> 			<stop offset="0" stop-color="#43b1de"/> 			<stop offset="1" stop-color="#87e9ed"/> 		</linearGradient> 		<linearGradient id="g31" x1="364.3" y1="255.3" x2="438.1" y2="261.6" gradientUnits="userSpaceOnUse"> 			<stop offset="0" stop-color="#43b1de"/> 			<stop offset="1" stop-color="#87e9ed"/> 		</linearGradient> 		<radialGradient id="g32" cx="362.4" cy="229.2" r="6.4" gradientUnits="userSpaceOnUse"> 			<stop offset="0" stop-color="#b1cce3"/> 			<stop offset="1" stop-color="#00050e"/> 		</radialGradient> 		<radialGradient id="g33" cx="453.2" cy="222.6" r="27.1" gradientUnits="userSpaceOnUse"> 			<stop offset="0" stop-color="#b1cce3"/> 			<stop offset="1" stop-color="#00050e"/> 		</radialGradient> 		<radialGradient id="g34" cx="438.7" cy="241" r="30.2" gradientUnits="userSpaceOnUse"> 			<stop offset="0" stop-color="#b1cce3"/> 			<stop offset="1" stop-color="#00050e"/> 		</radialGradient> 		<linearGradient id="g35" x1="408.4" y1="436.7" x2="367.4" y2="407.9" gradientUnits="userSpaceOnUse"> 			<stop offset="0" stop-color="#00909d"/> 			<stop offset="1" stop-color="#00aae0"/> 		</linearGradient> 		<linearGradient id="g36" x1="357.1" y1="334.3" x2="430.6" y2="312.2" gradientUnits="userSpaceOnUse"> 			<stop offset="0" stop-color="#02a0cb"/> 			<stop offset="1" stop-color="#1ebccb"/> 		</linearGradient> 		<linearGradient id="g37" x1="386.9" y1="239.6" x2="493.1" y2="279.4" gradientUnits="userSpaceOnUse"> 			<stop offset="0" stop-color="#03a9d8"/> 			<stop offset="1" stop-color="#38e2f2"/> 		</linearGradient> 		<linearGradient id="g38" x1="422.3" y1="274.2" x2="435.5" y2="274.2" gradientUnits="userSpaceOnUse"> 			<stop offset="0" stop-color="#02a0cb"/> 			<stop offset="1" stop-color="#1ebccb"/> 		</linearGradient> 		<linearGradient id="g39" x1="412.3" y1="283.9" x2="468.8" y2="283.9" gradientUnits="userSpaceOnUse"> 			<stop offset="0" stop-color="#1ebccb"/> 			<stop offset="1" stop-color="#02a0cb"/> 		</linearGradient> 		<linearGradient id="g40" x1="432.4" y1="261.4" x2="455.7" y2="261.4" gradientUnits="userSpaceOnUse"> 			<stop offset="0" stop-color="#02a0cb"/> 			<stop offset="1" stop-color="#25d6e7"/> 		</linearGradient> 		<linearGradient id="g41" x1="453.7" y1="254.5" x2="475.2" y2="254.5" gradientUnits="userSpaceOnUse"> 			<stop offset="0" stop-color="#02a0cb"/> 			<stop offset="1" stop-color="#22cada"/> 		</linearGradient> 		<linearGradient id="g42" x1="474.1" y1="244.3" x2="492.5" y2="244.3" gradientUnits="userSpaceOnUse"> 			<stop offset="0" stop-color="#25d2e2"/> 			<stop offset="1" stop-color="#02a0cb"/> 		</linearGradient> 		<linearGradient id="g43" x1="474.1" y1="264.2" x2="492.5" y2="264.2" gradientUnits="userSpaceOnUse"> 			<stop offset="0" stop-color="#1ebccb"/> 			<stop offset="1" stop-color="#02a0cb"/> 		</linearGradient> 		<linearGradient id="g44" x1="403.5" y1="291.6" x2="459.1" y2="241.9" gradientUnits="userSpaceOnUse"> 			<stop offset="0" stop-color="#02a0cb"/> 			<stop offset="1" stop-color="#23cddd"/> 		</linearGradient> 		<linearGradient id="g45" x1="449.2" y1="318.8" x2="488.8" y2="291.8" gradientUnits="userSpaceOnUse"> 			<stop offset="0" stop-color="#43b1de"/> 			<stop offset="1" stop-color="#87e9ed"/> 		</linearGradient> 		<linearGradient id="g46" x1="467.9" y1="307.5" x2="491.7" y2="307.5" gradientUnits="userSpaceOnUse"> 			<stop offset="0" stop-color="#1ebccb"/> 			<stop offset="1" stop-color="#02a0cb"/> 		</linearGradient> 		<linearGradient id="g47" x1="451.2" y1="334.3" x2="493.3" y2="312.3" gradientUnits="userSpaceOnUse"> 			<stop offset="0" stop-color="#43b1de"/> 			<stop offset="1" stop-color="#87e9ed"/> 		</linearGradient> 		<linearGradient id="g48" x1="400.1" y1="372.4" x2="453.1" y2="310.9" gradientUnits="userSpaceOnUse"> 			<stop offset="0" stop-color="#43b1de"/> 			<stop offset="1" stop-color="#6af7fa"/> 		</linearGradient> 		<linearGradient id="g49" x1="437" y1="327.2" x2="486.9" y2="327.2" gradientUnits="userSpaceOnUse"> 			<stop offset="0" stop-color="#1ebccb"/> 			<stop offset="1" stop-color="#02a0cb"/> 		</linearGradient> 		<radialGradient id="g50" cx="397.4" cy="283.4" r="139.7" gradientUnits="userSpaceOnUse"> 			<stop offset="0" stop-color="#3ca7cf"/> 			<stop offset=".832" stop-color="#f2f7fa"/> 		</radialGradient> 		<linearGradient id="g51" x1="483.1" y1="323.9" x2="492.6" y2="323.9" gradientUnits="userSpaceOnUse"> 			<stop offset="0" stop-color="#1ebccb"/> 			<stop offset="1" stop-color="#02a0cb"/> 		</linearGradient> 		<linearGradient id="g52" x1="453.5" y1="344.9" x2="467.2" y2="383.3" gradientUnits="userSpaceOnUse"> 			<stop offset="0" stop-color="#43b1de"/> 			<stop offset="1" stop-color="#87e9ed"/> 		</linearGradient> 		<radialGradient id="g53" cx="398.3" cy="361.3" r="21.6" gradientUnits="userSpaceOnUse"> 			<stop offset="0" stop-color="#b1cce3"/> 			<stop offset="1" stop-color="#00050e"/> 		</radialGradient> 		<radialGradient id="g54" cx="282.5" cy="190" r="159.4" gradientUnits="userSpaceOnUse"> 			<stop offset="0" stop-color="#b1cce3"/> 			<stop offset="1" stop-color="#00050e"/> 		</radialGradient> 		<radialGradient id="g55" cx="380.9" cy="257.7" r="22.3" gradientUnits="userSpaceOnUse"> 			<stop offset="0" stop-color="#b1cce3"/> 			<stop offset="1" stop-color="#00050e"/> 		</radialGradient> 		<radialGradient id="g56" cx="387" cy="248.1" r="27.6" gradientUnits="userSpaceOnUse"> 			<stop offset="0" stop-color="#b1cce3"/> 			<stop offset="1" stop-color="#00050e"/> 		</radialGradient> 		<radialGradient id="g57" cx="386.5" cy="223" r="24.1" gradientUnits="userSpaceOnUse"> 			<stop offset="0" stop-color="#b1cce3"/> 			<stop offset="1" stop-color="#00050e"/> 		</radialGradient> 		<radialGradient id="g58" cx="328" cy="388.3" r="184.2" gradientUnits="userSpaceOnUse"> 			<stop offset="0" stop-color="#dbebfa"/> 			<stop offset=".605" stop-color="#00050e"/> 		</radialGradient> 		<linearGradient id="g59" x1="471.2" y1="214.7" x2="544.4" y2="341.5" gradientUnits="userSpaceOnUse"> 			<stop offset="0" stop-color="#f2f7fa"/> 			<stop offset="1" stop-color="#2deade"/> 		</linearGradient> 		<linearGradient id="g60" x1="399.3" y1="244.3" x2="492.6" y2="244.3" gradientUnits="userSpaceOnUse"> 			<stop offset="0" stop-color="#f2f7fa"/> 			<stop offset="1" stop-color="#52c9c9"/> 		</linearGradient> 		<radialGradient id="g61" cx="411.6" cy="334" r="56.5" gradientUnits="userSpaceOnUse"> 			<stop offset="0" stop-color="#b1cce3"/> 			<stop offset="1" stop-color="#00050e"/> 		</radialGradient> 		<radialGradient id="g62" cx="467.5" cy="322.3" r="45.9" gradientUnits="userSpaceOnUse"> 			<stop offset="0" stop-color="#b1cce3"/> 			<stop offset="1" stop-color="#00050e"/> 		</radialGradient> 		<radialGradient id="g63" cx="476.5" cy="330.5" r="66.6" gradientUnits="userSpaceOnUse"> 			<stop offset="0" stop-color="#b1cce3"/> 			<stop offset="1" stop-color="#00050e"/> 		</radialGradient> 		<radialGradient id="g64" cx="279.9" cy="149" r="308.6" gradientUnits="userSpaceOnUse"> 			<stop offset=".681" stop-color="#000516"/> 			<stop offset="1" stop-color="#9bdbe4"/> 		</radialGradient> 		<radialGradient id="g65" cx="370.2" cy="358" r="42.7" gradientUnits="userSpaceOnUse"> 			<stop offset="0" stop-color="#b1cce3"/> 			<stop offset="1" stop-color="#00050e"/> 		</radialGradient> 		<radialGradient id="g66" cx="346.9" cy="338.5" r="39.9" gradientUnits="userSpaceOnUse"> 			<stop offset="0" stop-color="#b1cce3"/> 			<stop offset="1" stop-color="#00050e"/> 		</radialGradient> 		<radialGradient id="g67" cx="342.2" cy="313.7" r="49.1" gradientUnits="userSpaceOnUse"> 			<stop offset="0" stop-color="#b1cce3"/> 			<stop offset="1" stop-color="#00050e"/> 		</radialGradient> 		<radialGradient id="g68" cx="330.4" cy="278.4" r="56.3" gradientUnits="userSpaceOnUse"> 			<stop offset="0" stop-color="#b1cce3"/> 			<stop offset="1" stop-color="#00050e"/> 		</radialGradient> 		<radialGradient id="g69" cx="400.7" cy="289.8" r="102.9" gradientUnits="userSpaceOnUse"> 			<stop offset="0" stop-color="#b1cce3"/> 			<stop offset="1" stop-color="#00050e"/> 		</radialGradient> 		<radialGradient id="g70" cx="366.2" cy="271.6" r="48.4" gradientUnits="userSpaceOnUse"> 			<stop offset="0" stop-color="#b1cce3"/> 			<stop offset="1" stop-color="#00050e"/> 		</radialGradient> 		<radialGradient id="g71" cx="479.5" cy="320.2" r="52.1" gradientUnits="userSpaceOnUse"> 			<stop offset="0" stop-color="#c7e5ff"/> 			<stop offset="1" stop-color="#00050e"/> 		</radialGradient> 		<radialGradient id="g72" cx="271.2" cy="201.2" r="182.6" gradientUnits="userSpaceOnUse"> 			<stop offset="0" stop-color="#b1cce3"/> 			<stop offset="1" stop-color="#00050e"/> 		</radialGradient> 	</defs> 	<style> 		.s0 { fill: #80b2dd }  		.s1 { fill: url(#g1) }  		.s2 { fill: url(#g2) }  		.s3 { fill: url(#g3) }  		.s4 { fill: url(#g4) }  		.s5 { fill: url(#g5) }  		.s6 { fill: url(#g6) }  		.s7 { mix-blend-mode: multiply;fill: url(#g7) }  		.s8 { opacity: .3;mix-blend-mode: screen;fill: url(#g8) }  		.s9 { opacity: .6;mix-blend-mode: screen;fill: url(#g9) }  		.s10 { mix-blend-mode: screen;fill: url(#g10) }  		.s11 { mix-blend-mode: screen;fill: url(#g11) }  		.s12 { fill: url(#g12) }  		.s13 { fill: url(#g13) }  		.s14 { fill: url(#g14) }  		.s15 { fill: url(#g15) }  		.s16 { fill: url(#g16) }  		.s17 { fill: url(#g17) }  		.s18 { fill: url(#g18) }  		.s19 { fill: url(#g19) }  		.s20 { fill: url(#g20) }  		.s21 { fill: url(#g21) }  		.s22 { fill: url(#g22) }  		.s23 { fill: url(#g23) }  		.s24 { fill: url(#g24) }  		.s25 { fill: url(#g25) }  		.s26 { fill: url(#g26) }  		.s27 { fill: url(#g27) }  		.s28 { fill: url(#g28) }  		.s29 { fill: url(#g29) }  		.s30 { fill: url(#g30) }  		.s31 { fill: url(#g31) }  		.s32 { opacity: .9;mix-blend-mode: screen;fill: url(#g32) }  		.s33 { mix-blend-mode: screen;fill: url(#g33) }  		.s34 { mix-blend-mode: screen;fill: url(#g34) }  		.s35 { fill: url(#g35) }  		.s36 { fill: url(#g36) }  		.s37 { fill: url(#g37) }  		.s38 { fill: url(#g38) }  		.s39 { fill: url(#g39) }  		.s40 { fill: url(#g40) }  		.s41 { fill: url(#g41) }  		.s42 { fill: url(#g42) }  		.s43 { fill: url(#g43) }  		.s44 { fill: url(#g44) }  		.s45 { fill: url(#g45) }  		.s46 { fill: url(#g46) }  		.s47 { fill: url(#g47) }  		.s48 { fill: url(#g48) }  		.s49 { fill: url(#g49) }  		.s50 { opacity: .5;mix-blend-mode: multiply;fill: url(#g50) }  		.s51 { fill: url(#g51) }  		.s52 { fill: url(#g52) }  		.s53 { opacity: .7;mix-blend-mode: screen;fill: url(#g53) }  		.s54 { opacity: .7;mix-blend-mode: screen;fill: url(#g54) }  		.s55 { opacity: .9;mix-blend-mode: screen;fill: url(#g55) }  		.s56 { opacity: .9;mix-blend-mode: screen;fill: url(#g56) }  		.s57 { opacity: .9;mix-blend-mode: screen;fill: url(#g57) }  		.s58 { mix-blend-mode: screen;fill: url(#g58) }  		.s59 { mix-blend-mode: multiply;fill: url(#g59) }  		.s60 { opacity: .1;mix-blend-mode: multiply;fill: #22a6f0 }  		.s61 { mix-blend-mode: multiply;fill: url(#g60) }  		.s62 { opacity: .3;mix-blend-mode: multiply;fill: #22a6f0 }  		.s63 { opacity: .7;mix-blend-mode: screen;fill: url(#g61) }  		.s64 { opacity: .7;mix-blend-mode: screen;fill: url(#g62) }  		.s65 { opacity: .7;mix-blend-mode: screen;fill: url(#g63) }  		.s66 { mix-blend-mode: screen;fill: url(#g64) }  		.s67 { opacity: .7;mix-blend-mode: screen;fill: url(#g65) }  		.s68 { opacity: .7;mix-blend-mode: screen;fill: url(#g66) }  		.s69 { opacity: .7;mix-blend-mode: screen;fill: url(#g67) }  		.s70 { opacity: .7;mix-blend-mode: screen;fill: url(#g68) }  		.s71 { opacity: .7;mix-blend-mode: screen;fill: url(#g69) }  		.s72 { opacity: .7;mix-blend-mode: screen;fill: url(#g70) }  		.s73 { opacity: .7;fill: #f2f7fa }  		.s74 { opacity: .5;mix-blend-mode: screen;fill: url(#g71) }  		.s75 { opacity: .5;mix-blend-mode: screen;fill: url(#g72) }  		.s76 { opacity: .2;fill: #a4daff }  		.s77 { opacity: .4;fill: #a4daff }  		.s78 { opacity: .4;fill: #def3ff }  		.s79 { opacity: .3;fill: #def3ff }  		.s80 { opacity: .2;fill: #def3ff }  	</style> 	<g id="_Artboards_"> 	</g> 	<g id="Layer 1"> 		<g id="&lt;Group&gt;"> 		</g> 		<g id="ice"> 			<path id="&lt;Path&gt;" class="s0" d="m309.6 244.3c-0.1 16.1-0.3 31.9-1.2 47.3q1.2 19.1 2.4 38.3-0.6 13-1.2 26.1c8.1 4.1 16.2 8.3 23.1 13.2 8.9 3.5 17.5 7.6 26.1 11.6 4.2 2.3 8.2 4.8 11.7 7.7 10 4 20 8.7 30 13.4-0.3-11.6-0.5-23.4-1.2-35.1 0.1-9 1-17.4 2.3-25.6-0.8-16.3-1.1-33.8-1.1-50.9-10.7-5.8-21.7-11.2-33.4-15.8-5.5-3.2-9.7-6.5-13.3-9.7-14.9-6.2-29.6-13.3-44.2-20.5z"/> 			<path id="&lt;Path&gt;" class="s0" d="m345.3 227.9c-11.4 4.7-23.6 10.5-35.7 16.4 14.6 7.2 29.3 14.3 44.2 20.5 3.6 3.2 7.8 6.5 13.3 9.7 11.7 4.6 22.7 10 33.4 15.8 7.5-3.6 14.8-7.5 21.8-12 4.4-1.7 8.8-3 13.2-4.1 6.2-3.8 12.5-8 18.2-12.8 3.4-0.9 7.5-2.1 9.7-3q1.3-0.8 2.3-1.8c3.3-1 6.5-1.8 9.5-2.1 5.1-3.8 10.6-7.1 16.3-10.2-8.5-4-16.1-8.4-22.1-13.1-5.4-1.4-10.7-2.8-16.1-3.9q-0.9-1.8-1.6-3.7c-3.7-2-13.7-6.4-21.3-8.8-4.2-2.7-8.1-5.5-11.5-8.5q-9.2-3.6-18.4-8c-7.8 3.9-15.7 7.6-23.6 10.8q-2.3 2.9-5.3 5.1c-2.6 0.5-5.3 1.2-8 2.1-5.6 3.5-12.4 8.1-18.3 11.6z"/> 			<path id="&lt;Path&gt;" class="s1" d="m330.5 289.2c7.1-8.9 14.8-17.1 23.3-24.4-14.9-6.2-29.6-13.3-44.2-20.5-0.1 16.1-0.3 31.9-1.2 47.3 7.7-1.3 15.1-2.1 22.1-2.4z"/> 			<path id="&lt;Path&gt;" class="s2" d="m345.1 317.4c-5.6-8.8-10.6-18.2-14.6-28.2-7 0.3-14.4 1.1-22.1 2.4q1.2 19.1 2.4 38.3c11.5-5.1 22.9-9.5 34.3-12.5z"/> 			<path id="&lt;Path&gt;" class="s3" d="m330.5 289.2c4 10 9 19.4 14.6 28.2 7.3-3.4 16.3-7.5 26-12.1-0.7-10.5-2.1-20.8-4-30.8-5.5-3.2-9.7-6.5-13.3-9.7-8.5 7.3-16.2 15.5-23.3 24.4z"/> 			<path id="&lt;Path&gt;" class="s4" d="m367.1 274.5c1.9 10 3.3 20.3 4 30.8 9.3-4.4 19.4-9.4 29.4-15-10.7-5.8-21.7-11.2-33.4-15.8z"/> 			<path id="&lt;Path&gt;" class="s5" d="m400.5 290.3c-10 5.6-20.1 10.6-29.4 15-9.7 4.6-18.7 8.7-26 12.1-0.3 7.5 0.3 14.7 0.9 21.7 7.9 7.6 16.2 13.9 24.5 19.6 10.9-4.7 21.4-10.4 31.1-17.5-0.8-16.3-1.1-33.8-1.1-50.9z"/> 			<path id="&lt;Path&gt;" class="s6" d="m346 339.1c-0.6-7-1.2-14.2-0.9-21.7-11.4 3-22.8 7.4-34.3 12.5q-0.6 13-1.2 26.1c8.1 4.1 16.2 8.3 23.1 13.2 3.3-10.6 7.4-20.8 13.3-30.1z"/> 			<path id="&lt;Path&gt;" class="s7" d="m346.1 334.2c-5.6-0.8-14.2 0.7-16.6 1.8-5.8 2.7-13.7 10.6-16.7 16.5-0.5 0.9-0.6 2.3 0.1 3 1.9 2.1 7.3 5.5 11.8 8.6 3 1.7 5.9 3.5 8.6 5.4 3.3-10.6 7.4-20.8 13.3-30.1q-0.3-2.6-0.5-5.2z"/> 			<path id="&lt;Path&gt;" class="s8" d="m346.1 334.2q0.2 2.6 0.5 5.2c7.9 7.6 16.1 13.9 24.5 19.6 10.9-4.7 21.3-10.4 31-17.5-0.2-5.3-0.4-10.7-0.6-16.2-1.3-2.7-3-5.3-5.2-5.9-9.7-2.3-30.5 1.4-39.9 4.1-4.5 1.2-8.3 5.3-10.3 10.7z"/> 			<path id="&lt;Path&gt;" class="s9" d="m311.4 330.2c11.4-5.1 22.9-9.5 34.3-12.5q-3.9-6-7.3-12.4c-1.4-1.4-2.9-2.4-3.8-2.7-4.8-1.6-13-1.5-17.5 0.8-2.7 1.4-5.3 8.7-6.5 13.7q0.4 6.6 0.8 13.1z"/> 			<path id="&lt;Path&gt;" class="s10" d="m308.9 291.9c7.7-1.3 15.2-2.1 22.2-2.4 7.1-8.9 14.2-17.4 22.7-24.7-1.1-0.4-1.6-0.6-2.7-1.1-9.8-0.8-22.1 0.6-31 3.9-4.9 1.8-8.4 6.5-10.6 12.8q-0.2 5.8-0.6 11.5z"/> 			<path id="&lt;Path&gt;" class="s11" d="m376.2 283.7c-3.1 3.1-4.6 8.1-5.4 12.4q0.5 4.7 0.9 9.5c9.3-4.4 19.3-9.4 29.4-15-5.8-3.1-11.6-6.1-17.6-8.9-2.7 0-5.8 0.5-7.3 2z"/> 			<path id="&lt;Path&gt;" class="s12" d="m370.5 358.7c-8.3-5.7-16.6-12-24.5-19.6-5.9 9.3-10 19.5-13.3 30.1 8.9 3.5 17.5 7.6 26.1 11.6 4.2 2.3 8.2 4.8 11.7 7.7-0.5-9.8-1.2-19.5 0-29.8z"/> 			<path id="&lt;Path&gt;" class="s13" d="m370.5 358.7c-1.2 10.3-0.5 20 0 29.8 10 4 20 8.7 30 13.4q0 0 0 0c-0.3-11.6-0.5-23.4-1.2-35.1 0.1-9 1-17.4 2.3-25.6-9.7 7.1-20.2 12.8-31.1 17.5z"/> 			<path id="&lt;Path&gt;" class="s14" d="m353.2 240.5c-3.2-4.1-5.7-8.3-7.9-12.6-11.4 4.7-23.6 10.5-35.7 16.4 14.6 7.2 29.3 14.3 44.2 20.5-1.2-7.3-1.6-14-0.6-24.3z"/> 			<path id="&lt;Path&gt;" class="s15" d="m345.3 227.9c2.2 4.3 4.7 8.5 7.9 12.6 4-2.3 7.8-4.9 11.3-7.8q-0.4-8.2-0.9-16.4c-5.6 3.5-12.4 8.1-18.3 11.6z"/> 			<path id="&lt;Path&gt;" class="s16" d="m363.6 216.3q0.5 8.2 0.9 16.4 2.2 0.3 4.3 0.5 1.5-4.9 3-9.8-0.1-4.6-0.2-9.2c-2.6 0.5-5.3 1.2-8 2.1z"/> 			<path id="&lt;Path&gt;" class="s17" d="m371.6 214.2q0.1 4.6 0.2 9.2c6.2-3.5 16.3-8.3 19.2-9.2-4.4-2.2-9.2-3.9-14.1-5.1q-2.3 2.9-5.3 5.1z"/> 			<path id="&lt;Path&gt;" class="s18" d="m376.9 209.1c4.9 1.2 9.7 2.9 14.1 5.1 4.6-1.1 9.1-1.6 13.8-1.6 4.1-2.9 9.1-4.6 14.1-6.3q-9.2-3.6-18.4-8c-7.8 3.9-15.7 7.6-23.6 10.8z"/> 			<path id="&lt;Path&gt;" class="s19" d="m418.9 206.3c-5 1.7-10 3.4-14.1 6.3 3.3 1.3 6 2.5 9.7 4.1q7.9-1 15.9-1.9c-4.2-2.7-8.1-5.5-11.5-8.5z"/> 			<path id="&lt;Path&gt;" class="s20" d="m414.5 216.7c-3.7-1.6-6.4-2.8-9.7-4.1-4.7 0-9.2 0.5-13.8 1.6-2.9 0.9-13 5.7-19.2 9.2q-1.5 4.9-3 9.8c1.3 4.2 2.8 8 4.4 11.7 6.9-0.3 13.8-1 20.3-3 5.9-1.8 12.5-4.5 19.4-7.9 1.3-5.8 1.9-11.6 1.6-17.3z"/> 			<path id="&lt;Path&gt;" class="s21" d="m384.5 258.7c-4.8-4.5-8.5-9.1-11.3-13.8-1.6-3.7-3.1-7.5-4.4-11.7q-2.1-0.2-4.3-0.5c-3.5 2.9-7.3 5.5-11.3 7.8-1 10.3-0.6 17 0.6 24.3 3.6 3.2 7.8 6.5 13.3 9.7 4.8-5.5 10.5-10.8 17.4-15.8z"/> 			<path id="&lt;Path&gt;" class="s22" d="m373.2 244.9c2.8 4.7 6.5 9.3 11.3 13.8 8.6 3.3 16.8 5.3 24.7 6.5 1.6-1.4 3.2-2.6 4.8-3.5-6.3-7.3-13.1-13.9-20.5-19.8-6.5 2-13.4 2.7-20.3 3z"/> 			<path id="&lt;Path&gt;" class="s23" d="m393.5 241.9c7.4 5.9 14.2 12.5 20.5 19.8q2.6 0 5.3 0.8c0.7-1.7 1.1-3.6 1-5.6-1.3-8.3-4-15.8-7.4-22.9-6.9 3.4-13.5 6.1-19.4 7.9z"/> 			<path id="&lt;Path&gt;" class="s24" d="m412.9 234c3.4 7.1 6.1 14.6 7.4 22.9q2.2-1.5 4.4-3 6-7 12-14.1c0-1 0.2-2 0.6-3 5.4-6.3 8.5-9.3 14.4-13.2-3.7-2-13.7-6.4-21.3-8.8q-8 0.9-15.9 1.9c0.3 5.7-0.3 11.5-1.6 17.3z"/> 			<path id="&lt;Path&gt;" class="s25" d="m451.7 223.6c-5.9 3.9-9 6.9-14.4 13.2-0.4 1-0.6 2-0.6 3 5.4-4.4 10.9-8.7 16.6-12.5q-0.9-1.8-1.6-3.7z"/> 			<path id="&lt;Path&gt;" class="s26" d="m453.3 227.3c-5.7 3.8-11.2 8.1-16.6 12.5 9.1 6.2 18.7 11.8 29 16.8 3.3-1 6.5-1.8 9.5-2.1-1.4-5.1-3.7-9.8-6.5-14.2 1.1-3.2 1.2-6.2 0.7-9.1-5.4-1.4-10.7-2.8-16.1-3.9z"/> 			<path id="&lt;Path&gt;" class="s27" d="m469.4 231.2c0.5 2.9 0.4 5.9-0.7 9.1 2.8 4.4 5.1 9.1 6.5 14.2 5.1-3.8 10.6-7.1 16.3-10.2-8.5-4-16.1-8.4-22.1-13.1z"/> 			<path id="&lt;Path&gt;" class="s28" d="m465.7 256.6c-10.3-5-19.9-10.6-29-16.8q-6 7.1-12 14.1c9.7 3.7 19.3 6.1 29 7.5 3.4-0.9 7.5-2.1 9.7-3q1.3-0.8 2.3-1.8z"/> 			<path id="&lt;Path&gt;" class="s29" d="m453.7 261.4c-9.7-1.4-19.3-3.8-29-7.5q-2.2 1.5-4.4 3c0.1 2-0.3 3.9-1 5.6q6.8 6.7 16.2 11.7c6.2-3.8 12.5-8 18.2-12.8z"/> 			<path id="&lt;Path&gt;" class="s30" d="m435.5 274.2q-9.4-5-16.2-11.7-2.7-0.8-5.3-0.8c-1.6 0.9-3.2 2.1-4.8 3.5 4.9 3.8 9.6 7.8 13.1 13.1 4.4-1.7 8.8-3 13.2-4.1z"/> 			<path id="&lt;Path&gt;" class="s31" d="m422.3 278.3c-3.5-5.3-8.2-9.3-13.1-13.1-7.9-1.2-16.1-3.2-24.7-6.5-6.9 5-12.6 10.3-17.4 15.8 11.7 4.6 22.7 10 33.4 15.8 7.5-3.6 14.8-7.5 21.8-12z"/> 			<path id="&lt;Path&gt;" class="s32" d="m358.3 237.3l5.7-4.8-0.1-11.5 1.1 11.3 1.4 0.7-1.8 0.2z"/> 			<path id="&lt;Path&gt;" class="s33" d="m437.8 237.1c2.9-3.6 9.9-9.4 14.7-11.7q-0.4-0.9-0.8-1.8c-5.9 3.9-9 6.9-14.4 13.2q-0.4 1.2-0.5 2.4c0.3-0.7 0.6-1.4 1-2.1z"/> 			<path id="&lt;Path&gt;" class="s34" d="m464.8 256.2c-9.3-4.6-18.1-9.7-26.4-15.2 3.5 3 6.8 5.7 10.6 8.5q1.6 0.6 3.3 1.1 3.9 1.9 7.5 4.3c1.8 0.3 3.5 0.7 5 1.3z"/> 			<path id="&lt;Path&gt;" class="s35" d="m412.4 396.8c-4.2-8.2-7-17.4-9.3-27-1.2-1.3-2.5-2.3-3.8-3 0.7 11.7 0.9 23.5 1.2 35.1 4-1.9 7.9-3.7 11.9-5.1z"/> 			<path id="&lt;Path&gt;" class="s36" d="m403.1 369.8c2.3 9.6 5.1 18.8 9.3 27 6.2-4.5 15.7-10.8 19.6-12.5 0.6-5.5 0.8-12.3 1.3-18.4-8.2-10.1-15.2-20.8-21-31.9-3.4 2.9-7.1 5.2-10.7 7.2-1.3 8.2-2.2 16.6-2.3 25.6 1.3 0.7 2.6 1.7 3.8 3z"/> 			<path id="&lt;Path&gt;" class="s37" d="m401.6 341.2c3.6-2 7.3-4.3 10.7-7.2 3.7-15.4 8.1-30.4 13.9-44.9-1.6-3.5-2.9-7.1-3.9-10.8-7 4.5-14.3 8.4-21.8 12 0 17.1 0.3 34.6 1.1 50.9z"/> 			<path id="&lt;Path&gt;" class="s38" d="m422.3 278.3c1 3.7 2.3 7.3 3.9 10.8 2.3-1.5 5.3-4 6.2-5.2 1.3-3.2 2.4-6.4 3.1-9.7-4.4 1.1-8.8 2.4-13.2 4.1z"/> 			<path id="&lt;Path&gt;" class="s39" d="m426.2 289.1c-5.8 14.5-10.2 29.5-13.9 44.9 5.8 11.1 12.8 21.8 21 31.9q1.9 0.9 3.7 1.8c4-3.6 21.7-23.9 31.8-37.1q-0.5-5.1-0.9-10.2c-9.2-10.1-16.8-20.9-23.1-32.1-0.9 0.3-11.9-3.7-12.4-4.4-0.9 1.2-3.9 3.7-6.2 5.2z"/> 			<path id="&lt;Path&gt;" class="s40" d="m432.4 283.9c0.5 0.7 11.5 4.7 12.4 4.4 3.3-4 6.8-7.8 10.9-11.3q-1.7-7.6-2-15.6c-5.7 4.8-12 9-18.2 12.8-0.7 3.3-1.8 6.5-3.1 9.7z"/> 			<path id="&lt;Path&gt;" class="s41" d="m453.7 261.4q0.3 8 2 15.6c6.7-3.8 11.1-6.1 18.4-8.9-0.1-4.3 0.2-8.8 1.1-13.6-3 0.3-6.2 1.1-9.5 2.1q-1 1-2.3 1.8c-2.2 0.9-6.3 2.1-9.7 3z"/> 			<path id="&lt;Path&gt;" class="s42" d="m475.2 254.5c-0.9 4.8-1.2 9.3-1.1 13.6 6.1-2.1 12.2-3.6 18.4-3.9-0.9-6.6-1-13.2-1-19.9-5.7 3.1-11.2 6.4-16.3 10.2z"/> 			<path id="&lt;Path&gt;" class="s43" d="m492.5 264.2c-6.2 0.3-12.3 1.8-18.4 3.9 5.4 11.5 8.6 23.7 10 36.6q3-1.6 6.2-2.2c-0.3-8.3 0.6-25.6 2.2-38.3z"/> 			<path id="&lt;Path&gt;" class="s44" d="m484.1 304.7c-1.4-12.9-4.6-25.1-10-36.6-7.3 2.8-11.7 5.1-18.4 8.9-4.1 3.5-7.6 7.3-10.9 11.3 6.3 11.2 13.9 22 23.1 32.1 4.9-4.1 12.8-11.1 16.2-15.7z"/> 			<path id="&lt;Path&gt;" class="s45" d="m490.3 302.5q-3.2 0.6-6.2 2.2c-3.4 4.6-11.3 11.6-16.2 15.7q0.8-0.1 1.6-0.1c7.2-5.1 14.5-10 22.2-12.8q-0.5-2.7-1.4-5z"/> 			<path id="&lt;Path&gt;" class="s46" d="m491.7 307.5c-7.7 2.8-15 7.7-22.2 12.8q-0.8 0-1.6 0.1 0.4 5.1 0.9 10.2c7.2-3.1 14.4-6.3 21.1-10.2q1.4-6.5 1.8-12.9z"/> 			<path id="&lt;Path&gt;" class="s47" d="m489.9 320.4c-6.7 3.9-13.9 7.1-21.1 10.2q2.2 0.6 4.4 1.3c4.6-2.2 9.2-3.9 13.7-4.7 1.8-1.6 3.7-2.6 5.7-3.3-0.8-1.3-1.7-2.4-2.7-3.5z"/> 			<path id="&lt;Path&gt;" class="s48" d="m473.2 331.9q-2.2-0.7-4.4-1.3c-10.1 13.2-27.8 33.5-31.8 37.1q1.6-0.7 3.3-1.4c9-10.2 18.7-19.7 29.4-28.4 0.7-2.3 2.1-4.2 3.5-6z"/> 			<path id="&lt;Path&gt;" class="s49" d="m473.2 331.9c-1.4 1.8-2.8 3.7-3.5 6-10.7 8.7-20.4 18.2-29.4 28.4q-1.7 0.7-3.3 1.4c0.2 5.3 0.5 11 1.6 16 9.5-6.2 19.3-12.2 29.4-17.8 5-2.4 10-4.6 15.1-6.6 0.7-11.5 1.8-20.7 3.8-32.1-4.5 0.8-9.1 2.5-13.7 4.7z"/> 			<path id="&lt;Path&gt;" class="s50" d="m492.5 264.2c-0.9-6.6-1-13.2-1-19.9-5.7 3.1-11.2 6.4-16.3 10.2-3 0.3-6.2 1.1-9.5 2.1q-1 1-2.3 1.8c-2.2 0.9-6.3 2.1-9.7 3-5.7 4.8-12 9-18.2 12.8-4.4 1.1-8.8 2.4-13.2 4.1-7 4.5-14.3 8.4-21.8 12 0 17.1 0.3 34.6 1.1 50.9-1.3 8.2-2.2 16.6-2.3 25.6 0.7 11.7 0.9 23.5 1.2 35.1 4-1.9 7.9-3.7 11.9-5.1 6.2-4.5 15.7-10.8 19.6-12.5q3.3-0.5 6.6-0.6c9.5-6.2 19.3-12.2 29.4-17.8 7.8-3.7 15.6-6.9 23.5-9.9-0.2-10.7 0-21.4 1.1-32.1-0.8-1.3-1.7-2.4-2.7-3.5q1.4-6.5 1.8-12.9-0.5-2.7-1.4-5c-0.3-8.3 0.6-25.6 2.2-38.3z"/> 			<path id="&lt;Path&gt;" class="s51" d="m486.9 327.2c-2 11.4-3.1 20.6-3.8 32.1q4.2-1.7 8.4-3.3c-0.2-10.7 0-21.4 1.1-32.1-2 0.7-3.9 1.7-5.7 3.3z"/> 			<path id="&lt;Path&gt;" class="s52" d="m438.6 383.7c-1.1-5-1.4-10.7-1.6-16q-1.8-0.9-3.7-1.8c-0.5 6.1-0.7 12.9-1.3 18.4q3.3-0.5 6.6-0.6z"/> 			<path id="&lt;Path&gt;" class="s53" d="m401.2 331.4c0 3.2 0.2 6.4-0.4 9.4-2.6 2.6-5.5 4.5-8.3 6.5 2.8-1.7 5.9-3.9 8.2-4.5q-1 10.6-2.1 21.5-0.3 0.7-0.8 1.3c0.5 1.4 0.8 2.8 1.1 4.2q0.5 10.7 1.3 21.4c-0.4-16.6-1.7-32.7 1.6-49.1 0.5-0.9 1.5-1.8 2.3-2.4-0.8 0.4-1.7 0.6-2.3 0.5-0.3-2.8-0.4-5.9-0.6-8.8z"/> 			<path id="&lt;Path&gt;" class="s54" d="m345.3 227.9c-11.4 4.7-23.6 10.5-35.7 16.4 14.6 7.2 29.3 14.3 44.2 20.5 3.6 3.2 7.8 6.5 13.3 9.7 11.7 4.6 22.7 10 33.4 15.8 7.5-3.6 14.8-7.5 21.8-12 4.4-1.7 8.8-3 13.2-4.1 6.2-3.8 12.5-8 18.2-12.8 3.4-0.9 7.5-2.1 9.7-3q1.3-0.8 2.3-1.8c3.3-1 6.5-1.8 9.5-2.1 5.1-3.8 10.6-7.1 16.3-10.2-8.5-4-16.1-8.4-22.1-13.1-5.4-1.4-10.7-2.8-16.1-3.9q-0.9-1.8-1.6-3.7c-3.7-2-13.7-6.4-21.3-8.8-4.2-2.7-8.1-5.5-11.5-8.5q-9.2-3.6-18.4-8c-7.8 3.9-15.7 7.6-23.6 10.8q-2.3 2.9-5.3 5.1c-2.6 0.5-5.3 1.2-8 2.1-5.6 3.5-12.4 8.1-18.3 11.6z"/> 			<path id="&lt;Path&gt;" class="s55" d="m379.7 253.7l3.4 4.5-9.7 9.6 11.4-8.5 9.4 2.6-9.2-3.7z"/> 			<path id="&lt;Path&gt;" class="s56" d="m378.8 244.5l14.8-3.3 15.3-5.3-13.2 6.4 11.7 12.2-13.9-11.6z"/> 			<path id="&lt;Path&gt;" class="s57" d="m380.2 210l10.8 3.6 9.1-0.8-9.4 2.1-14 5.8 13.1-6.5z"/> 			<path id="&lt;Path&gt;" class="s58" d="m309.6 244.3c-0.1 16.1-0.3 31.9-1.2 47.3q1.2 19.1 2.4 38.3-0.6 13-1.2 26.1c8.1 4.1 16.2 8.3 23.1 13.2 8.9 3.5 17.5 7.6 26.1 11.6 4.2 2.3 8.2 4.8 11.7 7.7 10 4 20 8.7 30 13.4-0.3-11.6-0.5-23.4-1.2-35.1 0.1-9 1-17.4 2.3-25.6-0.8-16.3-1.1-33.8-1.1-50.9-10.7-5.8-21.7-11.2-33.4-15.8-5.5-3.2-9.7-6.5-13.3-9.7-14.9-6.2-29.6-13.3-44.2-20.5z"/> 			<path id="&lt;Path&gt;" class="s59" d="m309.6 244.3c-0.1 16.1-0.3 31.9-1.2 47.3q1.2 19.1 2.4 38.3-0.6 13-1.2 26.1c8.1 4.1 16.2 8.3 23.1 13.2 8.9 3.5 17.5 7.6 26.1 11.6 4.2 2.3 8.2 4.8 11.7 7.7 10 4 20 8.7 30 13.4-0.3-11.6-0.5-23.4-1.2-35.1 0.1-9 1-17.4 2.3-25.6-0.8-16.3-1.1-33.8-1.1-50.9-10.7-5.8-21.7-11.2-33.4-15.8-5.5-3.2-9.7-6.5-13.3-9.7-14.9-6.2-29.6-13.3-44.2-20.5z"/> 			<path id="&lt;Path&gt;" class="s60" d="m309.6 244.3c-0.1 16.1-0.3 31.9-1.2 47.3q1.2 19.1 2.4 38.3-0.6 13-1.2 26.1c8.1 4.1 16.2 8.3 23.1 13.2 8.9 3.5 17.5 7.6 26.1 11.6 4.2 2.3 8.2 4.8 11.7 7.7 10 4 20 8.7 30 13.4-0.3-11.6-0.5-23.4-1.2-35.1 0.1-9 1-17.4 2.3-25.6-0.8-16.3-1.1-33.8-1.1-50.9-10.7-5.8-21.7-11.2-33.4-15.8-5.5-3.2-9.7-6.5-13.3-9.7-14.9-6.2-29.6-13.3-44.2-20.5z"/> 			<path id="&lt;Path&gt;" class="s61" d="m492.5 264.2c-0.9-6.6-1-13.2-1-19.9-5.7 3.1-11.2 6.4-16.3 10.2-3 0.3-6.2 1.1-9.5 2.1q-1 1-2.3 1.8c-2.2 0.9-6.3 2.1-9.7 3-5.7 4.8-12 9-18.2 12.8-4.4 1.1-8.8 2.4-13.2 4.1-7 4.5-14.3 8.4-21.8 12 0 17.1 0.3 34.6 1.1 50.9-1.3 8.2-2.2 16.6-2.3 25.6 0.7 11.7 0.9 23.5 1.2 35.1 4-1.9 7.9-3.7 11.9-5.1 6.2-4.5 15.7-10.8 19.6-12.5q3.3-0.5 6.6-0.6c9.5-6.2 19.3-12.2 29.4-17.8 7.8-3.7 15.6-6.9 23.5-9.9-0.2-10.7 0-21.4 1.1-32.1-0.8-1.3-1.7-2.4-2.7-3.5q1.4-6.5 1.8-12.9-0.5-2.7-1.4-5c-0.3-8.3 0.6-25.6 2.2-38.3z"/> 			<path id="&lt;Path&gt;" class="s62" d="m492.5 264.2c-0.9-6.6-1-13.2-1-19.9-5.7 3.1-11.2 6.4-16.3 10.2-3 0.3-6.2 1.1-9.5 2.1q-1 1-2.3 1.8c-2.2 0.9-6.3 2.1-9.7 3-5.7 4.8-12 9-18.2 12.8-4.4 1.1-8.8 2.4-13.2 4.1-7 4.5-14.3 8.4-21.8 12 0 17.1 0.3 34.6 1.1 50.9-1.3 8.2-2.2 16.6-2.3 25.6 0.7 11.7 0.9 23.5 1.2 35.1 4-1.9 7.9-3.7 11.9-5.1 6.2-4.5 15.7-10.8 19.6-12.5q3.3-0.5 6.6-0.6c9.5-6.2 19.3-12.2 29.4-17.8 7.8-3.7 15.6-6.9 23.5-9.9-0.2-10.7 0-21.4 1.1-32.1-0.8-1.3-1.7-2.4-2.7-3.5q1.4-6.5 1.8-12.9-0.5-2.7-1.4-5c-0.3-8.3 0.6-25.6 2.2-38.3z"/> 			<path id="&lt;Path&gt;" class="s63" d="m407.9 337.3q2-1.9 3.9-3.7c3.2-12.8 7-24.5 11.1-35.8-3.6 11.9-6.9 23.9-10 36 4.3 8 9 15.8 13.8 23.5-5.2-7.3-10.2-14.8-14.6-22.4q-2.1 1.2-4.2 2.4z"/> 			<path id="&lt;Path&gt;" class="s64" d="m453.7 302.6c2.7 3.5 13.6 16.6 14 19.8q0.5 3.5 1 7.1c-0.1-4-0.4-8.6 0.2-8.7 0.5 0 0.5 1.8 0.9 5.8 0-1.6-0.1-4.7 0.3-5.6 0.1-0.5 0.4-1.1 0.8-1.4 4.4-3.2 9-6 13.6-8.9-4.6 2.5-9.2 5.2-13.8 8.3-2.2 1.5-2.7 1.2-4.4-0.9q-6.3-7.7-12.6-15.5z"/> 			<path id="&lt;Path&gt;" class="s65" d="m457.1 348.9c4.2-3.8 8.3-7.4 12.5-10.4 0.2 1.9 0.4 7.8 0.5 9.6 0.1-2.9 0.2-8.7 0.2-10.4 0.3-2.5 2.4-4.8 3.4-5.6 2.3-1.9 8.5-3.8 12.5-4.2-1.2 8.9-2.1 17.9-2.9 26.8 1.1-9.1 2.1-18.3 4-27.4q1.4-1.1 2.8-2.3-1.7 1-3.3 1.9c-4.6 1-9.4 2.9-13.9 4.9-1.6 1.9-2.5 3.7-3.4 5.8-4.3 3.5-8.4 7.3-12.4 11.3z"/> 			<path id="&lt;Path&gt;" class="s66" d="m492.5 264.2c-0.9-6.6-1-13.2-1-19.9-5.7 3.1-11.2 6.4-16.3 10.2-3 0.3-6.2 1.1-9.5 2.1q-1 1-2.3 1.8c-2.2 0.9-6.3 2.1-9.7 3-5.7 4.8-12 9-18.2 12.8-4.4 1.1-8.8 2.4-13.2 4.1-7 4.5-14.3 8.4-21.8 12 0 17.1 0.3 34.6 1.1 50.9-1.3 8.2-2.2 16.6-2.3 25.6 0.7 11.7 0.9 23.5 1.2 35.1 4-1.9 7.9-3.7 11.9-5.1 6.2-4.5 15.7-10.8 19.6-12.5q3.3-0.5 6.6-0.6c9.5-6.2 19.3-12.2 29.4-17.8 7.8-3.7 15.6-6.9 23.5-9.9-0.2-10.7 0-21.4 1.1-32.1-0.8-1.3-1.7-2.4-2.7-3.5q1.4-6.5 1.8-12.9-0.5-2.7-1.4-5c-0.3-8.3 0.6-25.6 2.2-38.3z"/> 			<path id="&lt;Path&gt;" class="s67" d="m361.1 352c2.8 2.3 5.6 4.6 8.8 6.8-0.8 8.9-0.5 17.6 0.4 26.3-0.4-8.7-0.4-17.4 0.8-26.1 5.9-2.8 11.6-5.9 17.1-9.1-5.6 3-11.4 6-17.6 8.2-3.5-1.9-6.4-4.1-9.5-6.1z"/> 			<path id="&lt;Path&gt;" class="s68" d="m345.6 334.5c0 1.5 0.1 3.1-0.1 4.5-3.5 5.9-6.6 12.4-9.1 19.7 2.7-6.5 5.9-12.8 9.7-18.8q6.2 5 12.4 10c-4.2-3.6-8.2-7.3-12-10.9-0.5-1.4-0.6-3-0.9-4.5z"/> 			<path id="&lt;Path&gt;" class="s69" d="m340.8 310.3c1.3 2.2 2.7 4.5 3.4 6.8-7.9 2.2-15.5 5-22.6 8.2 7.5-2.9 15.2-5.4 23-7.2-0.1 4.3 0.2 8.3 0.7 12.2-0.1-4.1-0.1-8.2 0.4-12.4 5.9-3.7 12-6.2 18-9.1-6.1 2.7-12.1 5.8-18.2 7.6-1.6-1.2-3.2-3.7-4.7-6.1z"/> 			<path id="&lt;Path&gt;" class="s70" d="m316.4 290.4c4.6-0.9 9.2-1.3 13.8-1.7 4.7-5.4 9.1-10.6 16.1-16.8-6.5 6.9-12.3 13.9-14.8 17.4 2.1 6.6 4.8 12.4 7.6 18.1-3.1-4.9-6.2-10.9-9.1-17.7-4.2-0.3-9.5 0.3-13.6 0.7z"/> 			<path id="&lt;Path&gt;" class="s71" d="m434.8 275.6c-0.4 2.2-0.9 4.2-1.7 6.4 1-2.2 1.9-4.7 2.7-7.1 3-3.1 10-7.2 14.3-10.6q-7 4.8-14.2 9.3-7 2.2-14.1 4.1c-3.7 3.2-15.5 9.7-21.3 11.6q-9.5-4.3-18.9-8.6 8.8 4.8 17.5 9.5-11.8 6.5-23.6 13 12.2-5.9 24.4-11.8 0.6 18.4 1.1 36.7 0.2-18.6 0.3-37.2c5.8-3.6 11.8-6.9 18.1-9.5 1-1.3 2.2-2.3 3.6-3 3.5-1.2 8.3-3.1 11.8-2.8z"/> 			<path id="&lt;Path&gt;" class="s72" d="m357.6 268c2.8 2.3 5.7 4.5 8.4 7.1 1.6 2.1 3.8 17 4.7 25.1-0.4-7.6-1.2-17.3-2.5-24.1 1.2-1 6.1 1.6 9.6 2.9-3.7-1.7-7.5-3.2-11-5.1-3.2-1.8-6.4-3.9-9.2-5.9z"/> 			<path id="&lt;Path&gt;" class="s73" d="m310.7 248.3c0.1-2.5 0.5-2.3 2.5-1.4q17.6 7.8 35.3 15.7c-13.1-6.3-25.6-12.2-33.6-16.6-3.7-2-2.7-1.4 0.9-3.3 8.4-4.4 16.9-8.6 25.7-12.5 1.4-0.6 2.9-0.7 3.9-1 0.6-0.1 2.1 3.5 5.4 7.9-3.6-7-4.2-8.7-3.8-9 3.1-3.2 13.5-9.8 16.6-11.8-5.6 3.5-12.4 8.1-18.3 11.6-11.4 4.7-23.6 10.5-35.7 16.4-0.1 16.1-0.3 31.9-1.2 47.3q0.6 9.6 1.2 19.1c0-6.4-0.2-13.6 0.9-19.1-0.9-13.2-0.3-29.2 0.2-43.3z"/> 			<path id="&lt;Path&gt;" class="s74" d="m444.4 288.3c-1.7 0-5.7 0-6.4 0.5-1.3 0.9-4.3 3.8-4.6 4.4-4.3 10.5-6 22.2-5.6 33.5 0 1.8 1.4 8.4 3.3 12.2 2.6 5.2 5.7 10.2 9.7 14.3 0.7 0.7 4.8 1.4 5.8 0.9 2.4-1.2 4.4-2.5 6.4-4.1 5.5-6.5 11.4-13.6 15.8-19.4q-0.5-5.1-0.9-10.2c-9.2-10.1-16.8-20.9-23.1-32.1q-0.1 0-0.4 0z"/> 			<path id="&lt;Path&gt;" class="s75" d="m309.6 244.3c-0.1 16.1-0.3 31.9-1.2 47.3q1.2 19.1 2.4 38.3-0.6 13-1.2 26.1c8.1 4.1 16.2 8.3 23.1 13.2 8.9 3.5 17.5 7.6 26.1 11.6 4.2 2.3 8.2 4.8 11.7 7.7 10 4 20 8.7 30 13.4-0.3-11.6-0.5-23.4-1.2-35.1 0.1-9 1-17.4 2.3-25.6-0.8-16.3-1.1-33.8-1.1-50.9-10.7-5.8-21.7-11.2-33.4-15.8-5.5-3.2-9.7-6.5-13.3-9.7-14.9-6.2-29.6-13.3-44.2-20.5z"/> 			<path id="&lt;Path&gt;" class="s76" d="m470.2 276.4c-0.3 0.8-0.9 1-1.3 0.8-0.4-0.2-0.4-1-0.1-1.7 0.4-0.6 1-0.8 1.4-0.5 0.3 0.2 0.3 0.7 0 1.4z"/> 			<path id="&lt;Path&gt;" class="s76" d="m471 281.9c0.7-0.9 1.1-2 0.8-2.5-0.3-0.5-1.2-0.2-1.9 0.7-0.7 0.8-1.1 2-0.7 2.4 0.4 0.5 1.1 0.2 1.8-0.6z"/> 			<path id="&lt;Path&gt;" class="s76" d="m453 329.1c0.7-0.9 1.1-2 0.8-2.5-0.4-0.5-1.2-0.2-1.9 0.7-0.7 0.8-1.1 2-0.7 2.4 0.4 0.5 1.1 0.2 1.8-0.6z"/> 			<path id="&lt;Path&gt;" class="s77" d="m348.6 309.7c-0.3-1.7-1-2-1.8-2-0.8 0.1-1.1 0.2-1.1 2 0 1.8 1.4 3 2 2.8 0.6-0.1 1.2-1.1 0.9-2.8z"/> 			<path id="&lt;Path&gt;" class="s76" d="m475.7 288.1c0.2-1.4 0.9-2.6 1.7-2.7 0.9 0 1.4 1.1 1.2 2.5-0.2 1.3-1.1 2.5-1.9 2.5-0.8-0.1-1.2-1-1-2.3z"/> 			<path id="&lt;Path&gt;" class="s76" d="m318.6 255c-0.3 0.3-0.3 1.1 0 1.7 0.3 0.6 1 0.9 1.5 0.8 0.4 0 0.4-0.8-0.2-1.8-0.6-0.9-1-1.1-1.3-0.7z"/> 			<path id="&lt;Path&gt;" class="s76" d="m383.5 367.9c-0.6-1.2-1.8-2.2-2.2-1.5-0.5 0.7-0.6 1.8 0.1 3 0.7 1.2 1.8 1.7 2.4 1.3 0.5-0.4 0.4-1.7-0.3-2.8z"/> 			<path id="&lt;Path&gt;" class="s77" d="m328.7 297.2c-0.6-0.9-1.3-1.4-1.9-1-0.5 0.3-0.4 1.4 0.1 2.3 0.5 0.9 1.4 1.4 1.9 0.9 0.4-0.4 0.4-1.3-0.1-2.2z"/> 			<path id="&lt;Path&gt;" class="s76" d="m317.6 266.6c-0.3 0.4-0.3 1.2 0 1.8 0.3 0.5 1 0.9 1.5 0.8 0.4 0 0.4-0.8-0.2-1.8-0.6-1-1-1.1-1.3-0.8z"/> 			<path id="&lt;Path&gt;" class="s76" d="m318.3 338.8c-0.1-1-0.7-2.1-1.5-2.4-0.8-0.4-1.4 0.2-1.3 1.2 0 1 0.7 2.3 1.5 2.5 0.9 0.3 1.3-0.2 1.3-1.3z"/> 			<path id="&lt;Path&gt;" class="s76" d="m381.5 310.9c-0.5-0.6-0.5-1.1-0.3-1.5 0.2-0.5 0.3-0.6 1-0.1 0.6 0.4 0.7 1.4 0.5 1.7-0.2 0.3-0.7 0.4-1.2-0.1z"/> 			<path id="&lt;Path&gt;" class="s76" d="m352.1 310.9c-0.4-0.5-0.7-1.2-0.5-1.6 0.2-0.5 0.7-0.4 1.2 0 0.4 0.5 0.7 1.3 0.4 1.7-0.2 0.4-0.6 0.4-1.1-0.1z"/> 			<path id="&lt;Path&gt;" class="s76" d="m340.9 326.9c-0.6-0.7-1-1.7-0.8-2.3 0.3-0.6 1.1-0.6 1.7 0 0.7 0.7 1 1.8 0.7 2.4-0.4 0.6-1 0.5-1.6-0.1z"/> 			<path id="&lt;Path&gt;" class="s76" d="m382.9 330.1c-1.3-0.9-1.8-2.5-1.6-4 0.2-1.4 1.5-1.6 2.7-0.7 1.1 0.9 1.8 3 1.4 4.2-0.4 1.1-1.3 1.3-2.5 0.5z"/> 			<path id="&lt;Path&gt;" class="s76" d="m376.2 285.4c0.3-0.1 0.5-0.5 0.4-1-0.1-0.6-0.4-1-0.7-1-0.3 0.1-0.5 0.6-0.4 1.2 0.2 0.5 0.5 0.9 0.7 0.8z"/> 			<path id="&lt;Path&gt;" class="s76" d="m357.2 359.1c0.2-1.2 1.1-1.8 2.2-1 1.1 0.8 1.7 2.5 1.5 3.7-0.2 1.2-1.2 1.7-2.3 0.8-1.1-1-1.6-2.3-1.4-3.5z"/> 			<path id="&lt;Path&gt;" class="s76" d="m405.2 392.2c0.5-0.8 1.2-1.5 1.5-1 0.4 0.5 0.4 1.2-0.1 2.1-0.4 0.8-1.2 1.1-1.6 0.9-0.3-0.3-0.3-1.2 0.2-2z"/> 			<path id="&lt;Path&gt;" class="s76" d="m410 377.1c0.3-0.9 0.9-1.6 1.4-1.6 0.6 0 0.9 0.7 0.6 1.6-0.2 0.8-0.9 1.6-1.5 1.5-0.6-0.1-0.7-0.6-0.5-1.5z"/> 			<path id="&lt;Path&gt;" class="s76" d="m411.1 368.1c0.2-0.6 0.6-1.1 1.1-1.1 0.4 0 0.6 0.5 0.4 1.2-0.2 0.6-0.7 1.1-1.1 1-0.4-0.1-0.6-0.5-0.4-1.1z"/> 			<path id="&lt;Path&gt;" class="s76" d="m442.1 372.1c0.6-0.6 0.7-1.4 0.5-2-0.3-0.6-1-0.4-1.5 0.1-0.6 0.6-0.7 1.7-0.4 2.1 0.3 0.4 0.8 0.4 1.4-0.2z"/> 			<path id="&lt;Path&gt;" class="s76" d="m461.8 351.9c0.6-0.3 1-0.8 1-1.4 0.1-0.6-0.1-1-0.8-0.8-0.6 0.3-0.9 0.8-0.9 1.5 0 0.6 0.1 0.9 0.7 0.7z"/> 			<path id="&lt;Path&gt;" class="s77" d="m479.8 349.1c-0.8 0.7-1.6 0.8-1.8 0-0.2-0.7 0.2-1.9 0.9-2.6 0.7-0.7 1.6-0.7 1.8 0.2 0.1 0.8-0.2 1.7-0.9 2.4z"/> 			<path id="&lt;Path&gt;" class="s76" d="m411.9 290.4c0.3 0.4 1 0.4 1.5-0.3 0.5-0.7 0.7-1.7 0.3-2.1-0.4-0.5-1.1-0.4-1.6 0.4-0.5 0.8-0.6 1.5-0.2 2z"/> 			<path id="&lt;Path&gt;" class="s77" d="m415.7 386.1c0-1.1 0.6-2.3 1.5-2.7 0.9-0.4 1.6 0.3 1.5 1.4-0.1 1.1-0.8 2.4-1.7 2.7-0.9 0.2-1.4-0.3-1.3-1.4z"/> 			<path id="&lt;Path&gt;" class="s76" d="m421.4 288.7c-0.7-0.6-1.4-0.3-2 0.7-0.6 0.9-0.8 1.9-0.1 2.5 0.7 0.7 1.5 0.2 2-0.8 0.6-1 0.7-1.8 0.1-2.4z"/> 			<path id="&lt;Path&gt;" class="s76" d="m444.4 297.4c0-0.7 0.4-1.5 0.8-1.5 0.5-0.1 0.8 0.1 0.8 0.8 0 0.6-0.5 1.3-0.9 1.5-0.4 0.2-0.7-0.2-0.7-0.8z"/> 			<path id="&lt;Path&gt;" class="s76" d="m412.1 302.6c0.1-1 0.6-2.2 1.3-2.2 0.7-0.2 1.2 0.2 1.2 1.2-0.1 0.9-0.8 2.1-1.4 2.3-0.7 0.3-1.1-0.3-1.1-1.3z"/> 			<path id="&lt;Path&gt;" class="s77" d="m425.4 370.7c0.4 0.7 1.1 0.5 1.9-0.4 0.7-0.9 0.8-2 0.4-2.6-0.3-0.7-1.4-0.2-1.9 0.6-0.6 0.9-0.8 1.7-0.4 2.4z"/> 			<path id="&lt;Path&gt;" class="s76" d="m438.2 305.2c0.3-0.5 0.7-0.5 0.9-0.3 0.2 0.2 0 0.8-0.3 1.2-0.2 0.3-0.7 0.4-0.8 0.1-0.2-0.2 0-0.6 0.2-1z"/> 			<path id="&lt;Path&gt;" class="s76" d="m433.5 356.9c0.7-0.7 0.8-1.7 0.5-2.4-0.3-0.7-1.2-0.5-1.8 0.2-0.6 0.7-0.8 2-0.4 2.4 0.4 0.6 1 0.5 1.7-0.2z"/> 			<path id="&lt;Path&gt;" class="s76" d="m432.5 344.3c0.7-0.8 1.2-2 0.7-2.4-0.4-0.5-1.2-0.4-1.8 0.4-0.7 0.8-1 2-0.7 2.5 0.4 0.5 1.2 0.3 1.8-0.5z"/> 			<path id="&lt;Path&gt;" class="s76" d="m440.5 355.4c0.1-1.4 0.9-2.8 1.9-3.3 1.1-0.4 1.9 0.4 1.8 1.7-0.1 1.3-1 2.9-2.1 3.2-1 0.3-1.6-0.3-1.6-1.6z"/> 			<path id="&lt;Path&gt;" class="s78" d="m373.8 273.1c-0.5 0.6 0.2 0.8 1.1 1 0.9 0.2 1.3 0.2 2.1-0.3 0.8-0.6-0.1-1.2-0.9-1.3-0.8-0.1-1.9 0-2.3 0.6z"/> 			<path id="&lt;Path&gt;" class="s79" d="m401.8 217.5c-0.5 0.7-0.2 1.4 1.2 1.7 1.3 0.3 2.9-0.1 3.4-0.8 0.6-0.6 0-1.5-1.4-1.7-1.5-0.2-2.7 0.1-3.2 0.8z"/> 			<path id="&lt;Path&gt;" class="s79" d="m329.6 248q-0.7 0.6 0.3 1c0.6 0.3 1.6 0.2 2-0.1 0.5-0.4 0.2-0.8-0.3-1.2-0.6-0.3-1.5 0-2 0.3z"/> 			<path id="&lt;Path&gt;" class="s79" d="m436.8 244.7c-0.2 0.4 0.2 1 1.3 1.3 1 0.3 2.2 0.2 2.4-0.3 0.3-0.4-0.4-0.9-1.4-1.3-0.9-0.4-2-0.2-2.3 0.3z"/> 			<path id="&lt;Path&gt;" class="s80" d="m379.6 231.7c-0.6 0.6-0.1 1.1 1 1.4 1.1 0.2 2.3-0.1 2.8-0.6 0.5-0.5-0.2-1.1-1.2-1.3-1.1-0.2-2 0-2.6 0.5z"/> 			<path id="&lt;Path&gt;" class="s79" d="m428.2 259.6c0.7-0.3 0.9-1.1 0.3-1.5-0.5-0.4-2.1-0.6-3.1-0.5-1 0.1-1.2 0.8 0 1.5 1.2 0.7 2.1 0.8 2.8 0.5z"/> 			<path id="&lt;Path&gt;" class="s80" d="m399.8 252.6c-0.5 0.4-0.2 0.8 0.5 1 0.6 0.2 1.6-0.1 1.9-0.4 0.3-0.4-0.1-0.9-0.7-1-0.7-0.1-1.2 0.1-1.7 0.4z"/> 			<path id="&lt;Path&gt;" class="s80" d="m433.8 259.7c0.8 0 1.7-0.5 1.7-0.8 0-0.4-0.9-0.9-1.7-1-0.8-0.1-1.6 0.3-1.5 1 0.2 0.7 0.7 0.9 1.5 0.8z"/> 			<path id="&lt;Path&gt;" class="s80" d="m454.6 231.7c0.1 0.7 1 1.4 2.4 1.4 1.5 0 2.7-0.7 2.6-1.4 0-0.7-1.1-1.4-2.6-1.3-1.5 0.1-2.4 0.6-2.4 1.3z"/> 			<path id="&lt;Path&gt;" class="s80" d="m359 253.6c1-0.1 1.9-0.5 2-1 0-0.4-1-0.9-2-1.1-0.9-0.1-1.9 0.3-1.7 1.1 0.1 0.8 0.8 1.1 1.7 1z"/> 			<path id="&lt;Path&gt;" class="s78" d="m354.9 231.8c-0.5 0.4-0.2 0.8 0.5 1 0.7 0.2 1.7-0.1 2-0.4 0.3-0.4-0.2-1-0.8-1-0.7-0.1-1.3 0.1-1.7 0.4z"/> 			<path id="&lt;Path&gt;" class="s79" d="m347.8 244.8c0.5 0.8-0.1 1.3-1.3 1.5-1.3 0.2-2.4 0-2.9-0.8-0.5-0.9 0.3-1.4 1.6-1.5 1.3-0.1 2.2 0 2.6 0.8z"/> 			<path id="&lt;Path&gt;" class="s80" d="m385.5 264.5c0.5 0.6-0.1 1.1-1.3 1.3-1.1 0.2-2.2-0.2-2.6-0.7-0.4-0.5 0.5-1.2 1.5-1.3 1.1 0 2 0.1 2.4 0.7z"/> 			<path id="&lt;Path&gt;" class="s80" d="m360 239.7c0.3 0.6 0 1.3-1.2 1.3-1.1 0.1-2.2-0.2-2.6-0.8-0.3-0.6 0.4-1.2 1.4-1.4 1-0.1 2.1 0.3 2.4 0.9z"/> 			<path id="&lt;Path&gt;" class="s78" d="m345.4 233.7c0.3 0.5-0.1 1.1-1.2 1.2-1 0.2-2.2-0.2-2.5-0.7-0.3-0.5 0.3-1.1 1.4-1.2 1.1-0.1 2 0.1 2.3 0.7z"/> 			<path id="&lt;Path&gt;" class="s79" d="m373.8 238c-1.1 0.6-1.2 1.5 0 2.1 1.3 0.5 3.2 0.4 4.3-0.2 1.1-0.6 1.1-1.6-0.3-2.1-1.4-0.5-2.9-0.4-4 0.2z"/> 			<path id="&lt;Path&gt;" class="s79" d="m404.4 260.5c-0.6-0.7-0.4-1.6 1-1.8 1.4-0.1 2.9 0.1 3.5 0.8 0.7 0.7 0 1.6-1.2 1.8-1.2 0.3-2.6 0-3.3-0.8z"/> 		</g> 	</g> </svg>