<svg version="1.2" xmlns="http://www.w3.org/2000/svg" viewBox="309 198.1 182 203.6"> 	<title>blocks</title> 	<defs> 		<linearGradient id="g1" x1="456" y1="358.7" x2="460.4" y2="358.7" gradientUnits="userSpaceOnUse"> 			<stop offset="0" stop-color="#4d2200"/> 			<stop offset="1" stop-color="#4f270e"/> 		</linearGradient> 		<linearGradient id="g2" x1="432.2" y1="358.2" x2="438.6" y2="358.2" gradientUnits="userSpaceOnUse"> 			<stop offset="0" stop-color="#4d2200"/> 			<stop offset="1" stop-color="#4f270e"/> 		</linearGradient> 		<linearGradient id="g3" x1="413" y1="382.3" x2="417" y2="382.3" gradientUnits="userSpaceOnUse"> 			<stop offset="0" stop-color="#522a05"/> 			<stop offset="1" stop-color="#542f13"/> 		</linearGradient> 		<linearGradient id="g4" x1="403.4" y1="377" x2="408.6" y2="377" gradientUnits="userSpaceOnUse"> 			<stop offset="0" stop-color="#522a05"/> 			<stop offset="1" stop-color="#542f13"/> 		</linearGradient> 		<linearGradient id="g5" x1="379.7" y1="379" x2="384.4" y2="379" gradientUnits="userSpaceOnUse"> 			<stop offset="0" stop-color="#6b4727"/> 			<stop offset="1" stop-color="#45250e"/> 		</linearGradient> 		<linearGradient id="g6" x1="352.7" y1="358.8" x2="357.1" y2="358.8" gradientUnits="userSpaceOnUse"> 			<stop offset="0" stop-color="#663f22"/> 			<stop offset="1" stop-color="#401d09"/> 		</linearGradient> 		<linearGradient id="g7" x1="333.2" y1="355.7" x2="336.9" y2="355.7" gradientUnits="userSpaceOnUse"> 			<stop offset="0" stop-color="#663f22"/> 			<stop offset="1" stop-color="#401d09"/> 		</linearGradient> 		<linearGradient id="g8" x1="463" y1="233.5" x2="484.7" y2="233.5" gradientUnits="userSpaceOnUse"> 			<stop offset="0" stop-color="#5c2f12"/> 			<stop offset="1" stop-color="#451f02"/> 		</linearGradient> 		<linearGradient id="g9" x1="419.6" y1="221.9" x2="475.1" y2="221.9" gradientUnits="userSpaceOnUse"> 			<stop offset="0" stop-color="#5c2f12"/> 			<stop offset="1" stop-color="#451f02"/> 		</linearGradient> 		<linearGradient id="g10" x1="434.6" y1="230.4" x2="467.5" y2="230.4" gradientUnits="userSpaceOnUse"> 			<stop offset="0" stop-color="#5c2f12"/> 			<stop offset="1" stop-color="#451f02"/> 		</linearGradient> 		<linearGradient id="g11" x1="358.8" y1="251.7" x2="428.5" y2="251.7" gradientUnits="userSpaceOnUse"> 			<stop offset="0" stop-color="#451f02"/> 			<stop offset="1" stop-color="#512610"/> 		</linearGradient> 		<linearGradient id="g12" x1="314.3" y1="244.6" x2="336" y2="244.6" gradientUnits="userSpaceOnUse"> 			<stop offset="0" stop-color="#59311f"/> 			<stop offset="1" stop-color="#381b09"/> 		</linearGradient> 		<linearGradient id="g13" x1="321.1" y1="248.4" x2="342.6" y2="248.4" gradientUnits="userSpaceOnUse"> 			<stop offset="0" stop-color="#59311f"/> 			<stop offset="1" stop-color="#381b09"/> 		</linearGradient> 		<linearGradient id="g14" x1="339.4" y1="227.7" x2="368.3" y2="227.7" gradientUnits="userSpaceOnUse"> 			<stop offset="0" stop-color="#59311f"/> 			<stop offset="1" stop-color="#381b09"/> 		</linearGradient> 		<linearGradient id="g15" x1="346.4" y1="238.7" x2="359.5" y2="238.7" gradientUnits="userSpaceOnUse"> 			<stop offset="0" stop-color="#59311f"/> 			<stop offset="1" stop-color="#381b09"/> 		</linearGradient> 		<linearGradient id="g16" x1="366.1" y1="273.7" x2="388" y2="273.7" gradientUnits="userSpaceOnUse"> 			<stop offset="0" stop-color="#59311f"/> 			<stop offset="1" stop-color="#381b09"/> 		</linearGradient> 		<linearGradient id="g17" x1="385.4" y1="280.5" x2="407.2" y2="280.5" gradientUnits="userSpaceOnUse"> 			<stop offset="0" stop-color="#59311f"/> 			<stop offset="1" stop-color="#381b09"/> 		</linearGradient> 		<linearGradient id="g18" x1="324.4" y1="221.5" x2="376.3" y2="221.5" gradientUnits="userSpaceOnUse"> 			<stop offset="0" stop-color="#59311f"/> 			<stop offset="1" stop-color="#381b09"/> 		</linearGradient> 		<linearGradient id="g19" x1="326.3" y1="248" x2="335.5" y2="248" gradientUnits="userSpaceOnUse"> 			<stop offset="0" stop-color="#693925"/> 			<stop offset="1" stop-color="#4d260d"/> 		</linearGradient> 		<linearGradient id="g20" x1="388.8" y1="285.5" x2="400" y2="285.5" gradientUnits="userSpaceOnUse"> 			<stop offset="0" stop-color="#8a593c"/> 			<stop offset="1" stop-color="#976744"/> 		</linearGradient> 		<linearGradient id="g21" x1="369.6" y1="275" x2="411.5" y2="275" gradientUnits="userSpaceOnUse"> 			<stop offset="0" stop-color="#7f5237"/> 			<stop offset="1" stop-color="#976744"/> 		</linearGradient> 		<linearGradient id="g22" x1="350.6" y1="265.5" x2="481.4" y2="265.5" gradientUnits="userSpaceOnUse"> 			<stop offset="0" stop-color="#7f5237"/> 			<stop offset="1" stop-color="#976744"/> 		</linearGradient> 		<linearGradient id="g23" x1="342.9" y1="261.7" x2="374" y2="261.7" gradientUnits="userSpaceOnUse"> 			<stop offset="0" stop-color="#8a593c"/> 			<stop offset="1" stop-color="#976744"/> 		</linearGradient> 		<linearGradient id="g24" x1="332.1" y1="256" x2="341.5" y2="256" gradientUnits="userSpaceOnUse"> 			<stop offset="0" stop-color="#8a593c"/> 			<stop offset="1" stop-color="#976744"/> 		</linearGradient> 		<linearGradient id="g25" x1="317.3" y1="251.9" x2="370.3" y2="251.9" gradientUnits="userSpaceOnUse"> 			<stop offset="0" stop-color="#75492f"/> 			<stop offset="1" stop-color="#976744"/> 		</linearGradient> 		<linearGradient id="g26" x1="317.4" y1="248.8" x2="336.6" y2="248.8" gradientUnits="userSpaceOnUse"> 			<stop offset="0" stop-color="#8a593c"/> 			<stop offset="1" stop-color="#976744"/> 		</linearGradient> 		<linearGradient id="g27" x1="309" y1="244.1" x2="316.6" y2="244.1" gradientUnits="userSpaceOnUse"> 			<stop offset="0" stop-color="#8a593c"/> 			<stop offset="1" stop-color="#976744"/> 		</linearGradient> 		<linearGradient id="g28" x1="481.6" y1="244.1" x2="516.5" y2="244.1" gradientUnits="userSpaceOnUse"> 			<stop offset="0" stop-color="#643419"/> 			<stop offset="1" stop-color="#6b3f1f"/> 		</linearGradient> 		<linearGradient id="g29" x1="472" y1="249.2" x2="492.4" y2="249.2" gradientUnits="userSpaceOnUse"> 			<stop offset="0" stop-color="#562d15"/> 			<stop offset="1" stop-color="#6b3f1f"/> 		</linearGradient> 		<linearGradient id="g30" x1="463.9" y1="254.5" x2="484.2" y2="254.5" gradientUnits="userSpaceOnUse"> 			<stop offset="0" stop-color="#643419"/> 			<stop offset="1" stop-color="#6b3f1f"/> 		</linearGradient> 		<linearGradient id="g31" x1="426.7" y1="257.6" x2="493.9" y2="257.6" gradientUnits="userSpaceOnUse"> 			<stop offset="0" stop-color="#643419"/> 			<stop offset="1" stop-color="#6b3f1f"/> 		</linearGradient> 		<linearGradient id="g32" x1="375" y1="280.3" x2="474.1" y2="280.3" gradientUnits="userSpaceOnUse"> 			<stop offset="0" stop-color="#643419"/> 			<stop offset="1" stop-color="#603c22"/> 		</linearGradient> 		<radialGradient id="g33" cx="331.9" cy="256.5" r="45" gradientUnits="userSpaceOnUse"> 			<stop offset="0" stop-color="#ca965f"/> 			<stop offset="1" stop-color="#1d1513"/> 		</radialGradient> 		<radialGradient id="g34" cx="418.7" cy="277.1" r="62.6" gradientUnits="userSpaceOnUse"> 			<stop offset="0" stop-color="#c58e5a"/> 			<stop offset="1" stop-color="#180d0e"/> 		</radialGradient> 		<radialGradient id="g35" cx="460.3" cy="257.9" r="66.9" gradientUnits="userSpaceOnUse"> 			<stop offset="0" stop-color="#c58e5a"/> 			<stop offset="1" stop-color="#180d0e"/> 		</radialGradient> 		<linearGradient id="g36" x1="434.2" y1="271.4" x2="436.3" y2="271.4" gradientUnits="userSpaceOnUse"> 			<stop offset="0" stop-color="#592c0d"/> 			<stop offset="1" stop-color="#664025"/> 		</linearGradient> 		<linearGradient id="g37" x1="443.3" y1="266.4" x2="446" y2="266.4" gradientUnits="userSpaceOnUse"> 			<stop offset="0" stop-color="#5e3412"/> 			<stop offset="1" stop-color="#6b482a"/> 		</linearGradient> 		<linearGradient id="g38" x1="444.3" y1="266.4" x2="446" y2="266.4" gradientUnits="userSpaceOnUse"> 			<stop offset="0" stop-color="#1d1513"/> 			<stop offset="1" stop-color="#b36749"/> 		</linearGradient> 		<linearGradient id="g39" x1="435.1" y1="271.4" x2="436.3" y2="271.4" gradientUnits="userSpaceOnUse"> 			<stop offset="0" stop-color="#180d0e"/> 			<stop offset="1" stop-color="#ae5f44"/> 		</linearGradient> 		<linearGradient id="g40" x1="355.2" y1="279" x2="357.2" y2="279" gradientUnits="userSpaceOnUse"> 			<stop offset="0" stop-color="#664025"/> 			<stop offset="1" stop-color="#592c0d"/> 		</linearGradient> 		<linearGradient id="g41" x1="356.3" y1="279" x2="357.2" y2="279" gradientUnits="userSpaceOnUse"> 			<stop offset="0" stop-color="#180d0e"/> 			<stop offset="1" stop-color="#c58e5a"/> 		</linearGradient> 		<linearGradient id="g42" x1="373.4" y1="312" x2="375.4" y2="312" gradientUnits="userSpaceOnUse"> 			<stop offset="0" stop-color="#664025"/> 			<stop offset="1" stop-color="#592c0d"/> 		</linearGradient> 		<linearGradient id="g43" x1="374.5" y1="312" x2="375.4" y2="312" gradientUnits="userSpaceOnUse"> 			<stop offset="0" stop-color="#180d0e"/> 			<stop offset="1" stop-color="#c58e5a"/> 		</linearGradient> 		<linearGradient id="g44" x1="381.8" y1="283.9" x2="383.8" y2="283.9" gradientUnits="userSpaceOnUse"> 			<stop offset="0" stop-color="#664025"/> 			<stop offset="1" stop-color="#592c0d"/> 		</linearGradient> 		<linearGradient id="g45" x1="382.8" y1="283.9" x2="383.8" y2="283.9" gradientUnits="userSpaceOnUse"> 			<stop offset="0" stop-color="#180d0e"/> 			<stop offset="1" stop-color="#c58e5a"/> 		</linearGradient> 		<linearGradient id="g46" x1="334.5" y1="259.5" x2="336.9" y2="259.5" gradientUnits="userSpaceOnUse"> 			<stop offset="0" stop-color="#6b482a"/> 			<stop offset="1" stop-color="#5e3412"/> 		</linearGradient> 		<linearGradient id="g47" x1="335.5" y1="259.5" x2="336.9" y2="259.5" gradientUnits="userSpaceOnUse"> 			<stop offset="0" stop-color="#1d1513"/> 			<stop offset="1" stop-color="#ca965f"/> 		</linearGradient> 		<linearGradient id="g48" x1="443.6" y1="322.8" x2="445.3" y2="322.8" gradientUnits="userSpaceOnUse"> 			<stop offset="0" stop-color="#592c0d"/> 			<stop offset="1" stop-color="#664025"/> 		</linearGradient> 		<linearGradient id="g49" x1="444.4" y1="322.8" x2="445.3" y2="322.8" gradientUnits="userSpaceOnUse"> 			<stop offset="0" stop-color="#180d0e"/> 			<stop offset="1" stop-color="#ae5f44"/> 		</linearGradient> 		<linearGradient id="g50" x1="414.2" y1="319.7" x2="416.4" y2="319.7" gradientUnits="userSpaceOnUse"> 			<stop offset="0" stop-color="#592c0d"/> 			<stop offset="1" stop-color="#664025"/> 		</linearGradient> 		<linearGradient id="g51" x1="415.4" y1="319.7" x2="416.4" y2="319.7" gradientUnits="userSpaceOnUse"> 			<stop offset="0" stop-color="#180d0e"/> 			<stop offset="1" stop-color="#ae5f44"/> 		</linearGradient> 		<radialGradient id="g52" cx="437.6" cy="405.2" r="232.5" gradientUnits="userSpaceOnUse"> 			<stop offset="0" stop-color="#f7eced"/> 			<stop offset="1" stop-color="#664122"/> 		</radialGradient> 		<radialGradient id="g53" cx="144.4" cy="310" r="350.1" gradientUnits="userSpaceOnUse"> 			<stop offset="0" stop-color="#f7eced"/> 			<stop offset="1" stop-color="#664122"/> 		</radialGradient> 		<radialGradient id="g54" cx="301.4" cy="506.6" r="191.7" gradientUnits="userSpaceOnUse"> 			<stop offset="0" stop-color="#f2aa6e"/> 			<stop offset="1" stop-color="#000000"/> 		</radialGradient> 		<radialGradient id="g55" cx="545.7" cy="481.2" r="203.9" gradientUnits="userSpaceOnUse"> 			<stop offset="0" stop-color="#f2aa6e"/> 			<stop offset="1" stop-color="#000000"/> 		</radialGradient> 		<radialGradient id="g56" cx="348.9" cy="266.8" r="60.4" gradientUnits="userSpaceOnUse"> 			<stop offset="0" stop-color="#7f5b3a"/> 			<stop offset="1" stop-color="#180d0e"/> 		</radialGradient> 		<radialGradient id="g57" cx="368.6" cy="279.1" r="45.4" gradientUnits="userSpaceOnUse"> 			<stop offset="0" stop-color="#7f5b3a"/> 			<stop offset="1" stop-color="#180d0e"/> 		</radialGradient> 		<radialGradient id="g58" cx="347.8" cy="313.7" r="54.3" gradientUnits="userSpaceOnUse"> 			<stop offset="0" stop-color="#7f5b3a"/> 			<stop offset="1" stop-color="#180d0e"/> 		</radialGradient> 		<radialGradient id="g59" cx="396.6" cy="288.7" r="96.8" gradientUnits="userSpaceOnUse"> 			<stop offset="0" stop-color="#7f5b3a"/> 			<stop offset="1" stop-color="#180d0e"/> 		</radialGradient> 		<radialGradient id="g60" cx="361.9" cy="259.3" r="20.4" gradientUnits="userSpaceOnUse"> 			<stop offset="0" stop-color="#7f5b3a"/> 			<stop offset="1" stop-color="#180d0e"/> 		</radialGradient> 		<radialGradient id="g61" cx="401.9" cy="244.8" r="30.6" gradientUnits="userSpaceOnUse"> 			<stop offset="0" stop-color="#7f5b3a"/> 			<stop offset="1" stop-color="#180d0e"/> 		</radialGradient> 		<linearGradient id="g62" x1="362.4" y1="208.8" x2="423.5" y2="208.8" gradientUnits="userSpaceOnUse"> 			<stop offset="0" stop-color="#482205"/> 			<stop offset="1" stop-color="#5f3215"/> 		</linearGradient> 		<linearGradient id="g63" x1="349.7" y1="237.9" x2="359.2" y2="237.9" gradientUnits="userSpaceOnUse"> 			<stop offset="0" stop-color="#5c3422"/> 			<stop offset="1" stop-color="#3b1e0c"/> 		</linearGradient> 		<linearGradient id="g64" x1="350.6" y1="242.3" x2="360.2" y2="242.3" gradientUnits="userSpaceOnUse"> 			<stop offset="0" stop-color="#714e31"/> 			<stop offset="1" stop-color="#553115"/> 		</linearGradient> 		<linearGradient id="g65" x1="309" y1="198.1" x2="491" y2="198.1" gradientUnits="userSpaceOnUse"> 			<stop offset="0" stop-color="#c49e75"/> 			<stop offset="1" stop-color="#6b4225"/> 		</linearGradient> 		<linearGradient id="g66" x1="365.7" y1="233.9" x2="448" y2="233.9" gradientUnits="userSpaceOnUse"> 			<stop offset="0" stop-color="#fffafa"/> 			<stop offset="1" stop-color="#cdb197"/> 		</linearGradient> 		<linearGradient id="g67" x1="381" y1="240.6" x2="436.1" y2="240.6" gradientUnits="userSpaceOnUse"> 			<stop offset="0" stop-color="#fffafa"/> 			<stop offset="1" stop-color="#cdb197"/> 		</linearGradient> 		<linearGradient id="g68" x1="390.7" y1="245.3" x2="426" y2="245.3" gradientUnits="userSpaceOnUse"> 			<stop offset="0" stop-color="#fffafa"/> 			<stop offset="1" stop-color="#cdb197"/> 		</linearGradient> 		<linearGradient id="g69" x1="403.5" y1="251.6" x2="413.1" y2="251.6" gradientUnits="userSpaceOnUse"> 			<stop offset="0" stop-color="#fffafa"/> 			<stop offset="1" stop-color="#cdb197"/> 		</linearGradient> 		<radialGradient id="g70" cx="402.4" cy="229.2" r="19.5" gradientUnits="userSpaceOnUse"> 			<stop offset="0" stop-color="#cd9962"/> 			<stop offset="1" stop-color="#201816"/> 		</radialGradient> 		<radialGradient id="g71" cx="429.3" cy="229.6" r="29.2" gradientUnits="userSpaceOnUse"> 			<stop offset="0" stop-color="#cd9962"/> 			<stop offset="1" stop-color="#201816"/> 		</radialGradient> 		<linearGradient id="g72" x1="361.8" y1="217.9" x2="463.4" y2="217.9" gradientUnits="userSpaceOnUse"> 			<stop offset="0" stop-color="#915e34"/> 			<stop offset="1" stop-color="#5e3617"/> 		</linearGradient> 		<radialGradient id="g73" cx="323.9" cy="248.5" r="18.4" gradientUnits="userSpaceOnUse"> 			<stop offset="0" stop-color="#cd9962"/> 			<stop offset="1" stop-color="#201816"/> 		</radialGradient> 		<radialGradient id="g74" cx="332.8" cy="247.6" r="23.2" gradientUnits="userSpaceOnUse"> 			<stop offset="0" stop-color="#cd9962"/> 			<stop offset="1" stop-color="#201816"/> 		</radialGradient> 		<radialGradient id="g75" cx="342.7" cy="247.9" r="19.6" gradientUnits="userSpaceOnUse"> 			<stop offset="0" stop-color="#cd9962"/> 			<stop offset="1" stop-color="#201816"/> 		</radialGradient> 		<radialGradient id="g76" cx="297.9" cy="254" r="195.8" gradientUnits="userSpaceOnUse"> 			<stop offset=".571" stop-color="#000000"/> 			<stop offset="1" stop-color="#f5ad71"/> 		</radialGradient> 		<linearGradient id="g77" x1="290.5" y1="216.1" x2="509.8" y2="216.1" gradientUnits="userSpaceOnUse"> 			<stop offset="0" stop-color="#e3d3c7"/> 			<stop offset="1" stop-color="#cdb197"/> 		</linearGradient> 	</defs> 	<style> 		.s0 { fill: url(#g1) }  		.s1 { fill: url(#g2) }  		.s2 { fill: url(#g3) }  		.s3 { fill: url(#g4) }  		.s4 { fill: url(#g5) }  		.s5 { fill: url(#g6) }  		.s6 { fill: url(#g7) }  		.s7 { fill: url(#g8) }  		.s8 { fill: url(#g9) }  		.s9 { fill: url(#g10) }  		.s10 { fill: url(#g11) }  		.s11 { fill: url(#g12) }  		.s12 { fill: url(#g13) }  		.s13 { fill: #93885b }  		.s14 { fill: url(#g14) }  		.s15 { fill: url(#g15) }  		.s16 { fill: url(#g16) }  		.s17 { fill: url(#g17) }  		.s18 { fill: url(#g18) }  		.s19 { fill: url(#g19) }  		.s20 { fill: url(#g20) }  		.s21 { fill: url(#g21) }  		.s22 { fill: url(#g22) }  		.s23 { fill: url(#g23) }  		.s24 { fill: url(#g24) }  		.s25 { fill: url(#g25) }  		.s26 { fill: url(#g26) }  		.s27 { fill: url(#g27) }  		.s28 { fill: url(#g28) }  		.s29 { fill: url(#g29) }  		.s30 { fill: url(#g30) }  		.s31 { fill: url(#g31) }  		.s32 { fill: url(#g32) }  		.s33 { opacity: .9;mix-blend-mode: screen;fill: url(#g33) }  		.s34 { opacity: .4;mix-blend-mode: screen;fill: url(#g34) }  		.s35 { opacity: .4;mix-blend-mode: screen;fill: url(#g35) }  		.s36 { fill: url(#g36) }  		.s37 { fill: url(#g37) }  		.s38 { opacity: .5;mix-blend-mode: screen;fill: url(#g38) }  		.s39 { opacity: .5;mix-blend-mode: screen;fill: url(#g39) }  		.s40 { opacity: .6;fill: url(#g40) }  		.s41 { opacity: .7;mix-blend-mode: screen;fill: url(#g41) }  		.s42 { opacity: .6;fill: url(#g42) }  		.s43 { opacity: .7;mix-blend-mode: screen;fill: url(#g43) }  		.s44 { opacity: .6;fill: url(#g44) }  		.s45 { opacity: .7;mix-blend-mode: screen;fill: url(#g45) }  		.s46 { opacity: .6;fill: url(#g46) }  		.s47 { opacity: .7;mix-blend-mode: screen;fill: url(#g47) }  		.s48 { fill: url(#g48) }  		.s49 { opacity: .3;mix-blend-mode: screen;fill: url(#g49) }  		.s50 { fill: url(#g50) }  		.s51 { opacity: .3;mix-blend-mode: screen;fill: url(#g51) }  		.s52 { mix-blend-mode: multiply;fill: url(#g52) }  		.s53 { mix-blend-mode: multiply;fill: url(#g53) }  		.s54 { mix-blend-mode: screen;fill: url(#g54) }  		.s55 { opacity: .4;mix-blend-mode: screen;fill: url(#g55) }  		.s56 { opacity: .9;mix-blend-mode: screen;fill: url(#g56) }  		.s57 { opacity: .9;mix-blend-mode: screen;fill: url(#g57) }  		.s58 { opacity: .5;mix-blend-mode: screen;fill: url(#g58) }  		.s59 { mix-blend-mode: screen;fill: url(#g59) }  		.s60 { mix-blend-mode: screen;fill: url(#g60) }  		.s61 { mix-blend-mode: screen;fill: url(#g61) }  		.s62 { fill: url(#g62) }  		.s63 { fill: url(#g63) }  		.s64 { fill: url(#g64) }  		.s65 { fill: url(#g65) }  		.s66 { opacity: .5;mix-blend-mode: multiply;fill: url(#g66) }  		.s67 { opacity: .5;mix-blend-mode: multiply;fill: url(#g67) }  		.s68 { opacity: .5;mix-blend-mode: multiply;fill: url(#g68) }  		.s69 { opacity: .5;mix-blend-mode: multiply;fill: url(#g69) }  		.s70 { opacity: .5;mix-blend-mode: screen;fill: url(#g70) }  		.s71 { opacity: .5;mix-blend-mode: screen;fill: url(#g71) }  		.s72 { fill: url(#g72) }  		.s73 { opacity: .5;mix-blend-mode: screen;fill: url(#g73) }  		.s74 { opacity: .5;mix-blend-mode: screen;fill: url(#g74) }  		.s75 { opacity: .5;mix-blend-mode: screen;fill: url(#g75) }  		.s76 { opacity: .5;mix-blend-mode: screen;fill: url(#g76) }  		.s77 { opacity: .3;mix-blend-mode: multiply;fill: url(#g77) }  	</style> 	<g id="_Artboards_"> 	</g> 	<g id="Layer 1"> 		<g id="&lt;Group&gt;"> 		</g> 		<g id="wood"> 			<g id="&lt;Group&gt;"> 				<path id="&lt;Path&gt;" class="s0" d="m459.4 371.7l1-11.9-2.1-1.1-2.3 11.3z"/> 				<path id="&lt;Path&gt;" class="s1" d="m432.2 380.6l4.8 2.4 1.6-2.8-2.3-22-2.5 1.2z"/> 				<path id="&lt;Path&gt;" class="s2" d="m416 393.6l1-1.4-0.5-9.9-2.4 1-1.1 8.8z"/> 				<path id="&lt;Path&gt;" class="s3" d="m407.5 397.9l1.1-2.1-1.2-18.8-2.7 0.8-1.3 18.1z"/> 				<path id="&lt;Path&gt;" class="s4" d="m381.7 392.5l2.2-1.2 0.5-11.5-2.5-0.8-1.5 1.7-0.7 9.7z"/> 				<path id="&lt;Path&gt;" class="s5" d="m353.8 378.4l3.1-1.6 0.2-17.1-2.4-0.9-1.9 1.7-0.1 15.3z"/> 				<path id="&lt;Path&gt;" class="s6" d="m334.1 368.4l2.6-1.3 0.2-10.7-3.2-0.7-0.5 2.2 0.1 7.8z"/> 				<path id="&lt;Path&gt;" class="s7" d="m483.2 359.7c1.9-36.6 2.2-76.7 0-114.7-6.4-4.7-13.2-8.3-20.2-11.5 0 37.5 0 78.4 0 115.9 4.2 2.1 16.1 8.2 20.2 10.3z"/> 				<path id="&lt;Path&gt;" class="s8" d="m473.6 364.6c1.8-36.6 2.1-76.7 0-114.7-11.9-15.6-30.8-24.1-54-28 0 37.5 0 77.9 0 115.4 4.2 2.1 49.8 25.1 54 27.3z"/> 				<path id="&lt;Path&gt;" class="s9" d="m466 368.4c1.8-36.6 2.2-76.7 0-114.6-1.9-11.8-14.5-18.6-31.4-23.4 0 37.5 0 84.6 0 122.1l23.5 11.9c0.1-1.8 0.3-3.3 0.5-4.1q0.1 2.3 0.3 4.5z"/> 				<path id="&lt;Path&gt;" class="s10" d="m427 388.1c1.8-36.6 2.1-76.6 0-114.6l-68.2-21.8c0 37.5 0 64.4 0 102 4.2 2.1 64 32.3 68.2 34.4z"/> 				<path id="&lt;Path&gt;" class="s11" d="m315.8 359.2c-1.8-36.6-2.2-76.7 0-114.6l20.2 2.4c0 37.5 0 64.4 0 101.9-4.1 2.1-16 8.2-20.2 10.3z"/> 				<path id="&lt;Path&gt;" class="s12" d="m322.3 362.5c-1.7-35.6-1-111.7-1-111.7l2.5-2.4 18.8 1.9c0 37.5 0 64.4 0 101.9-4.2 2.2-16.1 8.2-20.3 10.3z"/> 				<path id="&lt;Path&gt;" class="s13" d="m330.7 366.7c-1.8-36.5-2.3-74.3-0.1-112.2l2 1.5 2.6 106.3q-0.3-2.3-0.6-4.6-0.1 3.6-0.3 7.2z"/> 				<path id="&lt;Path&gt;" class="s14" d="m341 371.9c-1.8-36.5-2.4-73.3-0.2-111.3-2.1-19.5 11-28.7 27.5-32.9l-18.6 19.8c-3.1 3.5-4.6 9.2-6 14.2l1.5 108.1z"/> 				<path id="&lt;Path&gt;" class="s15" d="m349.4 376.2c-1.8-36.6-2.3-73.7-0.2-111.6-3.6-4.9-4-11.7 0.5-17.1 1.6-3.2 4.2-6.1 7.3-8.8l2.5 30.4c0 37.5 0 64.4 0 101.9l-3.7 1.9c-0.3-4.1-0.7-8.2-1-12.3-0.3 4.3-0.4 8.9-0.7 13.2z"/> 				<path id="&lt;Path&gt;" class="s16" d="m367.8 385.4c-1.9-36.5-2.4-73.7-0.3-111.7l2.7 1.3 17.8 9c0 37.5 0 53.7 0 91.2-4.1 2.1-16.1 8.1-20.2 10.2z"/> 				<path id="&lt;Path&gt;" class="s17" d="m386.9 395.1c-1.8-36.5-2.1-76.6 0-114.6l20.3 2.4c0 37.5 0 64.5 0 102l-0.4 0.2q-0.3-3.4-0.6-6.7-0.2 3.6-0.4 7.2z"/> 				<path id="&lt;Path&gt;" class="s18" d="m324.4 251.9l0.1-4.7c9.9-20.3 32.7-23.8 51.8-25.7-12.8 5.2-24.2 11.3-32 19.6l-1.8 6.5-0.4 1.1c-4.2 6.2-3.5 13.9-1.7 21.9z"/> 				<path id="&lt;Path&gt;" class="s19" d="m326.3 364.5v-116.3l7-0.2 2.2 116.3-0.1 0.1q-0.3-3.4-0.8-6.7-0.1 3.6-0.3 7.2l-3.6 1.8z"/> 				<path id="&lt;Path&gt;" class="s20" d="m390.9 285.5c-2.8 36.9-2.6 74-0.6 111.3l9.7 4.9v-55.8-55.8c-2.6-1.8-5.6-3.3-9.1-4.6z"/> 				<path id="&lt;Path&gt;" class="s21" d="m370.2 275c-0.9 37.5-0.7 74.6-0.2 111.6l11.7 5.9c0.1-4 0.5-8 0.9-12q0.2 6.4 0.8 12.8l3.5 1.8c-1.1-36.7 0-73.3 1.8-110.7q-8.6-5-18.5-9.4z"/> 				<path id="&lt;Path&gt;" class="s22" d="m351.3 265.5c-1 37.2-0.8 74.3-0.3 111.5l2.9 1.4c0.4-5.4 0.4-11.8 0.9-17.8 0.6 6.3 1 12.7 1.4 19l11.6 5.8c0.7-37 0.9-74.2-0.3-111.7-4.9-3.2-10.4-5.9-16.2-8.2z"/> 				<path id="&lt;Path&gt;" class="s23" d="m343.7 261.7c-1.1 37.1-0.9 74.3-0.2 111.5l5.9 3c0.5-37.2 0.7-74.4-0.2-111.8-1.6-1-3.2-2-5.5-2.7z"/> 				<path id="&lt;Path&gt;" class="s24" d="m332.6 256c-0.6 37.2-0.5 74.4-0.1 111.6l1.6 0.8q0.4-5.3 0.5-10.7c0.5 3.8 1 7.7 1.2 11.6l5.2 2.6c0.7-37 0.8-74.2-0.3-111.8-2.4-1.4-5-2.9-8.1-4.1z"/> 				<path id="&lt;Path&gt;" class="s25" d="m324.4 251.9c0.4 37.2 0.3 74.5 0.1 111.7l6.2 3.1c0.5-37.2 0.7-74.5-0.2-111.7q-2.9-1.7-6.1-3.1z"/> 				<path id="&lt;Path&gt;" class="s26" d="m318.3 248.8c-1.2 37.3-1.2 74.5-0.1 111.6l4.1 2.1c-0.8-37.2-1-74.4 0.3-111.5q-2-1.2-4.3-2.2z"/> 				<path id="&lt;Path&gt;" class="s27" d="m315.8 359.2c0.9-36.7 1.1-73.8-0.1-111.7q-3.2-1.8-6.7-3.4c1.5 36.7 1.3 79 0 111.7z"/> 				<path id="&lt;Path&gt;" class="s28" d="m482.5 248.4c-1.4 37.1-1.1 76.1 0.7 111.3l7.8-3.9c-2.3-32.1-2.3-74.1 0-111.7-3 1.3-5.9 2.7-8.5 4.3z"/> 				<path id="&lt;Path&gt;" class="s29" d="m472.7 253.4c-1 37-1.1 75.7 0.9 111.2l7.1-3.7q-1.9-55.4 0.3-111.7c-2.9 1.2-5.7 2.7-8.3 4.2z"/> 				<path id="&lt;Path&gt;" class="s30" d="m466.6 256.5c-2.8 38-4.1 74.1-0.6 111.9l4.5-2.3c0.3-37.1 0.4-74.3 0-111.6-1.4 0.6-2.7 1.2-3.9 2z"/> 				<path id="&lt;Path&gt;" class="s31" d="m426.7 276.6c1.1 35.5 1.3 77 0.3 111.5l7-3.5c0.9-7.8 0.9-15.8 1.2-23.9 0.9 6.5 1.8 14.6 1.8 22.3l8.5-4.2 12.3-6.3c0-4.2 0.3-10.3 0.8-12.2 0.2 3.8 0.4 7.6 0.8 11.4l3.3-1.6c-1.1-37.1-0.3-74.7 1.6-112.5q-19.6 9.1-37.6 19z"/> 				<path id="&lt;Path&gt;" class="s32" d="m400 345.9v55.8l4.8-2.4c0.6-7 1.1-13.9 1.4-20.9 0.7 6.5 1.2 13 1.3 19.5l7.3-3.6 0.6-9.8 0.6 9.1 7.1-3.5c2.3-36.4 0.7-80.5-3.8-109.8-6.8 3.1-13.3 6.3-19.3 9.8v55.8z"/> 				<path id="&lt;Path&gt;" class="s33" d="m333.4 255.8c0.2-2.2 0.8-4.3 1.5-6.4q0.1-0.3 0.1-0.6-0.1 0.3-0.2 0.5-0.8 1.8-1.4 3.7-0.5 1.5-0.8 3-0.1 2.7-0.1 5.4-0.4 25.5-0.4 51 0.4-21.1 0.8-42.2 0.1-4.1 0.2-8.1 0-2.7 0.1-5.3 0.1 0 0.2 0 1.4 0.4 2.6 0.9 1.3 0.5 2.5 1.2-1.2-0.9-2.5-1.7-1.2-0.8-2.6-1.4z"/> 				<path id="&lt;Path&gt;" class="s34" d="m396.7 280.3c8.6 1.6 12.6 1.9 21.1 0.7 3 5.4 5.8 53.9 6.3 83.7 0.1-8.4 0.1-16.8-0.1-25.2-0.5-20.8-2-41-4.4-57.1q-0.1-1-0.3-2.1c-7.5 0.9-15.3 0.8-22.6 0z"/> 				<path id="&lt;Path&gt;" class="s35" d="m463 250.1c0.8 2 0.9 3.8 0.5 7.3q-0.3 0.1-0.5 0.3-6.7 3.4-13.3 6.9 6.6-3 13.3-5.9 0.4-0.2 0.7-0.4-0.4 5.8-0.7 11.6c-1.2 23-0.9 45.7-0.8 68.5 0-16.4 0.2-32.9 0.8-49.4q0.5-15.7 1.3-31.4c0.3-3.1-0.2-5.7-1.3-8q-0.9-1.9-2.4-3.6c1.1 1.7 1.9 2.9 2.4 4.1z"/> 				<path id="&lt;Path&gt;" class="s36" d="m435.1 342.2c0.9-23.6 1.4-47.2 1.2-70.8q-0.5 0.3-0.9 0.5c0 1.8-0.4 7.1-0.8 11.7-0.3 3.1-0.5 5.8-0.4 6.9 0.2 3.2 0.3 6.1 0.4 8.9 0.6 15.1 0.5 25.5 0.5 42.8z"/> 				<path id="&lt;Path&gt;" class="s37" d="m443.3 267.8c-0.2 16.3 0.3 32 1.2 47.5 0.2-16.3 0.6-32.6 1.5-48.9q-1.3 0.7-2.7 1.4z"/> 				<path id="&lt;Path&gt;" class="s38" d="m444.5 268.5c-0.4 15.7-0.3 31.2 0 46.8 0.2-16.3 0.6-32.6 1.5-48.9-0.7 0.8-1.2 1.5-1.5 2.1z"/> 				<path id="&lt;Path&gt;" class="s39" d="m435.7 273.6q0 2.5-0.1 5c-0.1 3.8-0.4 7.6-0.4 11.4 0 2.3 0.2 4.5 0.3 6.8 0.1 4 0.1 8 0.1 12-0.1 11.1-0.3 22.2-0.5 33.4 0.9-23.6 1.4-47.2 1.2-70.8-0.2 0.5-0.6 1.1-0.6 2.2z"/> 				<path id="&lt;Path&gt;" class="s40" d="m356.4 279c-0.4 7.3-1.1 14.1-1.2 19.6 0 3 0.5 27.4 1.1 41.4 0.4-13.8 0.9-27.4 0.9-41.2 0-6.6-0.2-17.1-0.8-19.8z"/> 				<path id="&lt;Path&gt;" class="s41" d="m356.4 279q0 8.1 0 16.2 0 5.9 0 11.8c-0.1 3.6-0.1 7.2-0.1 10.8q0 11.1 0 22.2c0.4-13.8 0.9-27.4 0.9-41.2 0-6.6-0.2-17.1-0.8-19.8z"/> 				<path id="&lt;Path&gt;" class="s42" d="m374.6 363.6c-0.4-6.2-1-11.9-1.2-16.6 0-2.5 0.6-23.1 1.1-35 0.4 11.7 0.9 23.2 0.9 34.9 0 5.5-0.1 14.4-0.8 16.7z"/> 				<path id="&lt;Path&gt;" class="s43" d="m374.6 363.6q0-6.9 0-13.7 0-5 0-10c0-3-0.1-6.1-0.1-9.1q0-9.4 0-18.8c0.4 11.7 0.9 23.2 0.9 34.9 0 5.5-0.1 14.4-0.8 16.7z"/> 				<path id="&lt;Path&gt;" class="s44" d="m382.9 283.9c-0.3 7.3-1 14.1-1.1 19.7-0.1 2.9 0.5 27.4 1 41.3 0.4-13.7 0.9-27.4 1-41.2 0-6.6-0.2-17-0.9-19.8z"/> 				<path id="&lt;Path&gt;" class="s45" d="m382.9 283.9q0 8.2 0 16.3 0 5.9 0 11.8c0 3.6-0.1 7.2-0.1 10.8q0 11.1 0 22.1c0.4-13.7 0.9-27.4 1-41.2 0-6.6-0.2-17-0.9-19.8z"/> 				<path id="&lt;Path&gt;" class="s46" d="m335.7 259.5c-1.1 7.4-1 14.2-1.2 19.8 0 2.9-0.3 37.1 1 41.2 0.6-13.8 1.3-27.4 1.4-41.2 0-6.6-0.3-17.1-1.2-19.8z"/> 				<path id="&lt;Path&gt;" class="s47" d="m335.7 259.5q0 8.1 0 16.3 0 5.8 0 11.7c-0.1 3.6-0.1 7.2-0.1 10.8q-0.1 11.1-0.1 22.2c0.6-13.8 1.3-27.4 1.4-41.2 0-6.6-0.3-17.1-1.2-19.8z"/> 				<path id="&lt;Path&gt;" class="s48" d="m444.5 322.8c-0.8 6.5-0.7 12.5-0.9 17.4 0 2.6-0.2 32.5 0.8 36.1 0.4-12.1 0.9-24 0.9-36.1 0-5.8-0.2-15-0.8-17.4z"/> 				<path id="&lt;Path&gt;" class="s49" d="m444.5 322.8q0 7.2-0.1 14.3 0.1 5.2 0 10.3c0 3.2 0 6.3 0 9.5q0 9.7 0 19.4c0.4-12.1 0.9-24 0.9-36.1 0-5.8-0.2-15-0.8-17.4z"/> 				<path id="&lt;Path&gt;" class="s50" d="m415.5 319.7c-1.1 3.4-1.2 10.2-1.3 15.1 0.6 0.8 0.8 3.8 0.1 6.5 0.3 9.7 0.8 27.1 1.1 31.9 0.4-12.1 1-24 1-36.1 0-5.8-0.2-15-0.9-17.4z"/> 				<path id="&lt;Path&gt;" class="s51" d="m415.5 319.7q0 7.2 0 14.3 0 5.2 0 10.3c0 3.2-0.1 6.3-0.1 9.5q0 9.7 0 19.4c0.4-12.1 1-24 1-36.1 0-5.8-0.2-15-0.9-17.4z"/> 				<path id="&lt;Compound Path&gt;" class="s52" d="m482.5 248.4c-1.4 37.1-1.1 76.1 0.7 111.3l7.8-3.9c-2.3-32.1-2.3-74.1 0-111.7-3 1.3-5.9 2.7-8.5 4.3zm-9.8 5c-1 37-1.1 75.7 0.9 111.2l7.1-3.7q-1.9-55.4 0.3-111.7c-2.9 1.2-5.7 2.7-8.3 4.2zm-6.1 3.1c-2.8 38-4.1 74.1-0.6 111.9l4.5-2.3c0.3-37.1 0.4-74.3 0-111.6-1.4 0.6-2.7 1.2-3.9 2zm-39.9 20.1c1.1 35.5 1.3 77 0.3 111.5l7-3.5c0.9-7.8 0.9-15.8 1.2-23.9 0.9 6.5 1.8 14.6 1.8 22.3l8.5-4.2 12.3-6.3c0-4.2 0.3-10.3 0.8-12.2 0.2 3.8 0.4 7.6 0.8 11.4l3.3-1.6c-1.1-37.1-0.3-74.7 1.6-112.5q-19.6 9.1-37.6 19zm-26.7 69.3v55.8l4.8-2.4c0.6-7 1.1-13.9 1.4-20.9 0.7 6.5 1.2 13 1.3 19.5l7.3-3.6 0.6-9.8 0.6 9.1 7.1-3.5c2.3-36.4 0.7-80.5-3.8-109.8-6.8 3.1-13.3 6.3-19.3 9.8v55.8z"/> 				<path id="&lt;Compound Path&gt;" class="s53" d="m390.9 285.5c-2.8 36.9-2.6 74-0.6 111.3l9.7 4.9v-55.8-55.8c-2.6-1.8-5.6-3.3-9.1-4.6zm-20.7-10.5c-0.9 37.5-0.7 74.6-0.2 111.6l11.7 5.9c0.1-4 0.5-8 0.9-12q0.2 6.4 0.8 12.8l3.5 1.8c-1.1-36.7 0-73.3 1.8-110.7q-8.6-5-18.5-9.4zm-18.9-9.5c-1 37.2-0.8 74.3-0.3 111.5l2.9 1.4c0.4-5.4 0.4-11.8 0.9-17.8 0.6 6.3 1 12.7 1.4 19l11.6 5.8c0.7-37 0.9-74.2-0.3-111.7-4.9-3.2-10.4-5.9-16.2-8.2zm-7.6-3.8c-1.1 37.1-0.9 74.3-0.2 111.5l5.9 3c0.5-37.2 0.7-74.4-0.2-111.8-1.6-1-3.2-2-5.5-2.7zm-11.1-5.7c-0.6 37.2-0.5 74.4-0.1 111.6l1.6 0.8q0.4-5.3 0.5-10.7c0.5 3.8 1 7.7 1.2 11.6l5.2 2.6c0.7-37 0.8-74.2-0.3-111.8-2.4-1.4-5-2.9-8.1-4.1zm-8.2-4.1c0.4 37.2 0.3 74.5 0.1 111.7l6.2 3.1c0.5-37.2 0.7-74.5-0.2-111.7q-2.9-1.7-6.1-3.1zm-6.1-3.1c-1.2 37.3-1.2 74.5-0.1 111.6l4.1 2.1c-0.8-37.2-1-74.4 0.3-111.5q-2-1.2-4.3-2.2zm-2.5 110.4c0.9-36.7 1.1-73.8-0.1-111.7q-3.2-1.8-6.7-3.4c1.5 36.7 1.3 79 0 111.7z"/> 				<path id="&lt;Compound Path&gt;" class="s54" d="m390.9 285.5c-2.8 36.9-2.6 74-0.6 111.3l9.7 4.9v-55.8-55.8c-2.6-1.8-5.6-3.3-9.1-4.6zm-20.7-10.5c-0.9 37.5-0.7 74.6-0.2 111.6l11.7 5.9c0.1-4 0.5-8 0.9-12q0.2 6.4 0.8 12.8l3.5 1.8c-1.1-36.7 0-73.3 1.8-110.7q-8.6-5-18.5-9.4zm-18.9-9.5c-1 37.2-0.8 74.3-0.3 111.5l2.9 1.4c0.4-5.4 0.4-11.8 0.9-17.8 0.6 6.3 1 12.7 1.4 19l11.6 5.8c0.7-37 0.9-74.2-0.3-111.7-4.9-3.2-10.4-5.9-16.2-8.2zm-7.6-3.8c-1.1 37.1-0.9 74.3-0.2 111.5l5.9 3c0.5-37.2 0.7-74.4-0.2-111.8-1.6-1-3.2-2-5.5-2.7zm-11.1-5.7c-0.6 37.2-0.5 74.4-0.1 111.6l1.6 0.8q0.4-5.3 0.5-10.7c0.5 3.8 1 7.7 1.2 11.6l5.2 2.6c0.7-37 0.8-74.2-0.3-111.8-2.4-1.4-5-2.9-8.1-4.1zm-8.2-4.1c0.4 37.2 0.3 74.5 0.1 111.7l6.2 3.1c0.5-37.2 0.7-74.5-0.2-111.7q-2.9-1.7-6.1-3.1zm-6.1-3.1c-1.2 37.3-1.2 74.5-0.1 111.6l4.1 2.1c-0.8-37.2-1-74.4 0.3-111.5q-2-1.2-4.3-2.2zm-2.5 110.4c0.9-36.7 1.1-73.8-0.1-111.7q-3.2-1.8-6.7-3.4c1.5 36.7 1.3 79 0 111.7z"/> 				<path id="&lt;Compound Path&gt;" class="s55" d="m482.5 248.4c-1.4 37.1-1.1 76.1 0.7 111.3l7.8-3.9c-2.3-32.1-2.3-74.1 0-111.7-3 1.3-5.9 2.7-8.5 4.3zm-9.8 5c-1 37-1.1 75.7 0.9 111.2l7.1-3.7q-1.9-55.4 0.3-111.7c-2.9 1.2-5.7 2.7-8.3 4.2zm-6.1 3.1c-2.8 38-4.1 74.1-0.6 111.9l4.5-2.3c0.3-37.1 0.4-74.3 0-111.6-1.4 0.6-2.7 1.2-3.9 2zm-39.9 20.1c1.1 35.5 1.3 77 0.3 111.5l7-3.5c0.9-7.8 0.9-15.8 1.2-23.9 0.9 6.5 1.8 14.6 1.8 22.3l8.5-4.2 12.3-6.3c0-4.2 0.3-10.3 0.8-12.2 0.2 3.8 0.4 7.6 0.8 11.4l3.3-1.6c-1.1-37.1-0.3-74.7 1.6-112.5q-19.6 9.1-37.6 19zm-26.7 69.3v55.8l4.8-2.4c0.6-7 1.1-13.9 1.4-20.9 0.7 6.5 1.2 13 1.3 19.5l7.3-3.6 0.6-9.8 0.6 9.1 7.1-3.5c2.3-36.4 0.7-80.5-3.8-109.8-6.8 3.1-13.3 6.3-19.3 9.8v55.8z"/> 				<path id="&lt;Path&gt;" class="s56" d="m349.5 260.1c-1.2-3.8-1.1-7.3 0.2-10.8-2.3 5.1-1.8 10.1 1.6 16.2-0.8 32.3-0.8 64.6-0.5 96.9q0.9-47.3 1.7-94.6c0.1-1.4 4.3 0 6.1 0.9-4.9-2.8-7.1-2.8-9.1-8.6z"/> 				<path id="&lt;Path&gt;" class="s57" d="m372 274.4q0.5-0.4 1-0.9-1.4 0.8-2.8 1.5c-0.7 28.2-0.8 56.2-0.5 84.2q0 6.9 0.1 13.9 0-6.9 0.1-13.9c0.1-27.3 0.3-54.5 0.9-81.9 0-0.4 0-0.8 0.3-1 0.2-0.1 0.7 0 1 0.1 2 0.9 4.2 1.8 6.4 2.8 1.6 0.7 3.3 1.5 4.9 2.2-3.6-2-7.1-3.9-10.9-5.7-0.2-0.1-0.8-0.3-0.9-0.6-0.1-0.3 0.3-0.6 0.4-0.7z"/> 				<g id="&lt;Group&gt;"> 					<path id="&lt;Path&gt;" class="s58" d="m324.7 329.5c1.4-23.4 1.6-49.3-0.1-62q0.2 31 0.1 62z"/> 					<path id="&lt;Path&gt;" class="s59" d="m393.2 286.4c2 1.3 4.1 2.5 5.7 4.3 0.3 10.8 0.5 22.5 0.6 34.6 0.1 2.5-0.8 4.7-0.6 8.1 0.7 12.5 0.9 26.8 1.1 40.4 0.4-27.8 0.4-57.4 1.3-83.4 3.8-2.8 7.7-4.8 11.5-7-4.2 2-8.2 4.3-12.7 5.6-2.4-0.5-4.7-1.6-6.9-2.6z"/> 					<path id="&lt;Path&gt;" class="s60" d="m354.3 258.5c-5.1-6.8 1.2-16.6 7.7-19-5.5 3.1-9.9 10-7.7 19z"/> 					<path id="&lt;Path&gt;" class="s61" d="m373.6 233c12.9-7.5 28.8-7.1 38.7-4.8-14.2-1.1-24.7-0.8-38.7 4.8z"/> 				</g> 			</g> 			<path id="&lt;Path&gt;" class="s62" d="m423.5 210v5.5c-24.2-3-39.4-1-61.1 4.9 4.8-3.5 40.9-15.5 61.1-10.4z"/> 			<path id="&lt;Path&gt;" class="s63" d="m349.7 255.6v-8.1c2.1-4.4 5-7.4 8.3-9.6l1.2 12.9z"/> 			<path id="&lt;Path&gt;" class="s64" d="m350.6 259.9v-12.5l9.6-5.1v12.7z"/> 			<path id="&lt;Compound Path&gt;" fill-rule="evenodd" class="s65" d="m309 244.1c29.5-13 63.8-30.8 91-46 6.4 4.7 15.2 9.1 23.5 11.9-23.4-0.6-41.9 2.9-61.1 10.4 20.7-7.2 41-10.5 64.1-8.8 21.1 11.2 42.6 22 64.5 32.5-3 1.3-5.9 2.7-8.5 4.3-2.9-3.8-6.5-6.9-12.3-10.7 5.2 4.2 8.5 6.8 10.8 11.5-2.9 1.2-5.7 2.7-8.3 4.2-6.1-12.8-24.8-23.1-48.5-28.5 22.4 6.6 41.1 14.7 46.3 29.6-1.4 0.6-2.7 1.2-3.9 2-0.9-7-5.6-12.8-16.8-19 10.4 6.7 15.3 11.4 14.5 20.1q-19.2 8.9-36.8 18.6-0.8 0.4-1.6 0.6c-19 4.1-38.4 2.1-51.7-4.1 0.6-0.6 0.6-1.4 1.4-2 1.2-0.8 3.2-1.2 4.5-2 0.4-0.2 3.8-2.7 6.5-4.1q-4.4 1.8-8.8 3.7c-1.7 0.7-3.6 1.3-5.1 2.2-0.2 0.1-0.6 0.9-0.9 1q0 0 0 0c-6.5-3.5-11.2-8.1-13.2-13.6 1.6 5.9 6 10.7 12 14.3q-1.6 0.8-3.1 1.5c-4.9-3.2-10.4-5.9-16.2-8.2-3.8-6.7-3.9-12.1-0.8-17.8q1.3-0.1 2.7-0.3-1.3 0-2.6 0c1.4-2.4 3.4-4.9 6-7.7-3 2.7-5.3 5.2-6.9 7.8q-2.7 0-5.5 0.1c3.3-7.9 11.8-14.6 24.1-19.9-13.4 5.3-22.1 12-25.8 19.9q-2.4 0-4.8-0.1c-0.4 0-1.1-0.2-1.7-0.5 6.2-10.7 19.4-18.4 37.6-24.5-20 6.1-33.2 14.1-39.6 24.3-1.8 0-4.6 0.2-7.7 0.3 3.6-7 10-12.5 18.5-18.2-9.6 5.6-16.3 11.5-20.3 18.3-2.9 0.1-6 0.2-8.8 0.3q-3.2-1.8-6.7-3.4zm24.3 3.9q-1.9 3.4-2.8 7-2.9-1.7-6.1-3.1 0.6-1.9 1.3-3.6c2.9-0.2 5.5-0.3 7.6-0.3zm8.8 0.7q-2.3 5.4-1.4 11.4c-2.4-1.4-5-2.9-8.1-4.1q0.8-4.2 2.8-7.9 0.5 0 0.8 0.1c0.2 0 2.9 0.8 3.4 0.8q1.3-0.2 2.5-0.3zm7.3-0.9c-3.3 5.4-3.5 10.7-0.2 16.6-1.6-1-3.2-2-5.5-2.7-1.4-4.7-1.3-9.1 0.2-13.2 1.9-0.2 3.7-0.4 5.5-0.7zm23.6 25.7c12.1 6.3 29.7 8.7 46.3 6.8-6.8 3.1-13.3 6.3-19.3 9.8-2.6-1.8-5.6-3.3-9.1-4.6 4.5 0.6 7.6 0.7 12.9 0.7-5.5-0.3-9.9-0.8-15.1-1.8q-8.6-5-18.5-9.4 1.4-0.7 2.8-1.5zm-49.2-25.1q-0.7 1.3-1.2 2.6-2-1.2-4.3-2.2c1.8-0.2 3.7-0.3 5.5-0.4z"/> 			<path id="&lt;Path&gt;" class="s66" d="m378.6 239.7c16.1-7.2 40.4-8.3 57.4 0.3 17.1 8.6 15 20.2-0.2 29.2-15.1 8.9-41.6 9.2-58.2 0.6 0.9-0.4 1.8-0.7 2.5-1.1 0.4-0.2 3.8-2.7 6.5-4.1q-4.4 1.8-8.8 3.7-0.8 0.3-1.7 0.6c-15.2-8.8-13.3-22.1 2.5-29.2z"/> 			<path id="&lt;Path&gt;" class="s67" d="m389.2 244.4c10.2-5.2 27.3-4.8 38.2-0.1 11 4.8 11.9 14.2 0.8 19.8-7.2 3.7-17.8 6-27.9 4.4-17.5-2.9-27.3-15.9-11.1-24.1z"/> 			<path id="&lt;Path&gt;" class="s68" d="m395.9 247.8c6.8-3.5 17.5-3.2 24.7 0 7.3 3.2 7.1 8.5 0 12.5-7 3.9-17.9 3.4-24.7 0-6.9-3.5-6.9-9.1 0-12.5z"/> 			<path id="&lt;Path&gt;" class="s69" d="m405 252.3c1.9-0.9 4.7-1 6.6 0 1.9 1 2.1 2.5 0.2 3.5-2 1-5 0.9-6.9 0-1.9-1-1.9-2.5 0.1-3.5z"/> 			<path id="&lt;Path&gt;" class="s70" d="m377.7 227.7c12.4-5.4 32.1-4.8 39.1-1.4-14.1-1.9-24.1-2.7-39.1 1.4z"/> 			<path id="&lt;Path&gt;" class="s71" d="m394.7 218.8c18.9-4.6 39.4-0.2 56.4 8.8-23.2-8.4-31.1-9.9-56.4-8.8z"/> 			<path id="&lt;Compound Path&gt;" fill-rule="evenodd" class="s72" d="m463.4 233.5c-26.5-12.5-44.1-17.7-81.1-13.2 35.7-6.2 56.3 0 81.1 13.2zm-19.3-0.5c-0.8 0.6-8.4 5.6-8.4 5.8 0 0.1 0.4 0.3 0.6 0.5q0.3 0.1 0.6 0.2c9.2 4.7 11.8 9.3 11.1 15-0.6-4.6-1.5-6.9-7-10.9-10.2-7.5-22.5-9.8-38.4-9.5 11.9-0.8 21-0.2 30.3 3.6 0.3 0.2 0.6 0.3 0.9 0.3 0.9-0.1 9.1-4.4 10.3-5zm-20.6-5.4c-28.3-5-42.9-3.2-61.7 8 16.5-11.6 37.7-14.1 61.7-8zm-52.6 37.5c-6.7-5.7-8.5-12.5-4-18.2 4.9-6.3 15-9.6 25.4-11.5-9.9 2.6-18.6 5.8-23.2 11.8-4.1 5.4-3.4 11.8 1.8 17.9zm28.9-23.5q-0.3-0.1-0.6-0.1c-3.2 0.6-6.3 1.6-9.3 2.9-9.8 4.4-10.4 11.4-4.8 17.6-7.9-7-5.1-14.3 3.5-18.4 2.9-1.3 6.4-2.3 10.3-3q0.3 0 0.4-0.1c0.3-0.3-1.9-4.3-2.2-4.9 0.4 0.6 3.1 4.6 3.6 4.7q0.2 0.1 0.5 0c6.2-0.6 13.4-0.2 20.5 2.1-6.7-1.5-13.4-2-19.8-1.3q-0.3 0.1-0.4 0.2c-0.2 0.2 1.7 3.1 2.3 3.3 0.3 0.1 0.7 0.1 1.1 0 3.2-0.4 6.7-0.3 9.8 0.2 14.3 2.5 15.3 10.7 5.9 15.5 19.1-14.5-28.6-21.7-29.7-4.9-0.7-5 3.8-8.4 9.9-10 0.3-0.1 0.6-0.2 0.7-0.4 0.2-0.3-1.3-3.3-1.7-3.4zm36 27.6c-8 4.3-15.8 7-26.8 7.3-12.1 0.2-18.9-1.4-27.9-5.1 10.6 3.6 19.3 4.5 27.9 4.3 9.4-0.3 18.1-2.4 26.8-6.5zm-0.3-17.9c1.4 2.8 1.3 5.5-0.3 8-3.5 5.4-14.4 9.4-25.5 9.6 11-1 20.2-4.6 24.1-9.9 1.7-2.2 2.5-4.9 1.7-7.7zm-23.7 4.5c-6.3 2.5-11.2-1.1-7.2-3.3-2.6 2.9 2 4.5 7.2 3.3z"/> 			<path id="&lt;Path&gt;" class="s73" d="m324.2 246.5q-4 0.4-7.9 1c2.6-0.1 5.5-0.2 8.2-0.3q0.4-0.8 0.9-1.5c3.2-4.8 7.9-9.2 14-13.4-4.1 2.5-7.7 5-10.8 8.2-1.4 1.5-2.7 3.2-3.9 5.1q-0.3 0.4-0.5 0.9z"/> 			<path id="&lt;Path&gt;" class="s74" d="m357.4 228.5c-8.8 3.7-19.6 9.6-23.5 17.8l-2 0.2-5.1 0.6c2.9-0.2 5.5-0.3 7.2-0.3q0 0 0.1-0.1 6.6-10.6 23.3-18.2z"/> 			<path id="&lt;Path&gt;" class="s75" d="m341.9 246.9q-2.1 0.3-4.2 0.4-0.7 0-1.4-0.1c0.5 0.1 1.1 0.3 1.4 0.3q2.2 0.1 4.3 0.1 0.3 0 0.5 0c3-6.3 9.1-11.8 18.3-16.5-7.3 3.3-12.9 6.9-17.5 13.6q-0.3 0.4-0.5 0.8-0.4 0.7-0.9 1.4z"/> 			<path id="&lt;Compound Path&gt;" fill-rule="evenodd" class="s76" d="m309 244.1c29.5-13 63.8-30.8 91-46 6.4 4.7 15.2 9.1 23.5 11.9-23.4-0.6-41.9 2.9-61.1 10.4 20.7-7.2 41-10.5 64.1-8.8 21.1 11.2 42.6 22 64.5 32.5-3 1.3-5.9 2.7-8.5 4.3-2.9-3.8-6.5-6.9-12.3-10.7 5.2 4.2 8.5 6.8 10.8 11.5-2.9 1.2-5.7 2.7-8.3 4.2-6.1-12.8-24.8-23.1-48.5-28.5 22.4 6.6 41.1 14.7 46.3 29.6-1.4 0.6-2.7 1.2-3.9 2-0.9-7-5.6-12.8-16.8-19 10.4 6.7 15.3 11.4 14.5 20.1q-18.2 8.4-35 17.6c-1.7 0.9-3.5 1.6-5.5 2-18.3 3.5-36.8 1.5-49.6-4.5 0.6-0.6 0.6-1.4 1.4-2 1.2-0.8 3.2-1.2 4.5-2 0.4-0.2 3.8-2.7 6.5-4.1q-4.4 1.8-8.8 3.7c-1.7 0.7-3.6 1.3-5.1 2.2-0.2 0.1-0.6 0.9-0.9 1q0 0 0 0c-6.5-3.5-11.2-8.1-13.2-13.6 1.6 5.9 6 10.7 12 14.3q-1.6 0.8-3.1 1.5c-4.9-3.2-10.4-5.9-16.2-8.2-3.8-6.7-3.9-12.1-0.8-17.8q1.3-0.1 2.7-0.3-1.3 0-2.6 0c1.4-2.4 3.4-4.9 6-7.7-3 2.7-5.3 5.2-6.9 7.8q-2.7 0-5.5 0.1c3.3-7.9 11.8-14.6 24.1-19.9-13.4 5.3-22.1 12-25.8 19.9q-2.4 0-4.8-0.1c-0.4 0-1.1-0.2-1.7-0.5 6.2-10.7 19.4-18.4 37.6-24.5-20 6.1-33.2 14.1-39.6 24.3-1.8 0-4.6 0.2-7.7 0.3 3.6-7 10-12.5 18.5-18.2-9.6 5.6-16.3 11.5-20.3 18.3-2.9 0.1-6 0.2-8.8 0.3q-3.2-1.8-6.7-3.4zm24.3 3.9q-1.9 3.4-2.8 7-2.9-1.7-6.1-3.1 0.6-1.9 1.3-3.6c2.9-0.2 5.5-0.3 7.6-0.3zm8.8 0.7q-2.3 5.4-1.4 11.4c-2.4-1.4-5-2.9-8.1-4.1q0.8-4.2 2.8-7.9 0.5 0 0.8 0.1c0.2 0 2.9 0.8 3.4 0.8q1.3-0.2 2.5-0.3zm7.3-0.9c-3.3 5.4-3.5 10.7-0.2 16.6-1.6-1-3.2-2-5.5-2.7-1.4-4.7-1.3-9.1 0.2-13.2 1.9-0.2 3.7-0.4 5.5-0.7zm23.6 25.7c12.1 6.3 29.7 8.7 46.3 6.8-6.8 3.1-13.3 6.3-19.3 9.8-2.6-1.8-5.6-3.3-9.1-4.6 4.5 0.6 7.6 0.7 12.9 0.7-5.5-0.3-9.9-0.8-15.1-1.8q-8.6-5-18.5-9.4 1.4-0.7 2.8-1.5zm-49.2-25.1q-0.7 1.3-1.2 2.6-2-1.2-4.3-2.2c1.8-0.2 3.7-0.3 5.5-0.4z"/> 			<path id="&lt;Compound Path&gt;" fill-rule="evenodd" class="s77" d="m331.4 246.9c4-7.5 12.7-14.4 23.3-19.8 32.8-16.7 74.8-13.2 106.1 2.8 10.6 5.4 18.4 11.4 22.8 17.6l0.1 0.2-1.2 0.7-0.2-0.3c-2.8-3.6-6.5-6.7-12.1-10.4 4.2 3.4 7.1 5.7 9.3 9-4.3-5.4-11.5-10.7-21-15.6-26.6-13.5-59.1-17.1-87.3-7.8q1.2-0.4 2.4-0.8c-20 6.1-33.2 14.1-39.6 24.3q-1.1 0-2.6 0.1zm93.9-21.7c-21.1-5.4-43.3-4.7-62.8 5.3q-1.6 0.8-3 1.6 4-2.3 8.8-4.4c-13.4 5.3-22.1 12-25.8 19.9q-0.3 0-0.7 0c6.2-13.9 27.1-27.1 55.6-27.6 20.9-0.4 40.5 6.8 54.8 14 11.5 5.9 18.5 12.3 20.9 18.8l0.1 0.3-0.5 0.3-0.2-0.3c-6.1-12.7-24.8-22.9-48.3-28.2q0.6 0.1 1.1 0.3zm38.3 25.9c-2.7-6.2-9.8-12.1-20.8-16.9-26.7-11.5-54.9-13.1-76-1.4-7.4 4.1-13 9.2-16.1 14.6q0 0-0.1 0c1.4-2.4 3.4-4.9 6-7.7-3 2.7-5.3 5.2-6.9 7.8q-0.7 0-1.3 0c5.8-11.5 21.8-22 44-23.9 18.9-1.6 37.8 3.7 51.8 9.8 13.2 5.7 22.2 13.6 22.8 22.5l0.1 0.3-0.5 0.3-0.1-0.3c-0.9-6.9-5.7-12.6-16.7-18.7 7.5 4.8 12.1 8.6 13.8 13.6zm-6.7 10q-3 1.4-5.9 2.9c7.6-8.8 4.4-18-10.8-25.8-19.8-10.1-48.3-10.6-67.2-1.2-13.6 6.8-17.7 16.7-11.9 25.6q-1.6-2.2-2.5-4.7c1.6 5.9 6 10.7 12 14.3q-1.2 0.6-2.3 1.1c-19.1-11-20.4-28.1 0.5-38.5 21.3-10.7 53.9-8.7 74.5 1.8 14.2 7.3 18.7 15.8 14.6 24zm-45.9 16.6c-13.4 0.7-26.4-1.9-35.7-6.8q0.1-0.1 0.3-0.2c0.6-0.4 1.3-0.7 2.1-1 16.4 8.7 42.8 8.5 57.8-0.5 15-9 17.1-20.6 0.2-29.2-16.9-8.6-40.9-7.5-56.9-0.2-15.6 7-17.6 20.3-2.6 29.1-0.8 0.4-1.7 0.7-2.5 1.1-12.3-7.3-14.4-18-4.8-26.4 14.5-12.7 48.2-14.9 68.6-4.4 18.3 9.3 16.6 21.5 0.5 31.1-6.9 4.1-16.4 6.8-27 7.4zm-24.7-12.9q0.2-0.1 0.3-0.2-0.2 0.1-0.4 0.1-0.2-0.1-0.4-0.2c-2.9-1.9-5-4.2-6.1-6.6-2.4-5.2 0.1-10.6 7.7-14.5 12.9-6.5 37.8-5.2 47.3 2.7 7 5.7 3.6 13.7-5.8 18.5-13.3 6.8-31.1 7.4-42.6 0.2zm3-20.4c-16.1 8.2-6.3 21.2 11 24.1 10 1.6 20.5-0.7 27.7-4.3 10.9-5.6 10-15.1-0.8-19.9-10.9-4.7-27.8-5.1-37.9 0.1zm4.3 17.1c-8.1-4.1-7.3-10.4 0.8-14.5 15.9-8.1 49.2 1.6 27.4 13.8-8.1 4.6-19.9 4.9-28.2 0.7zm2.3-13.7c-6.8 3.4-6.8 9.1 0 12.5 6.8 3.5 17.5 4 24.6 0 7-3.9 7.1-9.3 0-12.5-7.2-3.2-17.8-3.5-24.6 0zm7.4 8.8c-2.8-1.4-2.7-3.6 0.1-5 2.7-1.4 6.9-1.5 9.6-0.1 2.8 1.4 3 3.7 0.2 5.1-2.8 1.4-7.2 1.4-9.9 0zm1.6-4.2c-1.9 0.9-2 2.4-0.1 3.4 1.9 1 4.9 1 6.8 0 2-1 1.8-2.5-0.1-3.5-1.9-0.9-4.7-0.9-6.6 0.1zm11.5 29.3q-4.7 0.5-9.6 0.5c-13.5 0.1-26.4-2.7-36-7.5q1.1-0.5 2.2-1.1c12 6.3 29.8 8.6 46.3 6.8q-1.5 0.6-2.9 1.3zm-69-18.4c-2.1-4.7-1.7-10.1 0.7-15.3q0.7-0.1 1.3-0.1c-3.2 5.2-3.4 10.7-0.2 16.6zm-7.2-3.5c-0.2-1.4-0.3-3-0.3-4.3q0.1-3.4 1.4-6.8 0.4 0 0.8 0c-1.5 3.5-1.9 7.5-1.4 11.4zm-11.1-5.7c0.2-1.9 0.8-4.1 1.7-6.1q1.4 0 2.5 0c-1.2 2.1-2.2 4.6-2.8 6.9z"/> 		</g> 	</g> </svg>