<svg version="1.2" xmlns="http://www.w3.org/2000/svg" viewBox="0 0 800 800" width="800" height="800">
	<title>944298-ai</title>
	<style>
		.s0 { fill: #937963 } 
		.s1 { fill: #c7b29e } 
		.s2 { fill: #e5d3bd } 
		.s3 { fill: #bdc5ce } 
		.s4 { fill: #dce5f0 } 
		.s5 { fill: #8a9db3 } 
		.s6 { fill: #627181 } 
		.s7 { fill: #4f5c69 } 
		.s8 { fill: #8e9da3 } 
		.s9 { fill: #7b7c88 } 
		.s10 { fill: #6e687a } 
		.s11 { fill: #95abbf } 
		.s12 { fill: #8093a4 } 
		.s13 { fill: #d0d9e3 } 
		.s14 { fill: #aab0ba } 
		.s15 { fill: #ffbab2 } 
		.s16 { fill: #666172 } 
		.s17 { fill: #43505a } 
		.s18 { fill: #576875 } 
		.s19 { fill: #fae6cc } 
		.s20 { fill: #45525d } 
		.s21 { fill: #5b6c7a } 
		.s22 { fill: #37404a } 
		.s23 { fill: #647280 } 
	</style>
	<g id="BACKGROUND">
	</g>
	<g id="OBJECTS">
		<g id="knight">
			<g id="&lt;Group&gt;">
				<g id="&lt;Group&gt;">
					<g id="&lt;Group&gt;">
						<path id="&lt;Path&gt;" class="s0" d="m504.1 505.7v7.3l-103.7 60.3v-7.3z"/>
					</g>
					<g id="&lt;Group&gt;">
						<path id="&lt;Path&gt;" class="s1" d="m400.4 566v7.3l-104.4-60.3v-7.3z"/>
					</g>
					<g id="&lt;Group&gt;">
						<path id="&lt;Path&gt;" class="s2" d="m504.1 505.7l-103.7 60.3-104.4-60.3 103.7-60.3z"/>
					</g>
				</g>
			</g>
			<g id="&lt;Group&gt;">
				<g id="&lt;Group&gt;">
					<g id="&lt;Group&gt;">
						<g id="&lt;Group&gt;">
							<g id="&lt;Group&gt;">
								<g id="&lt;Group&gt;">
									<g id="&lt;Group&gt;">
										<path id="&lt;Path&gt;" class="s3" d="m329.1 424.6l-13-7.6v6.8l13.1 7.6z"/>
									</g>
									<g id="&lt;Group&gt;">
										<path id="&lt;Path&gt;" class="s4" d="m344 416l-13-7.6-14.9 8.6 13 7.6z"/>
									</g>
									<g id="&lt;Group&gt;">
										<path id="&lt;Path&gt;" class="s5" d="m329.1 424.6l0.1 6.8 14.9-8.6-0.1-6.8z"/>
									</g>
								</g>
							</g>
						</g>
						<g id="&lt;Group&gt;">
							<path id="&lt;Path&gt;" class="s6" d="m329.7 420.7l-6.9-4-0.1-18.3 7 4z"/>
							<path id="&lt;Path&gt;" class="s7" d="m329.7 402.4l5.6-3.2v18.3l-5.6 3.2z"/>
						</g>
						<g id="&lt;Group&gt;">
							<g id="&lt;Group&gt;">
								<g id="&lt;Group&gt;">
									<g id="&lt;Group&gt;">
										<path id="&lt;Path&gt;" class="s8" d="m344.1 383.2l-13.1-7.6 0.1 19.2 13 7.6z"/>
									</g>
									<g id="&lt;Group&gt;">
										<path id="&lt;Path&gt;" class="s9" d="m376.9 364.2l-13.1-7.5-32.8 18.9 13.1 7.6z"/>
									</g>
									<g id="&lt;Group&gt;">
										<path id="&lt;Path&gt;" class="s10" d="m344.1 383.2v19.2l32.8-18.9v-19.3z"/>
									</g>
								</g>
							</g>
						</g>
						<g id="&lt;Group&gt;">
							<g id="&lt;Group&gt;">
								<g id="&lt;Group&gt;">
									<g id="&lt;Group&gt;">
										<path id="&lt;Path&gt;" class="s3" d="m329.1 391.8l-13-7.6v19.2l13.1 7.6z"/>
									</g>
									<g id="&lt;Group&gt;">
										<path id="&lt;Path&gt;" class="s4" d="m344 383.2l-13-7.6-14.9 8.6 13 7.6z"/>
									</g>
									<g id="&lt;Group&gt;">
										<path id="&lt;Path&gt;" class="s5" d="m329.1 391.8l0.1 19.2 14.9-8.6-0.1-19.2z"/>
									</g>
								</g>
							</g>
						</g>
						<g id="&lt;Group&gt;">
							<g id="&lt;Group&gt;">
								<g id="&lt;Group&gt;">
									<path id="&lt;Path&gt;" class="s11" d="m330 372.3l5-2.8 16.6 9.5-5 2.8z"/>
								</g>
								<g id="&lt;Group&gt;">
									<path id="&lt;Path&gt;" class="s12" d="m346.6 381.8l5-2.8v25l-5 2.9z"/>
								</g>
								<g id="&lt;Group&gt;">
									<path id="&lt;Path&gt;" class="s12" d="m330 372.3l16.6 9.5v25.1l-5.1-2.9 2.6-1.6v-19.2l-13.1-7.6-1 0.5z"/>
								</g>
							</g>
						</g>
						<g id="&lt;Group&gt;">
							<g id="&lt;Group&gt;">
								<path id="&lt;Path&gt;" class="s6" d="m329.7 388.3l-6.9-4-0.1-22.2 7 3.9z"/>
								<path id="&lt;Path&gt;" class="s7" d="m329.7 366l5.6-3.2v22.3l-5.6 3.2z"/>
							</g>
							<g id="&lt;Group&gt;">
								<g id="&lt;Group&gt;">
									<g id="&lt;Group&gt;">
										<g id="&lt;Group&gt;">
											<path id="&lt;Path&gt;" class="s3" d="m315.6 378.3l-13-7.6v8.5l13.1 7.6z"/>
										</g>
										<g id="&lt;Group&gt;">
											<path id="&lt;Path&gt;" class="s4" d="m355.8 355.2l-13.1-7.6-40.1 23.1 13 7.6z"/>
										</g>
										<g id="&lt;Group&gt;">
											<path id="&lt;Path&gt;" class="s5" d="m315.6 378.3l0.1 8.5 40.1-23.1v-8.5z"/>
										</g>
									</g>
								</g>
							</g>
							<g id="&lt;Group&gt;">
								<g id="&lt;Group&gt;">
									<g id="&lt;Group&gt;">
										<g id="&lt;Group&gt;">
											<path id="&lt;Path&gt;" class="s13" d="m322.2 370.1l-4.9-2.8-0.2-120.1 4.9 2.9z"/>
										</g>
										<g id="&lt;Group&gt;">
											<path id="&lt;Path&gt;" class="s4" d="m322 250.1l-4.9-2.9 8.8-19.8 4.9 2.9z"/>
										</g>
										<g id="&lt;Group&gt;">
											<path id="&lt;Path&gt;" class="s3" d="m330.8 230.3l8.8 9.6 0.2 120-17.6 10.2-0.2-120z"/>
										</g>
									</g>
								</g>
								<path id="&lt;Path&gt;" class="s14" d="m330.8 230.3v134.8l9-5.2-0.2-120z"/>
							</g>
						</g>
					</g>
					<g id="&lt;Group&gt;">
						<g id="&lt;Group&gt;">
							<g id="&lt;Group&gt;">
								<g id="&lt;Group&gt;">
									<path id="&lt;Path&gt;" class="s3" d="m398.4 517.7l0.1 8.7 23.6 13.8-0.1-8.8z"/>
								</g>
								<g id="&lt;Group&gt;">
									<path id="&lt;Path&gt;" class="s5" d="m422 531.4l0.1 8.8 41.4-23.9-0.1-8.8z"/>
								</g>
								<g id="&lt;Group&gt;">
									<path id="&lt;Path&gt;" class="s4" d="m398.4 517.7l23.6 13.7 41.4-23.9-23.6-13.7z"/>
								</g>
							</g>
						</g>
						<g id="&lt;Group&gt;">
							<g id="&lt;Group&gt;">
								<g id="&lt;Group&gt;">
									<path id="&lt;Path&gt;" class="s7" d="m443 430.4l17.5-10.2-0.1 86.8-17.5 10.2z"/>
								</g>
								<g id="&lt;Group&gt;">
									<path id="&lt;Path&gt;" class="s15" d="m423 418.8l17.5-10.1 20 11.5-17.5 10.2z"/>
								</g>
								<g id="&lt;Group&gt;">
									<path id="&lt;Path&gt;" class="s6" d="m443 430.4l-0.1 86.8-19.9-11.5v-86.9z"/>
								</g>
							</g>
						</g>
					</g>
					<g id="&lt;Group&gt;">
						<g id="&lt;Group&gt;">
							<g id="&lt;Group&gt;">
								<g id="&lt;Group&gt;">
									<path id="&lt;Path&gt;" class="s3" d="m345.7 487.3l0.1 8.7 23.6 13.7-0.1-8.7z"/>
								</g>
								<g id="&lt;Group&gt;">
									<path id="&lt;Path&gt;" class="s5" d="m369.3 501l0.1 8.7 41.4-23.8-0.1-8.8z"/>
								</g>
								<g id="&lt;Group&gt;">
									<path id="&lt;Path&gt;" class="s4" d="m345.7 487.3l23.6 13.7 41.4-23.9-23.6-13.7z"/>
								</g>
							</g>
						</g>
						<g id="&lt;Group&gt;">
							<g id="&lt;Group&gt;">
								<g id="&lt;Group&gt;">
									<path id="&lt;Path&gt;" class="s16" d="m390.5 400l17.5-10.1-0.1 86.8-17.5 10.2z"/>
								</g>
								<g id="&lt;Group&gt;">
									<path id="&lt;Path&gt;" class="s15" d="m370.5 388.5l17.5-10.1 20 11.5-17.5 10.1z"/>
								</g>
								<g id="&lt;Group&gt;">
									<path id="&lt;Path&gt;" class="s8" d="m390.5 400l-0.1 86.9-19.9-11.5v-86.9z"/>
								</g>
							</g>
						</g>
					</g>
					<g id="&lt;Group&gt;">
						<g id="&lt;Group&gt;">
							<g id="&lt;Group&gt;">
								<path id="&lt;Path&gt;" class="s7" d="m413.5 424.3l63.6-37-0.3 83.2-63.5 37z"/>
							</g>
							<g id="&lt;Group&gt;">
								<path id="&lt;Path&gt;" class="s15" d="m341.1 382.4l63.5-36.9 72.5 41.8-63.6 37z"/>
							</g>
							<g id="&lt;Group&gt;">
								<path id="&lt;Path&gt;" class="s6" d="m413.5 424.3l-0.2 83.2-72.5-41.8 0.3-83.3z"/>
							</g>
						</g>
					</g>
					<g id="&lt;Group&gt;">
						<g id="&lt;Group&gt;">
							<g id="&lt;Group&gt;">
								<path id="&lt;Path&gt;" class="s17" d="m413.7 341l63.6-36.9-0.2 83.2-63.6 37z"/>
							</g>
							<g id="&lt;Group&gt;">
								<path id="&lt;Path&gt;" class="s18" d="m341.3 299.2l63.6-37 72.4 41.9-63.6 36.9z"/>
							</g>
							<g id="&lt;Group&gt;">
								<path id="&lt;Path&gt;" class="s19" d="m413.7 341l-0.2 83.3-72.4-41.9 0.2-83.2z"/>
							</g>
						</g>
					</g>
					<g id="&lt;Group&gt;">
						<g id="&lt;Group&gt;">
							<g id="&lt;Group&gt;">
								<g id="&lt;Group&gt;">
									<path id="&lt;Path&gt;" class="s3" d="m449.1 471.6l-13.1-7.6 0.1 12.7 13 7.6z"/>
								</g>
								<g id="&lt;Group&gt;">
									<path id="&lt;Path&gt;" class="s19" d="m464 463l-13.1-7.6-14.9 8.6 13.1 7.6z"/>
								</g>
								<g id="&lt;Group&gt;">
									<path id="&lt;Path&gt;" class="s5" d="m449.1 471.6v12.7l14.9-8.6v-12.7z"/>
								</g>
							</g>
						</g>
						<g id="&lt;Group&gt;">
							<g id="&lt;Group&gt;">
								<g id="&lt;Group&gt;">
									<path id="&lt;Path&gt;" class="s20" d="m449.1 422.8l-13.1-7.6 0.1 48.8 13 7.6z"/>
								</g>
								<g id="&lt;Group&gt;">
									<path id="&lt;Path&gt;" class="s21" d="m464 414.2l-13.1-7.6-14.9 8.6 13.1 7.6z"/>
								</g>
								<g id="&lt;Group&gt;">
									<path id="&lt;Path&gt;" class="s22" d="m449.1 422.8v48.8l14.9-8.6v-48.8z"/>
								</g>
							</g>
						</g>
						<g id="&lt;Group&gt;">
							<g id="&lt;Group&gt;">
								<g id="&lt;Group&gt;">
									<path id="&lt;Path&gt;" class="s23" d="m467.3 455.3v5.8l-18.1 10.5v-5.7z"/>
								</g>
								<g id="&lt;Group&gt;">
									<path id="&lt;Path&gt;" class="s12" d="m449.2 465.9v5.7l-18.3-10.5v-5.8z"/>
								</g>
								<g id="&lt;Group&gt;">
									<path id="&lt;Path&gt;" class="s11" d="m467.3 455.3l-18.1 10.6-18.3-10.6 5.1-2.9 0.1 3.1 13 7.6 14.9-8.6v-1.1z"/>
								</g>
							</g>
						</g>
						<g id="&lt;Group&gt;">
							<g id="&lt;Group&gt;">
								<g id="&lt;Group&gt;">
									<g id="&lt;Group&gt;">
										<path id="&lt;Path&gt;" class="s5" d="m473 408.4v15l-23.8 13.8v-15z"/>
									</g>
									<g id="&lt;Group&gt;">
										<path id="&lt;Path&gt;" class="s3" d="m449.2 422.2v15l-24-13.8v-15z"/>
									</g>
									<g id="&lt;Group&gt;">
										<path id="&lt;Path&gt;" class="s4" d="m473 408.4l-23.8 13.8-24-13.8 23.9-13.9z"/>
									</g>
								</g>
							</g>
							<g id="&lt;Group&gt;">
								<g id="&lt;Group&gt;">
									<g id="&lt;Group&gt;">
										<path id="&lt;Path&gt;" class="s5" d="m465.7 398.7v10.4l-16.5 9.6v-10.4z"/>
									</g>
									<g id="&lt;Group&gt;">
										<path id="&lt;Path&gt;" class="s3" d="m449.2 408.3v10.4l-16.6-9.6v-10.4z"/>
									</g>
									<g id="&lt;Group&gt;">
										<path id="&lt;Path&gt;" class="s4" d="m465.7 398.7l-16.5 9.6-16.6-9.6 16.5-9.6z"/>
									</g>
								</g>
							</g>
						</g>
					</g>
					<g id="&lt;Group&gt;">
						<g id="&lt;Group&gt;">
							<g id="&lt;Group&gt;">
								<path id="&lt;Path&gt;" class="s5" d="m397.6 345.1l16.2-9.6-0.3 62.7-16.1 9.6z"/>
							</g>
							<g id="&lt;Group&gt;">
								<path id="&lt;Path&gt;" class="s4" d="m319.6 300.1l16.2-9.6 78 45-16.2 9.6z"/>
							</g>
							<g id="&lt;Group&gt;">
								<path id="&lt;Path&gt;" class="s3" d="m397.6 345.1l-0.2 62.7-78-45 0.2-62.7z"/>
							</g>
						</g>
						<g id="&lt;Group&gt;">
							<g id="&lt;Group&gt;">
								<path id="&lt;Path&gt;" class="s5" d="m337.8 322.9l-0.3 40.2-6.9-4 0.3-40.2z"/>
							</g>
							<path id="&lt;Path&gt;" class="s4" d="m330.6 359.1l7-4-0.1 8z"/>
						</g>
						<g id="&lt;Group&gt;">
							<g id="&lt;Group&gt;">
								<path id="&lt;Path&gt;" class="s5" d="m349.4 329.6l-0.3 40.2-6.9-4 0.2-40.2z"/>
							</g>
							<path id="&lt;Path&gt;" class="s4" d="m342.2 365.8l6.9-4v8z"/>
						</g>
						<g id="&lt;Group&gt;">
							<g id="&lt;Group&gt;">
								<path id="&lt;Path&gt;" class="s5" d="m360.9 336.2l-0.2 40.3-6.9-4 0.2-40.2z"/>
							</g>
							<path id="&lt;Path&gt;" class="s4" d="m353.8 372.5l6.9-4v8z"/>
						</g>
						<g id="&lt;Group&gt;">
							<g id="&lt;Group&gt;">
								<path id="&lt;Path&gt;" class="s5" d="m372.5 342.9l-0.2 40.3-7-4 0.3-40.3z"/>
							</g>
							<path id="&lt;Path&gt;" class="s4" d="m365.3 379.2l7-4v8z"/>
						</g>
						<g id="&lt;Group&gt;">
							<g id="&lt;Group&gt;">
								<path id="&lt;Path&gt;" class="s5" d="m384.1 349.6l-0.3 40.3-6.9-4 0.3-40.3z"/>
							</g>
							<path id="&lt;Path&gt;" class="s4" d="m376.9 385.9l7-4-0.1 8z"/>
						</g>
					</g>
					<g id="&lt;Group&gt;">
						<g id="&lt;Group&gt;">
							<path id="&lt;Path&gt;" class="s5" d="m395.6 458.2l5.3-3.4-0.3 24.4-5.3 3.3z"/>
						</g>
						<g id="&lt;Group&gt;">
							<path id="&lt;Path&gt;" class="s4" d="m348.4 430.9l5.3-3.3 47.2 27.2-5.3 3.4z"/>
						</g>
						<g id="&lt;Group&gt;">
							<path id="&lt;Path&gt;" class="s3" d="m395.6 458.2l-0.3 24.3-47.2-27.2 0.3-24.4z"/>
						</g>
					</g>
					<g id="&lt;Group&gt;">
						<g id="&lt;Group&gt;">
							<path id="&lt;Path&gt;" class="s5" d="m403.8 425.1l5.3-3.4-0.2 34.5-5.3 3.4z"/>
						</g>
						<g id="&lt;Group&gt;">
							<path id="&lt;Path&gt;" class="s4" d="m341.2 388.9l5.3-3.3 62.6 36.1-5.3 3.4z"/>
						</g>
						<g id="&lt;Group&gt;">
							<path id="&lt;Path&gt;" class="s3" d="m403.8 425.1l-0.2 34.5-62.7-36.2 0.3-34.5z"/>
						</g>
					</g>
				</g>
				<g id="&lt;Group&gt;">
					<g id="&lt;Group&gt;">
						<path id="&lt;Path&gt;" class="s3" d="m405 360l-5.3-3.3 0.3 34.5 5.3 3.3z"/>
					</g>
					<g id="&lt;Group&gt;">
						<path id="&lt;Path&gt;" class="s4" d="m457.5 329.7l-5.3-3.3-52.5 30.3 5.3 3.3z"/>
					</g>
					<g id="&lt;Group&gt;">
						<path id="&lt;Path&gt;" class="s5" d="m405 360l0.3 34.5 52.5-30.3-0.3-34.5z"/>
					</g>
				</g>
				<g id="&lt;Group&gt;">
					<g id="&lt;Group&gt;">
						<path id="&lt;Path&gt;" class="s3" d="m449.4 341.8c-1.7-1-4.1-0.9-6.6 0.6-5.2 3-9.3 10.1-9.3 16 0 3 1.1 5 2.7 6l4.9 2.8c-1.7-0.9-2.7-3-2.7-5.9 0-5.9 4.1-13.1 9.3-16 2.5-1.5 4.9-1.7 6.6-0.7z"/>
						<g id="&lt;Group&gt;">
							<path id="&lt;Path&gt;" class="s23" d="m447.7 345.3c5.1-3 9.3-0.6 9.3 5.3 0 5.9-4.2 13-9.3 16-5.1 3-9.3 0.6-9.3-5.3 0-5.9 4.1-13.1 9.3-16z"/>
						</g>
					</g>
					<g id="&lt;Group&gt;">
						<path id="&lt;Path&gt;" class="s11" d="m447.7 350.3c2.7-1.6 4.9-0.3 4.9 2.8 0 3.1-2.2 6.9-4.9 8.4-2.7 1.6-4.9 0.3-4.9-2.8 0-3.1 2.2-6.8 4.9-8.4z"/>
					</g>
				</g>
			</g>
		</g>
	</g>
</svg>