<svg version="1.2" xmlns="http://www.w3.org/2000/svg" viewBox="0 0 800 800" width="800" height="800">
	<title>944298-ai</title>
	<style>
		.s0 { fill: #3a4052 } 
		.s1 { fill: #3d414a } 
		.s2 { fill: #5d5e61 } 
		.s3 { fill: #ca974d } 
		.s4 { fill: #805228 } 
		.s5 { fill: #8e9da3 } 
		.s6 { fill: #7b7c88 } 
		.s7 { fill: #6e687a } 
		.s8 { fill: #fae6cc } 
		.s9 { fill: #ffbab2 } 
		.s10 { fill: #ce926f } 
		.s11 { fill: #ebc17d } 
		.s12 { fill: #343c82 } 
		.s13 { fill: #19163d } 
		.s14 { fill: #34418c } 
		.s15 { fill: #2b1753 } 
		.s16 { fill: #666172 } 
		.s17 { fill: #ac9aac } 
		.s18 { fill: #c3bec1 } 
		.s19 { fill: #a79da6 } 
		.s20 { fill: #e7e0d4 } 
	</style>
	<g id="BACKGROUND">
	</g>
	<g id="OBJECTS">
		<g id="wizard">
			<g id="&lt;Group&gt;">
				<g id="&lt;Group&gt;">
					<g id="&lt;Group&gt;">
						<path id="&lt;Path&gt;" class="s0" d="m495.2 531.7v7.3l-103.7 60.3v-7.3z"/>
					</g>
					<g id="&lt;Group&gt;">
						<path id="&lt;Path&gt;" class="s1" d="m391.5 592v7.3l-104.4-60.3v-7.3z"/>
					</g>
					<g id="&lt;Group&gt;">
						<path id="&lt;Path&gt;" class="s2" d="m495.2 531.7l-103.7 60.3-104.4-60.3 103.7-60.3z"/>
					</g>
				</g>
			</g>
			<g id="&lt;Group&gt;">
				<g id="&lt;Group&gt;">
					<path id="&lt;Path&gt;" class="s3" d="m318.6 514.6l-6.9-4v-83.4l6.9 4z"/>
					<path id="&lt;Path&gt;" class="s4" d="m318.6 431.2l5.6-3.2v83.4l-5.6 3.2z"/>
				</g>
				<g id="&lt;Group&gt;">
					<g id="&lt;Group&gt;">
						<g id="&lt;Group&gt;">
							<g id="&lt;Group&gt;">
								<g id="&lt;Group&gt;">
									<path id="&lt;Path&gt;" class="s5" d="m332.6 407.3l-13.1-7.6v19.2l13.1 7.6z"/>
								</g>
								<g id="&lt;Group&gt;">
									<path id="&lt;Path&gt;" class="s6" d="m365.3 388.3l-13.1-7.5-32.7 18.9 13.1 7.6z"/>
								</g>
								<g id="&lt;Group&gt;">
									<path id="&lt;Path&gt;" class="s7" d="m332.6 407.3v19.2l32.8-18.9-0.1-19.3z"/>
								</g>
							</g>
						</g>
					</g>
					<g id="&lt;Group&gt;">
						<g id="&lt;Group&gt;">
							<g id="&lt;Group&gt;">
								<g id="&lt;Group&gt;">
									<path id="&lt;Path&gt;" class="s8" d="m317.6 415.9l-13.1-7.6 0.1 19.2 13 7.6z"/>
								</g>
								<g id="&lt;Group&gt;">
									<path id="&lt;Path&gt;" class="s9" d="m332.5 407.3l-13.1-7.6-14.9 8.6 13.1 7.6z"/>
								</g>
								<g id="&lt;Group&gt;">
									<path id="&lt;Path&gt;" class="s10" d="m317.6 415.9v19.2l14.9-8.6v-19.2z"/>
								</g>
							</g>
						</g>
					</g>
				</g>
				<g id="&lt;Group&gt;">
					<g id="&lt;Group&gt;">
						<g id="&lt;Group&gt;">
							<path id="&lt;Path&gt;" class="s3" d="m318.6 412.3l-6.9-4.1-0.2-142.4 6.9 4z"/>
						</g>
						<g id="&lt;Group&gt;">
							<path id="&lt;Path&gt;" class="s11" d="m318.4 269.8l-6.9-4 22.3-12.9 7 4z"/>
						</g>
						<g id="&lt;Group&gt;">
							<path id="&lt;Path&gt;" class="s3" d="m340.8 256.9l-7-4-0.1-40.8 6.9 4z"/>
						</g>
						<g id="&lt;Group&gt;">
							<path id="&lt;Path&gt;" class="s3" d="m325 252.2l-6.9-4.1-0.1-12.9 7 4z"/>
						</g>
						<g id="&lt;Group&gt;">
							<path id="&lt;Path&gt;" class="s11" d="m305.2 263.6l-6.9-4 19.8-11.5 6.9 4.1z"/>
						</g>
						<g id="&lt;Group&gt;">
							<path id="&lt;Path&gt;" class="s3" d="m318.1 243.1l-6.9-4v-6.4l6.9 4z"/>
						</g>
						<g id="&lt;Group&gt;">
							<path id="&lt;Path&gt;" class="s11" d="m318.1 236.7l-6.9-4 12.4-7.2 6.9 4.1z"/>
						</g>
						<g id="&lt;Group&gt;">
							<path id="&lt;Path&gt;" class="s4" d="m346.2 206.5l0.2 53.6-22.4 12.9 0.2 136.1-5.6 3.2-0.2-142.5 22.4-12.9-0.2-40.8-35.5 20.5 0.1 27 19.8-11.4v-13l-6.9 3.9v-6.4l12.4-7.1 0.1 25.8-31 17.8-0.1-39.8z"/>
						</g>
						<g id="&lt;Group&gt;">
							<path id="&lt;Path&gt;" class="s3" d="m299.6 273.2l-6.9-4-0.1-39.8 6.9 4z"/>
						</g>
						<g id="&lt;Group&gt;">
							<path id="&lt;Path&gt;" class="s11" d="m299.5 233.4l-6.9-4 46.7-26.9 6.9 4z"/>
						</g>
					</g>
				</g>
				<g id="&lt;Group&gt;">
					<g id="&lt;Group&gt;">
						<g id="&lt;Group&gt;">
							<g id="&lt;Group&gt;">
								<path id="&lt;Path&gt;" class="s12" d="m386.9 541.8v8.7l23.6 13.8v-8.8z"/>
							</g>
							<g id="&lt;Group&gt;">
								<path id="&lt;Path&gt;" class="s13" d="m410.5 555.5v8.8l41.4-23.9v-8.8z"/>
							</g>
							<g id="&lt;Group&gt;">
								<path id="&lt;Path&gt;" class="s14" d="m386.9 541.8l23.6 13.7 41.4-23.9-23.7-13.7z"/>
							</g>
						</g>
					</g>
					<g id="&lt;Group&gt;">
						<g id="&lt;Group&gt;">
							<g id="&lt;Group&gt;">
								<path id="&lt;Path&gt;" class="s15" d="m431.4 454.5l17.5-10.2-0.1 86.8-17.4 10.2z"/>
							</g>
							<g id="&lt;Group&gt;">
								<path id="&lt;Path&gt;" class="s9" d="m411.5 442.9l17.5-10.1 19.9 11.5-17.5 10.2z"/>
							</g>
							<g id="&lt;Group&gt;">
								<path id="&lt;Path&gt;" class="s12" d="m431.4 454.5v86.8l-20-11.5 0.1-86.9z"/>
							</g>
						</g>
					</g>
				</g>
				<g id="&lt;Group&gt;">
					<g id="&lt;Group&gt;">
						<g id="&lt;Group&gt;">
							<g id="&lt;Group&gt;">
								<path id="&lt;Path&gt;" class="s12" d="m334.2 511.4v8.7l23.6 13.7v-8.7z"/>
							</g>
							<g id="&lt;Group&gt;">
								<path id="&lt;Path&gt;" class="s13" d="m357.8 525.1v8.7l41.4-23.8v-8.8z"/>
							</g>
							<g id="&lt;Group&gt;">
								<path id="&lt;Path&gt;" class="s14" d="m334.2 511.4l23.6 13.7 41.4-23.9-23.6-13.7z"/>
							</g>
						</g>
					</g>
					<g id="&lt;Group&gt;">
						<g id="&lt;Group&gt;">
							<g id="&lt;Group&gt;">
								<path id="&lt;Path&gt;" class="s16" d="m378.9 424.1l17.5-10.1-0.1 86.8-17.5 10.2z"/>
							</g>
							<g id="&lt;Group&gt;">
								<path id="&lt;Path&gt;" class="s9" d="m359 412.6l17.5-10.1 19.9 11.5-17.5 10.1z"/>
							</g>
							<g id="&lt;Group&gt;">
								<path id="&lt;Path&gt;" class="s5" d="m378.9 424.1l-0.1 86.9-19.9-11.5 0.1-86.9z"/>
							</g>
						</g>
					</g>
				</g>
				<g id="&lt;Group&gt;">
					<g id="&lt;Group&gt;">
						<g id="&lt;Group&gt;">
							<path id="&lt;Path&gt;" class="s13" d="m401.9 448.4l63.6-37-0.2 83.2-63.6 37z"/>
						</g>
						<g id="&lt;Group&gt;">
							<path id="&lt;Path&gt;" class="s9" d="m329.5 406.5l63.6-36.9 72.4 41.8-63.6 37z"/>
						</g>
						<g id="&lt;Group&gt;">
							<path id="&lt;Path&gt;" class="s12" d="m401.9 448.4l0.1 83-0.3 0.2-72.4-41.8 0.2-83.3z"/>
						</g>
					</g>
				</g>
				<g id="&lt;Group&gt;">
					<g id="&lt;Group&gt;">
						<g id="&lt;Group&gt;">
							<path id="&lt;Path&gt;" class="s17" d="m402.2 365.1l63.6-36.9-0.3 83.2-63.6 37z"/>
						</g>
						<g id="&lt;Group&gt;">
							<path id="&lt;Path&gt;" class="s9" d="m329.7 323.3l63.6-37 72.5 41.9-63.6 36.9z"/>
						</g>
						<g id="&lt;Group&gt;">
							<path id="&lt;Path&gt;" class="s8" d="m402.2 365.1l-0.3 83.3-72.4-41.9 0.2-83.2z"/>
						</g>
					</g>
					<path id="&lt;Path&gt;" class="s10" d="m402.1 382.9l28.9-16.7v26.2l-11.8 6.8v39l-17.3 10.2z"/>
				</g>
				<g id="&lt;Group&gt;">
					<g id="&lt;Group&gt;">
						<g id="&lt;Group&gt;">
							<path id="&lt;Path&gt;" class="s18" d="m330.5 419.4l5.9-3.4 9.3 5.3-5.9 3.4z"/>
						</g>
						<g id="&lt;Group&gt;">
							<path id="&lt;Path&gt;" class="s18" d="m379.5 447.6l5.8-3.4 9.3 5.4-5.8 3.4z"/>
						</g>
						<g id="&lt;Group&gt;">
							<path id="&lt;Path&gt;" class="s19" d="m388.8 453l5.8-3.4-0.1 42.3-5.8 3.4z"/>
						</g>
						<g id="&lt;Group&gt;">
							<path id="&lt;Path&gt;" class="s19" d="m379.6 412.3l5.8-3.4-0.1 35.3-5.8 3.4z"/>
						</g>
						<g id="&lt;Group&gt;">
							<path id="&lt;Path&gt;" class="s18" d="m339.9 389.4l5.9-3.4 39.6 22.9-5.8 3.4z"/>
						</g>
						<g id="&lt;Group&gt;">
							<path id="&lt;Path&gt;" class="s20" d="m379.6 412.3l-0.1 35.3 9.3 5.4-0.1 42.3-58.3-33.6 0.1-42.3 9.3 5.3 0.1-35.3z"/>
						</g>
					</g>
				</g>
				<g id="&lt;Group&gt;">
					<g id="&lt;Group&gt;">
						<g id="&lt;Group&gt;">
							<path id="&lt;Path&gt;" class="s13" d="m513.2 321.4v13.6l-110.9 64.4v-13.6z"/>
						</g>
						<g id="&lt;Group&gt;">
							<path id="&lt;Path&gt;" class="s12" d="m402.3 385.8v13.6l-111.6-64.4v-13.6z"/>
						</g>
						<g id="&lt;Group&gt;">
							<path id="&lt;Path&gt;" class="s14" d="m513.2 321.4l-110.9 64.4-111.6-64.4 110.9-64.5z"/>
						</g>
					</g>
				</g>
				<g id="&lt;Group&gt;">
					<g id="&lt;Group&gt;">
						<g id="&lt;Group&gt;">
							<path id="&lt;Path&gt;" class="s13" d="m399 239.2l17.3-10.1 49.2 94.3-63.6 37z"/>
						</g>
						<g id="&lt;Group&gt;">
							<path id="&lt;Path&gt;" class="s14" d="m379.2 227.8l17.3-10.1 19.8 11.4-17.3 10.1z"/>
						</g>
						<g id="&lt;Group&gt;">
							<path id="&lt;Path&gt;" class="s12" d="m399 239.2l2.9 121.2-72.4-41.8 49.7-90.8z"/>
						</g>
					</g>
				</g>
				<g id="&lt;Group&gt;">
					<g id="&lt;Group&gt;">
						<g id="&lt;Group&gt;">
							<g id="&lt;Group&gt;">
								<path id="&lt;Path&gt;" class="s8" d="m437.5 495.7l-13-7.6v12.7l13.1 7.6z"/>
							</g>
							<g id="&lt;Group&gt;">
								<path id="&lt;Path&gt;" class="s8" d="m452.4 487.1l-13-7.6-14.9 8.6 13 7.6z"/>
							</g>
							<g id="&lt;Group&gt;">
								<path id="&lt;Path&gt;" class="s10" d="m437.5 495.7l0.1 12.7 14.9-8.6-0.1-12.7z"/>
							</g>
						</g>
					</g>
					<g id="&lt;Group&gt;">
						<g id="&lt;Group&gt;">
							<g id="&lt;Group&gt;">
								<path id="&lt;Path&gt;" class="s12" d="m437.5 446.9l-13-7.6v48.8l13.1 7.6z"/>
							</g>
							<g id="&lt;Group&gt;">
								<path id="&lt;Path&gt;" class="s14" d="m452.4 438.3l-13-7.6-14.9 8.6 13 7.6z"/>
							</g>
							<g id="&lt;Group&gt;">
								<path id="&lt;Path&gt;" class="s13" d="m437.5 446.9l0.1 48.8 14.9-8.6-0.1-48.8z"/>
							</g>
						</g>
					</g>
				</g>
			</g>
		</g>
	</g>
</svg>