<svg version="1.2" xmlns="http://www.w3.org/2000/svg" viewBox="0 0 800 800" width="800" height="800">
	<title>944298-ai</title>
	<style>
		.s0 { fill: #006838 } 
		.s1 { fill: #7ead2c } 
		.s2 { fill: #b2d235 } 
		.s3 { fill: #dce5f0 } 
		.s4 { fill: #612d19 } 
		.s5 { fill: #4f5c69 } 
		.s6 { fill: #ce6f75 } 
		.s7 { fill: #8e9da3 } 
		.s8 { fill: #fae6cc } 
		.s9 { fill: #8672c9 } 
		.s10 { fill: #605fa8 } 
		.s11 { fill: #523966 } 
		.s12 { fill: #5e4275 } 
		.s13 { fill: #37404a } 
		.s14 { fill: #ffbab2 } 
		.s15 { fill: #45525d } 
		.s16 { fill: #666172 } 
		.s17 { fill: #8a9db3 } 
		.s18 { fill: #aa90ff } 
		.s19 { fill: #52423c } 
		.s20 { fill: #775950 } 
		.s21 { fill: #492e26 } 
		.s22 { fill: #b85c3b } 
		.s23 { fill: #5b6c7a } 
		.s24 { fill: #9f5033 } 
		.s25 { fill: #bdc5ce } 
	</style>
	<g id="BACKGROUND">
	</g>
	<g id="OBJECTS">
		<g id="archer">
			<g id="&lt;Group&gt;">
				<g id="&lt;Group&gt;">
					<g id="&lt;Group&gt;">
						<path id="&lt;Path&gt;" class="s0" d="m487.4 487.8v7.3l-103.7 60.3v-7.3z"/>
					</g>
					<g id="&lt;Group&gt;">
						<path id="&lt;Path&gt;" class="s1" d="m383.7 548.1v7.3l-104.4-60.3v-7.3z"/>
						<path id="&lt;Path&gt; copy" class="s0" d="m487.4 487.8v7.3l-103.7 60.3v-7.3z"/>
						<path id="&lt;Path&gt; copy 2" class="s1" d="m383.7 548.1v7.3l-104.4-60.3v-7.3z"/>
					</g>
					<g id="&lt;Group&gt;">
						<path id="&lt;Path&gt;" class="s2" d="m487.4 487.8l-103.7 60.3-104.4-60.3 103.7-60.3z"/>
						<path id="&lt;Path&gt; copy 3" class="s2" d="m487.4 487.8l-103.7 60.3-104.4-60.3 103.7-60.3z"/>
					</g>
				</g>
			</g>
			<g id="&lt;Group&gt;">
				<g id="&lt;Group&gt;">
					<path id="&lt;Path&gt;" class="s3" d="m308 400.3l-0.1 22.2 6.3-0.1v-18.6z"/>
					<g id="&lt;Group&gt;">
						<g id="&lt;Group&gt;">
							<path id="&lt;Path&gt;" class="s4" d="m308.4 380.1v43.7c0 0.3-0.2 0.6-0.6 0.9-0.8 0.4-2 0.4-2.8 0-0.4-0.3-0.6-0.6-0.6-0.9v-43.7c0 0.3 0.2 0.6 0.6 0.8 0.8 0.5 2.1 0.5 2.8 0 0.4-0.2 0.6-0.5 0.6-0.8z"/>
						</g>
						<g id="&lt;Group&gt;">
							<path id="&lt;Path&gt;" class="s5" d="m307.8 379.3c0.8 0.4 0.8 1.2 0 1.6-0.7 0.5-2 0.5-2.8 0-0.8-0.4-0.8-1.2 0-1.6 0.8-0.5 2-0.5 2.8 0z"/>
						</g>
					</g>
					<path id="&lt;Path&gt;" class="s3" d="m305.7 400.8v21.7l-6.3 7.1v-21.6z"/>
				</g>
				<g id="&lt;Group&gt;">
					<g id="&lt;Group&gt;">
						<g id="&lt;Group&gt;">
							<path id="&lt;Path&gt;" class="s6" d="m330.3 300.8l4.4-2.5-0.1 22.3-4.4 2.5z"/>
						</g>
					</g>
				</g>
				<g id="&lt;Group&gt;">
					<g id="&lt;Group&gt;">
						<g id="&lt;Group&gt;">
							<g id="&lt;Group&gt;">
								<g id="&lt;Group&gt;">
									<path id="&lt;Path&gt;" class="s7" d="m322.9 364.9l-13.1-7.6 0.1 19.3 13 7.6z"/>
								</g>
								<g id="&lt;Group&gt;">
									<path id="&lt;Path&gt;" class="s8" d="m355.6 346l-13-7.6-32.8 18.9 13.1 7.6z"/>
								</g>
								<g id="&lt;Group&gt;">
									<path id="&lt;Path&gt;" class="s6" d="m322.9 364.9v19.3l32.8-18.9-0.1-19.3z"/>
								</g>
							</g>
						</g>
					</g>
					<g id="&lt;Group&gt;">
						<g id="&lt;Group&gt;">
							<g id="&lt;Group&gt;">
								<g id="&lt;Group&gt;">
									<path id="&lt;Path&gt;" class="s9" d="m307.9 373.6l-13-7.6v19.2l13.1 7.6z"/>
								</g>
								<g id="&lt;Group&gt;">
									<path id="&lt;Path&gt;" class="s10" d="m322.8 365l-13-7.6-14.9 8.6 13 7.6z"/>
								</g>
								<g id="&lt;Group&gt;">
									<path id="&lt;Path&gt;" class="s11" d="m307.9 373.6l0.1 19.2 14.9-8.6-0.1-19.2z"/>
								</g>
							</g>
						</g>
					</g>
					<g id="&lt;Group&gt;">
						<g id="&lt;Group&gt;">
							<g id="&lt;Group&gt;">
								<path id="&lt;Path&gt;" class="s10" d="m308.8 354.1l5-2.8 16.6 9.5-5 2.8z"/>
							</g>
							<g id="&lt;Group&gt;">
								<path id="&lt;Path&gt;" class="s12" d="m325.4 363.6l5-2.8v25l-5 2.9z"/>
							</g>
							<g id="&lt;Group&gt;">
								<path id="&lt;Path&gt;" class="s9" d="m308.8 354.1l16.6 9.5v25.1l-5.1-3 2.6-1.5v-19.3l-13.1-7.5-1 0.5z"/>
							</g>
						</g>
					</g>
				</g>
				<g id="&lt;Group&gt;">
					<g id="&lt;Group&gt;">
						<g id="&lt;Group&gt;">
							<g id="&lt;Group&gt;">
								<path id="&lt;Path&gt;" class="s9" d="m377.2 499.5v8.7l23.7 13.8-0.1-8.8z"/>
								<path id="&lt;Path&gt; copy 4" class="s9" d="m377.2 499.5v8.7l23.7 13.8-0.1-8.8z"/>
							</g>
							<g id="&lt;Group&gt;">
								<path id="&lt;Path&gt;" class="s12" d="m400.8 513.2l0.1 8.8 41.3-23.9v-8.8z"/>
							</g>
							<g id="&lt;Group&gt;">
								<path id="&lt;Path&gt;" class="s10" d="m377.2 499.5l23.6 13.7 41.4-23.9-23.6-13.7z"/>
							</g>
						</g>
					</g>
					<g id="&lt;Group&gt;">
						<g id="&lt;Group&gt;">
							<g id="&lt;Group&gt;">
								<path id="&lt;Path&gt;" class="s13" d="m421.8 412.1l17.5-10.1-0.1 86.8-17.5 10.2z"/>
							</g>
							<g id="&lt;Group&gt;">
								<path id="&lt;Path&gt;" class="s14" d="m401.8 400.6l17.5-10.1 20 11.5-17.5 10.1z"/>
							</g>
							<g id="&lt;Group&gt;">
								<path id="&lt;Path&gt;" class="s15" d="m421.8 412.1l-0.1 86.9-19.9-11.5v-86.9z"/>
							</g>
						</g>
					</g>
				</g>
				<g id="&lt;Group&gt;">
					<g id="&lt;Group&gt;">
						<g id="&lt;Group&gt;">
							<g id="&lt;Group&gt;">
								<path id="&lt;Path&gt;" class="s9" d="m324.5 469.1l0.1 8.7 23.6 13.7-0.1-8.7z"/>
							</g>
							<g id="&lt;Group&gt;">
								<path id="&lt;Path&gt;" class="s12" d="m348.1 482.8l0.1 8.7 41.4-23.9-0.1-8.7z"/>
							</g>
							<g id="&lt;Group&gt;">
								<path id="&lt;Path&gt;" class="s10" d="m324.5 469.1l23.6 13.7 41.4-23.9-23.6-13.7z"/>
							</g>
						</g>
					</g>
					<g id="&lt;Group&gt;">
						<g id="&lt;Group&gt;">
							<g id="&lt;Group&gt;">
								<path id="&lt;Path&gt;" class="s16" d="m369.3 381.8l17.4-10.1v86.8l-17.5 10.2z"/>
							</g>
							<g id="&lt;Group&gt;">
								<path id="&lt;Path&gt;" class="s14" d="m349.3 370.3l17.5-10.2 19.9 11.6-17.4 10.1z"/>
							</g>
							<g id="&lt;Group&gt;">
								<path id="&lt;Path&gt;" class="s7" d="m369.3 381.8l-0.1 86.9-19.9-11.5v-86.9z"/>
							</g>
						</g>
					</g>
				</g>
				<g id="&lt;Group&gt;">
					<g id="&lt;Group&gt;">
						<g id="&lt;Group&gt;">
							<path id="&lt;Path&gt;" class="s13" d="m392.3 406l63.6-36.9-0.3 83.2-63.5 37z"/>
						</g>
						<g id="&lt;Group&gt;">
							<path id="&lt;Path&gt;" class="s14" d="m319.8 364.2l63.6-36.9 72.5 41.8-63.6 36.9z"/>
						</g>
						<g id="&lt;Group&gt;">
							<path id="&lt;Path&gt;" class="s15" d="m392.3 406l-0.2 83.3-72.5-41.8 0.2-83.3z"/>
						</g>
					</g>
					<g id="&lt;Group&gt;">
						<g id="&lt;Group&gt;">
							<g id="&lt;Group&gt;">
								<path id="&lt;Path&gt;" class="s12" d="m329.8 446.2l1.5-0.9-0.1 8.8-1.5 0.8z"/>
							</g>
							<g id="&lt;Group&gt;">
								<path id="&lt;Path&gt;" class="s12" d="m350 457.9l1.5-0.9v8.8l-1.5 0.8z"/>
							</g>
							<g id="&lt;Group&gt;">
								<path id="&lt;Path&gt;" class="s12" d="m370.3 469.6l1.5-0.9-0.1 8.7-1.5 0.9z"/>
							</g>
							<g id="&lt;Group&gt;">
								<path id="&lt;Path&gt;" class="s9" d="m390.6 470.4l-0.1 19.6-10.1-5.8v-8.8l-10.1-5.8-0.1 8.7-10.1-5.8v-8.8l-10.1-5.8v8.7l-10.1-5.8v-8.8l-10.1-5.8-0.1 8.7-10.1-5.8 0.1-19.7 10.1 5.9 10.1 5.8 10.1 5.9 10.2 5.8 10.1 5.9 10.1 5.8z"/>
							</g>
							<g id="&lt;Group&gt;">
								<path id="&lt;Path&gt;" class="s12" d="m390.6 470.4l1.5-0.9-0.1 19.6-1.5 0.9z"/>
							</g>
							<path id="&lt;Path&gt;" class="s10" d="m381.9 463.7l-10.1-5.9-10.1-5.8-10.2-5.9-10.1-5.8-10.1-5.9-10.1-5.8-1.5 0.8 10.1 5.9 10.1 5.8 10.1 5.9 10.2 5.8 10.1 5.9 10.1 5.8 10.2 5.9 1.5-0.9z"/>
						</g>
					</g>
					<g id="&lt;Group&gt;">
						<g id="&lt;Group&gt;">
							<g id="&lt;Group&gt;">
								<path id="&lt;Path&gt;" class="s9" d="m452.9 447l-1.5-0.8v8.7l1.5 0.9z"/>
							</g>
							<g id="&lt;Group&gt;">
								<path id="&lt;Path&gt;" class="s9" d="m432.6 458.7l-1.5-0.8v8.7l1.5 0.9z"/>
							</g>
							<g id="&lt;Group&gt;">
								<path id="&lt;Path&gt;" class="s9" d="m412.3 470.4l-1.5-0.8 0.1 8.7 1.5 0.9z"/>
							</g>
							<g id="&lt;Group&gt;">
								<path id="&lt;Path&gt;" class="s12" d="m392.1 471.2v19.7l10.1-5.9v-8.7l10.1-5.9 0.1 8.8 10.1-5.9v-8.7l10.1-5.9v8.8l10.1-5.9v-8.7l10.2-5.9v8.8l4.5-2.7v-19.6l-4.6 2.7-10.1 5.8-10.1 5.9-10.2 5.8-10.1 5.9-10.1 5.8z"/>
							</g>
							<g id="&lt;Group&gt;">
								<path id="&lt;Path&gt;" class="s9" d="m392.1 471.2l-1.5-0.8-0.6 19.3 2.1 1.2z"/>
							</g>
							<path id="&lt;Path&gt;" class="s10" d="m400.7 464.5l10.1-5.8 10.1-5.9 10.2-5.8 10.1-5.9 10.1-5.8 4.6-2.7 1.5 0.9-4.6 2.7-10.1 5.8-10.1 5.9-10.2 5.8-10.1 5.9-10.1 5.8-10.1 5.8-1.5-0.8z"/>
						</g>
					</g>
				</g>
				<g id="&lt;Group&gt;">
					<g id="&lt;Group&gt;">
						<g id="&lt;Group&gt;">
							<path id="&lt;Path&gt;" class="s17" d="m388.4 409.5l4.9-2.9-0.1 15.6-4.8 2.8z"/>
						</g>
						<g id="&lt;Group&gt;">
							<path id="&lt;Path&gt;" class="s18" d="m313.6 366.3l4.9-2.8 74.8 43.1-4.9 2.9z"/>
						</g>
						<g id="&lt;Group&gt;">
							<path id="&lt;Path&gt;" class="s9" d="m388.4 409.5v15.5l-37.5 10.3-37.3-53.4v-15.6z"/>
						</g>
					</g>
				</g>
				<g id="&lt;Group&gt;">
					<g id="&lt;Group&gt;">
						<g id="&lt;Group&gt;">
							<path id="&lt;Path&gt;" class="s8" d="m392.5 322.8l-0.2 83.2-72.5-41.8 0.3-83.2z"/>
						</g>
					</g>
					<g id="&lt;Group&gt;">
						<path id="&lt;Path&gt;" class="s6" d="m339.3 328.4c6 3.5 6.7 12.1 6.7 12.6l-13.4-7.8c0-0.4 0.8-8.2 6.7-4.8z"/>
					</g>
					<path id="&lt;Path&gt;" class="s19" d="m319.8 285.8l68.3 39.5 4.2 80.7-30.6-17.6c0 0 11.5 1.2 15.5-6.6 2-3.9 4.9-13.5-21.3-30.5-18.4-12-28-46-28-46l0.4 63.8-8.5-4.9z"/>
					<g id="&lt;Group&gt;">
						<g id="&lt;Group&gt;">
							<g id="&lt;Group&gt;">
								<path id="&lt;Path&gt;" class="s11" d="m388.1 325.3l5.2-3-0.4 83.3-4.9 2.9z"/>
							</g>
							<g id="&lt;Group&gt;">
								<path id="&lt;Path&gt;" class="s10" d="m375.1 317.8l5.1-3 13.1 7.5-5.2 3z"/>
							</g>
						</g>
					</g>
					<path id="&lt;Path&gt;" class="s19" d="m375.1 317.8l-24.1 6.5-22-33.5z"/>
					<g id="&lt;Group&gt;">
						<path id="&lt;Path&gt;" class="s20" d="m318.9 286.2l64.8-42.2 72.4 41.8-68 39.5z"/>
					</g>
					<g id="&lt;Group&gt;">
						<path id="&lt;Path&gt;" class="s21" d="m388.1 325.3l68-39.5-0.2 83.3-67.9 40.4z"/>
					</g>
				</g>
				<g id="&lt;Group&gt;">
					<g id="&lt;Group&gt;">
						<g id="&lt;Group&gt;">
							<path id="&lt;Path&gt;" class="s9" d="m392.9 411.4l-4.9-2.9 0.1 15.6 4.9 2.8z"/>
						</g>
						<g id="&lt;Group&gt;">
							<path id="&lt;Path&gt;" class="s18" d="m461 372.5l-4.9-2.8-69.1 39.8 5.9 1.9z"/>
						</g>
						<g id="&lt;Group&gt;">
							<path id="&lt;Path&gt;" class="s11" d="m392.9 411.4l0.1 15.5 37.4 10.3 30.6-49.1v-15.6z"/>
						</g>
					</g>
				</g>
				<g id="&lt;Group&gt;">
					<g id="&lt;Group&gt;">
						<g id="&lt;Group&gt;">
							<g id="&lt;Group&gt;">
								<path id="&lt;Path&gt;" class="s22" d="m440 445.3c23.4-13.5 44.5-36.9 51.3-56.8 3.5-10.5 11.2-20.4 19.6-25.3l8.1-4.6c0.7-0.4 1.4-0.5 1.8-0.2l-5.5-3.2c-0.5-0.3-1.1-0.3-1.8 0.1l-8.1 4.7c-8.4 4.9-16.1 14.8-19.7 25.2-6.7 20-27.8 43.4-51.2 56.9z"/>
							</g>
							<g id="&lt;Group&gt;">
								<path id="&lt;Path&gt;" class="s4" d="m440 445.3c23.4-13.5 44.5-36.9 51.3-56.8 3.5-10.5 11.2-20.4 19.6-25.3l8.1-4.6c1.4-0.8 2.6-0.2 2.6 1.4 0 1.6-1.2 3.5-2.5 4.3l-8.2 4.7c-6.5 3.8-12.4 11.4-15.1 19.4-7.7 22.7-30.1 47.9-55.8 62.7z"/>
							</g>
						</g>
					</g>
					<g id="&lt;Group&gt;">
						<g id="&lt;Group&gt;">
							<g id="&lt;Group&gt;">
								<path id="&lt;Path&gt;" class="s9" d="m427.9 453.4l-13.1-7.6 0.1 12.7 13 7.6z"/>
							</g>
							<g id="&lt;Group&gt;">
								<path id="&lt;Path&gt;" class="s11" d="m427.9 453.4v12.7l14.9-8.6v-12.7z"/>
							</g>
						</g>
					</g>
					<g id="&lt;Group&gt;">
						<g id="&lt;Group&gt;">
							<g id="&lt;Group&gt;">
								<path id="&lt;Path&gt;" class="s8" d="m427.9 404.6l-13.1-7.6 0.1 48.8 13 7.6z"/>
							</g>
							<g id="&lt;Group&gt;">
								<path id="&lt;Path&gt;" class="s23" d="m442.8 396l-13.1-7.6-14.9 8.6 13.1 7.6z"/>
							</g>
							<g id="&lt;Group&gt;">
								<path id="&lt;Path&gt;" class="s6" d="m427.9 404.6v48.8l14.9-8.6v-48.8z"/>
							</g>
						</g>
					</g>
					<g id="&lt;Group&gt;">
						<g id="&lt;Group&gt;">
							<g id="&lt;Group&gt;">
								<path id="&lt;Path&gt;" class="s11" d="m446.1 437.1v5.7l-18.2 10.6 0.1-5.7z"/>
							</g>
							<g id="&lt;Group&gt;">
								<path id="&lt;Path&gt;" class="s9" d="m428 447.7l-0.1 5.7-18.2-10.6v-5.7z"/>
							</g>
							<g id="&lt;Group&gt;">
								<path id="&lt;Path&gt;" class="s18" d="m446.1 437.1l-18.1 10.6-18.3-10.6 5.1-2.9 0.1 3.1 13 7.6 14.9-8.6v-1.1z"/>
							</g>
						</g>
					</g>
					<g id="&lt;Group&gt;">
						<g id="&lt;Group&gt;">
							<g id="&lt;Group&gt;">
								<g id="&lt;Group&gt;">
									<path id="&lt;Path&gt;" class="s12" d="m451.8 390.1v15l-23.8 13.9v-15z"/>
								</g>
								<g id="&lt;Group&gt;">
									<path id="&lt;Path&gt;" class="s9" d="m428 404v15l-24-13.9v-15z"/>
								</g>
								<g id="&lt;Group&gt;">
									<path id="&lt;Path&gt;" class="s10" d="m451.8 390.1l-23.8 13.9-24-13.9 23.9-13.8z"/>
								</g>
							</g>
						</g>
						<g id="&lt;Group&gt;">
							<g id="&lt;Group&gt;">
								<g id="&lt;Group&gt;">
									<path id="&lt;Path&gt;" class="s12" d="m444.5 380.5v10.4l-16.5 9.6v-10.4z"/>
								</g>
								<g id="&lt;Group&gt;">
									<path id="&lt;Path&gt;" class="s9" d="m428 390.1v10.4l-16.6-9.6v-10.4z"/>
								</g>
								<g id="&lt;Group&gt;">
									<path id="&lt;Path&gt;" class="s10" d="m444.5 380.5l-16.5 9.6-16.6-9.6 16.5-9.6z"/>
								</g>
							</g>
						</g>
					</g>
					<g id="&lt;Group&gt;">
						<g id="&lt;Group&gt;">
							<g id="&lt;Group&gt;">
								<path id="&lt;Path&gt;" class="s24" d="m375 468.4l-5.5-3.2c-2.8-1.6-5.1-3.8-6.7-6.7q-1.1-2-3-3.1l5.6 3.2q1.8 1.1 3 3.1c1.6 2.9 3.8 5.1 6.6 6.7z"/>
							</g>
							<g id="&lt;Group&gt;">
								<path id="&lt;Path&gt;" class="s22" d="m418.7 451c-18.8 10.9-36.1 13.6-45.8 8l5.6 3.2c9.6 5.6 26.9 2.9 45.7-8z"/>
								<path id="&lt;Path&gt;" class="s22" d="m347.6 450.9l-8.4 4.9c-1.4 0.8-2.5 2.7-2.5 4.3 0 0.8 0.3 1.4 0.7 1.6l5.6 3.2c-0.5-0.2-0.8-0.8-0.8-1.6 0-1.6 1.1-3.5 2.5-4.3l8.4-4.8c6-3.5 11.8-4 15.8-1.7l-5.5-3.2c-4.1-2.3-9.8-1.8-15.8 1.6z"/>
							</g>
							<g id="&lt;Group&gt;">
								<path id="&lt;Path&gt;" class="s4" d="m424.2 454.2c-23.4 13.5-44.5 14.5-51.3 2.4-3.6-6.3-11.4-7.3-19.8-2.4l-8.4 4.8c-1.4 0.8-2.5 2.7-2.5 4.3 0 1.6 1.2 2.3 2.5 1.5l8.4-4.9c6.5-3.7 12.5-3 15.3 1.8 7.7 13.8 30.2 13.1 55.9-1.7z"/>
							</g>
						</g>
					</g>
				</g>
				<g id="&lt;Group&gt;">
					<g id="&lt;Group&gt;">
						<g id="&lt;Group&gt;">
							<path id="&lt;Path&gt;" class="s4" d="m308.4 323v43.8c0 0.3-0.2 0.6-0.6 0.8-0.8 0.4-2 0.4-2.8 0-0.4-0.2-0.6-0.5-0.6-0.8v-43.8c0 0.3 0.2 0.6 0.6 0.9 0.8 0.4 2.1 0.4 2.8 0 0.4-0.3 0.6-0.6 0.6-0.9z"/>
						</g>
						<g id="&lt;Group&gt;">
							<path id="&lt;Path&gt;" class="s5" d="m307.8 322.2c0.8 0.5 0.8 1.2 0 1.7-0.7 0.4-2 0.4-2.8 0-0.8-0.5-0.8-1.2 0-1.7 0.8-0.4 2-0.4 2.8 0z"/>
						</g>
					</g>
				</g>
				<g id="&lt;Group&gt;">
					<g id="&lt;Group&gt;">
						<g id="&lt;Group&gt;">
							<path id="&lt;Path&gt;" class="s25" d="m304.9 328.2l-3.7-2.2v-3.5l3.7 2.1z"/>
						</g>
						<g id="&lt;Group&gt;">
							<path id="&lt;Path&gt;" class="s17" d="m304.9 324.6l-3.7-2.1 5.1-3 3.7 2.1z"/>
						</g>
						<g id="&lt;Group&gt;">
							<path id="&lt;Path&gt;" class="s17" d="m310 321.6l0.1 3.6-5.2 3v-3.6z"/>
						</g>
					</g>
					<g id="&lt;Group&gt;">
						<g id="&lt;Group&gt;">
							<path id="&lt;Path&gt;" class="s25" d="m299.5 327.7l-2.1-1.2 7.9-30.7 2.1 1.2z"/>
						</g>
						<g id="&lt;Group&gt;">
							<path id="&lt;Path&gt;" class="s3" d="m307.4 297l8 21.5-5.4 3.1-5.1 3-5.4 3.1z"/>
						</g>
					</g>
					<path id="&lt;Path&gt;" class="s25" d="m307.4 297v26.1l8-4.6z"/>
				</g>
			</g>
		</g>
	</g>
</svg>